Perun-SemiBoldItalic.ufo
<glyph name="exclam" format="2">
  <advance width="333"/>
  <unicode hex="0021"/>
  <outline>
    <contour>
      <point x="391.333" y="722" type="line"/>
      <point x="263.667" y="722" type="line"/>
      <point x="156.333" y="183.667" type="line"/>
      <point x="249.333" y="183.667" type="line"/>
    </contour>
    <contour>
      <point x="223.333" y="0" type="line"/>
      <point x="248.667" y="108.333" type="line"/>
      <point x="128.667" y="108.333" type="line"/>
      <point x="103.333" y="0" type="line"/>
    </contour>
  </outline>
</glyph>
<glyph name="quotedbl" format="2">
  <advance width="496"/>
  <unicode hex="0022"/>
  <outline>
    <contour>
      <point x="594.333" y="722.667" type="line"/>
      <point x="459" y="722.667" type="line"/>
      <point x="417" y="432.667" type="line"/>
      <point x="502.333" y="432.667" type="line"/>
    </contour>
    <contour>
      <point x="372.333" y="722" type="line"/>
      <point x="237" y="722" type="line"/>
      <point x="195" y="432" type="line"/>
      <point x="280.333" y="432" type="line"/>
    </contour>
  </outline>
</glyph>
<glyph name="numbersign" format="2">
  <advance width="726"/>
  <unicode hex="0023"/>
  <outline>
    <contour>
      <point x="802" y="530.333" type="line"/>
      <point x="686.333" y="530.333" type="line"/>
      <point x="788.667" y="722" type="line"/>
      <point x="697.333" y="722" type="line"/>
      <point x="595" y="530.333" type="line"/>
      <point x="470" y="530.333" type="line"/>
      <point x="572.667" y="722" type="line"/>
      <point x="481" y="722" type="line"/>
      <point x="378.667" y="530.333" type="line"/>
      <point x="265" y="530.333" type="line"/>
      <point x="223" y="454" type="line"/>
      <point x="339.333" y="454" type="line"/>
      <point x="253.333" y="292" type="line"/>
      <point x="139.333" y="292" type="line"/>
      <point x="96.3333" y="215.667" type="line"/>
      <point x="212.333" y="215.667" type="line"/>
      <point x="98.6667" y="0" type="line"/>
      <point x="190" y="0" type="line"/>
      <point x="303.667" y="215.667" type="line"/>
      <point x="429" y="215.667" type="line"/>
      <point x="315" y="-0.666667" type="line"/>
      <point x="406.333" y="0" type="line"/>
      <point x="519.667" y="215.667" type="line"/>
      <point x="633.333" y="215.667" type="line"/>
      <point x="676.333" y="292" type="line"/>
      <point x="560.667" y="292" type="line"/>
      <point x="646" y="454" type="line"/>
      <point x="760" y="454" type="line"/>
    </contour>
    <contour>
      <point x="555.667" y="454" type="line"/>
      <point x="470.333" y="292" type="line"/>
      <point x="344.333" y="292" type="line"/>
      <point x="430" y="454" type="line"/>
    </contour>
  </outline>
</glyph>
<glyph name="quotesingle" format="2">
  <advance width="348"/>
  <unicode hex="0027"/>
  <anchor x="219" y="722" name="_dcaron"/>
  <outline>
    <contour>
      <point x="405.667" y="722" type="line"/>
      <point x="270.333" y="722" type="line"/>
      <point x="228.333" y="432.667" type="line"/>
      <point x="313.667" y="432.667" type="line"/>
    </contour>
  </outline>
</glyph>
<glyph name="parenleft" format="2">
  <advance width="376"/>
  <unicode hex="0028"/>
  <outline>
    <contour>
      <point x="256" y="-132" type="line"/>
      <point x="249" y="-72.3333"/>
      <point x="245" y="-14.3333"/>
      <point x="245" y="41.6667" type="curve" smooth="yes"/>
      <point x="245" y="298"/>
      <point x="326" y="515.667"/>
      <point x="456" y="736" type="curve"/>
      <point x="361.333" y="736" type="line"/>
      <point x="225" y="546.333"/>
      <point x="134.333" y="315"/>
      <point x="134.333" y="79.6667" type="curve" smooth="yes"/>
      <point x="134.333" y="7"/>
      <point x="143" y="-63.3333"/>
      <point x="161" y="-132" type="curve"/>
    </contour>
  </outline>
</glyph>
<glyph name="parenright" format="2">
  <advance width="376"/>
  <unicode hex="0029"/>
  <outline>
    <contour>
      <point x="382.667" y="525.667" type="curve" smooth="yes"/>
      <point x="382.667" y="597.667"/>
      <point x="374" y="668"/>
      <point x="356" y="736" type="curve"/>
      <point x="261" y="736" type="line"/>
      <point x="269" y="678"/>
      <point x="272.667" y="621.333"/>
      <point x="272.667" y="566.667" type="curve" smooth="yes"/>
      <point x="272.667" y="307.333"/>
      <point x="189.333" y="89.3333"/>
      <point x="60.3333" y="-132" type="curve"/>
      <point x="155" y="-132" type="line"/>
      <point x="291" y="59.3333"/>
      <point x="382.667" y="288.667"/>
    </contour>
  </outline>
</glyph>
<glyph name="comma" format="2">
  <advance width="298"/>
  <unicode hex="002C"/>
  <outline>
    <contour>
      <point x="279.333" y="123" type="line"/>
      <point x="148.667" y="123" type="line"/>
      <point x="18.3333" y="-128.333" type="line"/>
      <point x="105" y="-128.333" type="line"/>
    </contour>
  </outline>
</glyph>
<glyph name="period" format="2">
  <advance width="287"/>
  <unicode hex="002E"/>
  <outline>
    <contour>
      <point x="218" y="0" type="line"/>
      <point x="247.333" y="129" type="line"/>
      <point x="127.333" y="129" type="line"/>
      <point x="98" y="0" type="line"/>
    </contour>
  </outline>
</glyph>
<glyph name="one" format="2">
  <advance width="523"/>
  <unicode hex="0031"/>
  <outline>
    <contour>
      <point x="379.667" y="0" type="line"/>
      <point x="546.667" y="722" type="line"/>
      <point x="430" y="722" type="line"/>
      <point x="381.333" y="681.333"/>
      <point x="302" y="635"/>
      <point x="233" y="607.333" type="curve"/>
      <point x="207.333" y="497.667" type="line"/>
      <point x="277.333" y="521.333"/>
      <point x="340.667" y="550.667"/>
      <point x="394.333" y="586.667" type="curve"/>
      <point x="258.667" y="0" type="line"/>
    </contour>
  </outline>
</glyph>
<glyph name="two" format="2">
  <advance width="568"/>
  <unicode hex="0032"/>
  <outline>
    <contour>
      <point x="40.3333" y="0" type="line"/>
      <point x="525.333" y="0" type="line"/>
      <point x="548.667" y="102.667" type="line"/>
      <point x="203.667" y="102.667" type="line"/>
      <point x="409.333" y="244" type="line"/>
      <point x="537" y="334"/>
      <point x="653.667" y="442.333"/>
      <point x="653.667" y="577" type="curve" smooth="yes"/>
      <point x="653.667" y="674.333"/>
      <point x="583" y="736"/>
      <point x="467.667" y="736" type="curve" smooth="yes"/>
      <point x="338.667" y="736"/>
      <point x="216.333" y="659.333"/>
      <point x="182" y="524" type="curve"/>
      <point x="312.667" y="524" type="line"/>
      <point x="331.667" y="592"/>
      <point x="381.667" y="635"/>
      <point x="444.667" y="635" type="curve" smooth="yes"/>
      <point x="496" y="635"/>
      <point x="525.333" y="606"/>
      <point x="525.333" y="561.333" type="curve" smooth="yes"/>
      <point x="525.333" y="472"/>
      <point x="435.667" y="391.667"/>
      <point x="356" y="330.667" type="curve"/>
      <point x="67.3333" y="117" type="line"/>
    </contour>
  </outline>
</glyph>
<glyph name="four" format="2">
  <advance width="568"/>
  <unicode hex="0034"/>
  <outline>
    <contour>
      <point x="582" y="164" type="line"/>
      <point x="606.333" y="268.333" type="line"/>
      <point x="516.667" y="268.333" type="line"/>
      <point x="621.667" y="722" type="line"/>
      <point x="468.333" y="722" type="line"/>
      <point x="90.3333" y="285.667" type="line"/>
      <point x="62.3333" y="164" type="line"/>
      <point x="371.333" y="164" type="line"/>
      <point x="333.667" y="0" type="line"/>
      <point x="454.667" y="0" type="line"/>
      <point x="492.333" y="164" type="line"/>
    </contour>
    <contour>
      <point x="395.667" y="268.333" type="line"/>
      <point x="195.333" y="268.333" type="line"/>
      <point x="471.333" y="597.333" type="line"/>
    </contour>
  </outline>
</glyph>
<glyph name="five" format="2">
  <advance width="568"/>
  <unicode hex="0035"/>
  <outline>
    <contour>
      <point x="85.3333" y="181.333" type="line"/>
      <point x="82" y="165"/>
      <point x="80.6667" y="149.667"/>
      <point x="80.6667" y="136.667" type="curve" smooth="yes"/>
      <point x="80.6667" y="36"/>
      <point x="155.333" y="-13.3333"/>
      <point x="267.667" y="-13.3333" type="curve" smooth="yes"/>
      <point x="447" y="-13.3333"/>
      <point x="591.333" y="133.667"/>
      <point x="591.333" y="310.333" type="curve" smooth="yes"/>
      <point x="591.333" y="407"/>
      <point x="538.667" y="474"/>
      <point x="435.667" y="474" type="curve" smooth="yes"/>
      <point x="382" y="474"/>
      <point x="311" y="455.333"/>
      <point x="276" y="417.333" type="curve"/>
      <point x="325" y="617.667" type="line"/>
      <point x="622" y="617.667" type="line"/>
      <point x="646.333" y="722" type="line"/>
      <point x="225.333" y="722" type="line"/>
      <point x="126.333" y="295.333" type="line"/>
      <point x="236.667" y="295.333" type="line"/>
      <point x="274.333" y="353.667"/>
      <point x="317" y="381.333"/>
      <point x="375" y="381.333" type="curve" smooth="yes"/>
      <point x="434" y="381.333"/>
      <point x="462.333" y="353.333"/>
      <point x="462.333" y="292.667" type="curve" smooth="yes"/>
      <point x="462.333" y="202.667"/>
      <point x="400" y="86.6667"/>
      <point x="289" y="86.6667" type="curve" smooth="yes"/>
      <point x="239.667" y="86.6667"/>
      <point x="206.333" y="109.667"/>
      <point x="206.333" y="155.333" type="curve" smooth="yes"/>
      <point x="206.333" y="163.667"/>
      <point x="207.333" y="172.333"/>
      <point x="209.667" y="181.333" type="curve"/>
    </contour>
  </outline>
</glyph>
<glyph name="eight" format="2">
  <advance width="568"/>
  <unicode hex="0038"/>
  <outline>
    <contour>
      <point x="73.6667" y="135.333" type="curve" smooth="yes"/>
      <point x="73.6667" y="31"/>
      <point x="160.333" y="-13.3333"/>
      <point x="277.333" y="-13.3333" type="curve" smooth="yes"/>
      <point x="440.667" y="-13.3333"/>
      <point x="581.667" y="74.6667"/>
      <point x="581.667" y="243.333" type="curve" smooth="yes"/>
      <point x="581.667" y="330"/>
      <point x="531" y="361"/>
      <point x="467.333" y="386.667" type="curve"/>
      <point x="569.333" y="427"/>
      <point x="647.667" y="486.667"/>
      <point x="647.667" y="588.667" type="curve" smooth="yes"/>
      <point x="647.667" y="692.667"/>
      <point x="567" y="737.333"/>
      <point x="457.667" y="737.333" type="curve" smooth="yes"/>
      <point x="314.333" y="737.333"/>
      <point x="174.333" y="659.667"/>
      <point x="174.333" y="511.667" type="curve" smooth="yes"/>
      <point x="174.333" y="447.667"/>
      <point x="213.667" y="409.333"/>
      <point x="271" y="386.333" type="curve"/>
      <point x="155" y="341.667"/>
      <point x="73.6667" y="262.667"/>
    </contour>
    <contour>
      <point x="381.667" y="432.667" type="curve" smooth="yes"/>
      <point x="332.333" y="432.667"/>
      <point x="301.667" y="461"/>
      <point x="301.667" y="511" type="curve" smooth="yes"/>
      <point x="301.667" y="578"/>
      <point x="356.333" y="637"/>
      <point x="429" y="637" type="curve" smooth="yes"/>
      <point x="479" y="637"/>
      <point x="510" y="609.333"/>
      <point x="510" y="559" type="curve" smooth="yes"/>
      <point x="510" y="492"/>
      <point x="453.667" y="432.667"/>
    </contour>
    <contour>
      <point x="211.333" y="175" type="curve" smooth="yes"/>
      <point x="211.333" y="254.667"/>
      <point x="270.667" y="332.333"/>
      <point x="358.333" y="332.333" type="curve" smooth="yes"/>
      <point x="417.333" y="332.333"/>
      <point x="450.667" y="297"/>
      <point x="450.667" y="239" type="curve" smooth="yes"/>
      <point x="450.667" y="159.333"/>
      <point x="389.333" y="85"/>
      <point x="300.667" y="85" type="curve" smooth="yes"/>
      <point x="241.333" y="85"/>
      <point x="211.333" y="117.667"/>
    </contour>
  </outline>
</glyph>
<glyph name="colon" format="2">
  <advance width="298"/>
  <unicode hex="003A"/>
  <outline>
    <contour>
      <point x="329.667" y="371" type="line"/>
      <point x="359" y="500" type="line"/>
      <point x="239" y="500" type="line"/>
      <point x="209.667" y="371" type="line"/>
    </contour>
    <contour>
      <point x="244" y="0" type="line"/>
      <point x="273.333" y="129" type="line"/>
      <point x="153.333" y="129" type="line"/>
      <point x="124" y="0" type="line"/>
    </contour>
  </outline>
</glyph>
<glyph name="semicolon" format="2">
  <advance width="298"/>
  <unicode hex="003B"/>
  <outline>
    <contour>
      <point x="319.667" y="371" type="line"/>
      <point x="349" y="500" type="line"/>
      <point x="229" y="500" type="line"/>
      <point x="199.667" y="371" type="line"/>
    </contour>
    <contour>
      <point x="280.667" y="129" type="line"/>
      <point x="150" y="129" type="line"/>
      <point x="19.6667" y="-122.333" type="line"/>
      <point x="106.333" y="-122.333" type="line"/>
    </contour>
  </outline>
</glyph>
<glyph name="less" format="2">
  <advance width="900"/>
  <unicode hex="003C"/>
  <outline>
    <contour>
      <point x="759" y="39" type="line"/>
      <point x="773" y="101" type="line"/>
      <point x="283" y="300" type="line"/>
      <point x="865" y="499" type="line"/>
      <point x="880" y="561" type="line"/>
      <point x="226" y="331" type="line"/>
      <point x="212" y="269" type="line"/>
    </contour>
  </outline>
</glyph>
<glyph name="greater" format="2">
  <advance width="900"/>
  <unicode hex="003E"/>
  <outline>
    <contour>
      <point x="812" y="269" type="line"/>
      <point x="826" y="331" type="line"/>
      <point x="280" y="561" type="line"/>
      <point x="265" y="499" type="line"/>
      <point x="755" y="300" type="line"/>
      <point x="173" y="101" type="line"/>
      <point x="159" y="39" type="line"/>
    </contour>
  </outline>
</glyph>
<glyph name="at" format="2">
  <advance width="1026"/>
  <unicode hex="0040"/>
  <outline>
    <contour>
      <point x="94.6667" y="150" type="curve" smooth="yes"/>
      <point x="94.6667" y="-86.6667"/>
      <point x="265" y="-201.333"/>
      <point x="494" y="-201.333" type="curve" smooth="yes"/>
      <point x="555.667" y="-201.333"/>
      <point x="607.667" y="-196.333"/>
      <point x="694.667" y="-181.333" type="curve"/>
      <point x="721" y="-65" type="line"/>
      <point x="640.667" y="-90"/>
      <point x="577.667" y="-92"/>
      <point x="490" y="-92" type="curve" smooth="yes"/>
      <point x="328" y="-92"/>
      <point x="222" y="11.6667"/>
      <point x="222" y="172" type="curve" smooth="yes"/>
      <point x="222" y="405.667"/>
      <point x="423.667" y="622.667"/>
      <point x="669.333" y="622.667" type="curve" smooth="yes"/>
      <point x="834.667" y="622.667"/>
      <point x="936.667" y="547.667"/>
      <point x="936.667" y="392.333" type="curve" smooth="yes"/>
      <point x="936.667" y="319"/>
      <point x="892.667" y="107"/>
      <point x="804" y="107" type="curve" smooth="yes"/>
      <point x="783.667" y="107"/>
      <point x="772.333" y="118.333"/>
      <point x="771.667" y="150.333" type="curve"/>
      <point x="845.667" y="489" type="line"/>
      <point x="724.333" y="489" type="line"/>
      <point x="712.333" y="437" type="line"/>
      <point x="686.667" y="479.333"/>
      <point x="651.667" y="502"/>
      <point x="586.667" y="502" type="curve" smooth="yes"/>
      <point x="436.333" y="502"/>
      <point x="327.333" y="332.667"/>
      <point x="327.333" y="192.667" type="curve" smooth="yes"/>
      <point x="327.333" y="91.6667"/>
      <point x="383.667" y="15.3333"/>
      <point x="477.333" y="15.3333" type="curve" smooth="yes"/>
      <point x="549.333" y="15.3333"/>
      <point x="609.667" y="51.3333"/>
      <point x="651" y="96.6667" type="curve"/>
      <point x="667.667" y="35.6667"/>
      <point x="710" y="11"/>
      <point x="769" y="11" type="curve" smooth="yes"/>
      <point x="954.667" y="11"/>
      <point x="1064" y="250.667"/>
      <point x="1064" y="419.333" type="curve" smooth="yes"/>
      <point x="1064" y="621.667"/>
      <point x="906" y="729.333"/>
      <point x="693.333" y="729.333" type="curve" smooth="yes"/>
      <point x="376.667" y="729.333"/>
      <point x="94.6667" y="465.667"/>
    </contour>
    <contour>
      <point x="453.333" y="200" type="curve" smooth="yes"/>
      <point x="453.333" y="282.333"/>
      <point x="505.333" y="408.333"/>
      <point x="603.333" y="408.333" type="curve" smooth="yes"/>
      <point x="656.667" y="408.333"/>
      <point x="675.667" y="371"/>
      <point x="675.667" y="322" type="curve" smooth="yes"/>
      <point x="675.667" y="239"/>
      <point x="620.333" y="109"/>
      <point x="525" y="109" type="curve" smooth="yes"/>
      <point x="475" y="109"/>
      <point x="453.333" y="146"/>
    </contour>
  </outline>
</glyph>
<glyph name="C" format="2">
  <advance width="705"/>
  <unicode hex="0043"/>
  <anchor x="351.333" y="-63.3333" name="bottom"/>
  <anchor x="369.333" y="10" name="cedillaC"/>
  <anchor x="547.333" y="800" name="top"/>
  <outline>
    <contour>
      <point x="120" y="219" type="curve"/>
      <point x="124" y="82.6667"/>
      <point x="191.333" y="-13.3333"/>
      <point x="364" y="-13.3333" type="curve" smooth="yes"/>
      <point x="529" y="-13.3333"/>
      <point x="662.333" y="74"/>
      <point x="704" y="227" type="curve"/>
      <point x="563" y="227" type="line"/>
      <point x="531.333" y="139.667"/>
      <point x="478.667" y="90"/>
      <point x="386" y="90" type="curve" smooth="yes"/>
      <point x="284.667" y="90"/>
      <point x="253.667" y="148.667"/>
      <point x="253.667" y="227.667" type="curve" smooth="yes"/>
      <point x="253.667" y="385"/>
      <point x="326.667" y="632"/>
      <point x="521.667" y="632" type="curve" smooth="yes"/>
      <point x="593" y="632"/>
      <point x="635.667" y="605.667"/>
      <point x="635.667" y="545" type="curve" smooth="yes"/>
      <point x="635.667" y="533.333"/>
      <point x="634" y="520.667"/>
      <point x="630.667" y="506.333" type="curve"/>
      <point x="761.333" y="506.333" type="line"/>
      <point x="765.333" y="524.667"/>
      <point x="767.333" y="544.667"/>
      <point x="767.333" y="563" type="curve" smooth="yes"/>
      <point x="767.333" y="680"/>
      <point x="683.667" y="735.333"/>
      <point x="536" y="735.333" type="curve" smooth="yes"/>
      <point x="264.333" y="735.333"/>
      <point x="120" y="458"/>
    </contour>
  </outline>
  <guideline angle="0" x="0" y="-12"/>
  <guideline angle="0" x="0" y="736"/>
</glyph>
<glyph name="E" format="2">
  <advance width="593"/>
  <unicode hex="0045"/>
  <anchor x="313.333" y="-60" name="bottom"/>
  <anchor x="465.667" y="800" name="top"/>
  <outline>
    <contour>
      <point x="545.333" y="0" type="line"/>
      <point x="570" y="105.667" type="line"/>
      <point x="223.333" y="105.667" type="line"/>
      <point x="273" y="321.333" type="line"/>
      <point x="593" y="321.333" type="line"/>
      <point x="616.333" y="423.667" type="line"/>
      <point x="296.333" y="423.667" type="line"/>
      <point x="341" y="616.333" type="line"/>
      <point x="677.667" y="616.333" type="line"/>
      <point x="702.333" y="722" type="line"/>
      <point x="235.333" y="722" type="line"/>
      <point x="68.3333" y="0" type="line"/>
    </contour>
  </outline>
</glyph>
<glyph name="F" format="2">
  <advance width="569"/>
  <unicode hex="0046"/>
  <anchor x="456.333" y="800" name="top"/>
  <outline>
    <contour>
      <point x="655" y="616.333" type="line"/>
      <point x="679.667" y="722" type="line"/>
      <point x="233.667" y="722" type="line"/>
      <point x="66.6667" y="0" type="line"/>
      <point x="200.333" y="0" type="line"/>
      <point x="274" y="318.667" type="line"/>
      <point x="566.333" y="318.667" type="line"/>
      <point x="590.333" y="424.333" type="line"/>
      <point x="298" y="424.333" type="line"/>
      <point x="342.667" y="616.333" type="line"/>
    </contour>
  </outline>
</glyph>
<glyph name="G" format="2">
  <advance width="761"/>
  <unicode hex="0047"/>
  <anchor x="587.667" y="800" name="top"/>
  <outline>
    <contour>
      <point x="123" y="252" type="curve" smooth="yes"/>
      <point x="123" y="62.3333"/>
      <point x="245.667" y="-13.3333"/>
      <point x="429.667" y="-13.3333" type="curve" smooth="yes"/>
      <point x="512.333" y="-13.3333"/>
      <point x="601.667" y="2.66667"/>
      <point x="700.333" y="33.3333" type="curve"/>
      <point x="782" y="385" type="line"/>
      <point x="507" y="385" type="line"/>
      <point x="481.667" y="276.667" type="line"/>
      <point x="623" y="276.667" type="line"/>
      <point x="585" y="110.667" type="line"/>
      <point x="538.667" y="98.3333"/>
      <point x="491.667" y="90"/>
      <point x="449.667" y="90" type="curve" smooth="yes"/>
      <point x="329" y="90"/>
      <point x="259" y="156"/>
      <point x="259" y="269" type="curve" smooth="yes"/>
      <point x="259" y="440.667"/>
      <point x="367.667" y="632"/>
      <point x="558.667" y="632" type="curve" smooth="yes"/>
      <point x="628.333" y="632"/>
      <point x="687.667" y="601"/>
      <point x="687.667" y="538.667" type="curve" smooth="yes"/>
      <point x="687.667" y="530.667"/>
      <point x="686.667" y="521"/>
      <point x="684.333" y="510.667" type="curve"/>
      <point x="818.667" y="510.667" type="line"/>
      <point x="823" y="531"/>
      <point x="825.333" y="549.333"/>
      <point x="825.333" y="566.667" type="curve" smooth="yes"/>
      <point x="825.333" y="682"/>
      <point x="723.667" y="735.333"/>
      <point x="581" y="735.333" type="curve" smooth="yes"/>
      <point x="318" y="735.333"/>
      <point x="123" y="503"/>
    </contour>
  </outline>
  <guideline angle="0" x="0" y="747"/>
  <guideline angle="0" x="0" y="-14"/>
</glyph>
<glyph name="I" format="2">
  <advance width="280"/>
  <unicode hex="0049"/>
  <anchor x="160" y="-65" name="bottom"/>
  <anchor x="142.333" y="10" name="bottomUC"/>
  <anchor x="319.333" y="800" name="top"/>
  <outline>
    <contour>
      <point x="207" y="0" type="line"/>
      <point x="374" y="722" type="line"/>
      <point x="240.333" y="722" type="line"/>
      <point x="73.3333" y="0" type="line"/>
    </contour>
  </outline>
</glyph>
<glyph name="K" format="2">
  <advance width="674"/>
  <unicode hex="004B"/>
  <anchor x="328.333" y="-60" name="bottom"/>
  <anchor x="487.667" y="800" name="top"/>
  <outline>
    <contour>
      <point x="651" y="0" type="line"/>
      <point x="430.333" y="390.333" type="line"/>
      <point x="781.333" y="722" type="line"/>
      <point x="623.333" y="722" type="line"/>
      <point x="293.667" y="419.667" type="line"/>
      <point x="364" y="722" type="line"/>
      <point x="233.667" y="722" type="line"/>
      <point x="66.6667" y="0" type="line"/>
      <point x="197" y="0" type="line"/>
      <point x="282.333" y="368.333" type="line"/>
      <point x="481.667" y="0" type="line"/>
    </contour>
  </outline>
</glyph>
<glyph name="L" format="2">
  <advance width="545"/>
  <unicode hex="004C"/>
  <anchor x="275.667" y="-60" name="bottom"/>
  <anchor x="440.333" y="389" name="dotCN"/>
  <anchor x="311.333" y="800" name="top"/>
  <outline>
    <contour>
      <point x="524" y="0" type="line"/>
      <point x="548.667" y="105.667" type="line"/>
      <point x="221.667" y="105.667" type="line"/>
      <point x="364" y="722" type="line"/>
      <point x="233.667" y="722" type="line"/>
      <point x="66.6667" y="0" type="line"/>
    </contour>
  </outline>
</glyph>
<glyph name="M" format="2">
  <advance width="909"/>
  <unicode hex="004D"/>
  <anchor x="620" y="800" name="top"/>
  <outline>
    <contour>
      <point x="841" y="0" type="line"/>
      <point x="1008.67" y="724.667" type="line"/>
      <point x="795.667" y="724.667" type="line"/>
      <point x="495.667" y="180" type="line"/>
      <point x="448.333" y="722" type="line"/>
      <point x="235.333" y="722" type="line"/>
      <point x="68.3333" y="0" type="line"/>
      <point x="195.333" y="0" type="line"/>
      <point x="336" y="607.333" type="line"/>
      <point x="393" y="0" type="line"/>
      <point x="515.667" y="0" type="line"/>
      <point x="855" y="609" type="line"/>
      <point x="714" y="0" type="line"/>
    </contour>
  </outline>
</glyph>
<glyph name="N" format="2">
  <advance width="739"/>
  <unicode hex="004E"/>
  <anchor x="367" y="-60" name="bottom"/>
  <anchor x="566.667" y="800" name="top"/>
  <outline>
    <contour>
      <point x="673" y="0" type="line"/>
      <point x="840" y="722" type="line"/>
      <point x="713" y="722" type="line"/>
      <point x="578" y="140" type="line"/>
      <point x="421.333" y="722" type="line"/>
      <point x="233.667" y="722" type="line"/>
      <point x="66.6667" y="0" type="line"/>
      <point x="193.667" y="0" type="line"/>
      <point x="328" y="582" type="line"/>
      <point x="485" y="0" type="line"/>
    </contour>
  </outline>
</glyph>
<glyph name="O" format="2">
  <advance width="780"/>
  <unicode hex="004F"/>
  <anchor x="380.667" y="-60" name="bottom"/>
  <anchor x="390.333" y="10" name="bottomUC"/>
  <anchor x="553.667" y="800" name="top"/>
  <outline>
    <contour>
      <point x="474.333" y="99.3333" type="line"/>
      <point x="453.667" y="92.3333"/>
      <point x="431.333" y="90"/>
      <point x="407.667" y="90" type="curve" smooth="yes"/>
      <point x="308" y="90"/>
      <point x="260.333" y="149.333"/>
      <point x="260.333" y="252.667" type="curve" smooth="yes"/>
      <point x="260.333" y="398.667"/>
      <point x="326" y="580.333"/>
      <point x="474.333" y="623.333" type="curve"/>
      <point x="474.333" y="726.333" type="line"/>
      <point x="258.667" y="680"/>
      <point x="123.333" y="470.667"/>
      <point x="123.333" y="247.333" type="curve" smooth="yes"/>
      <point x="123.333" y="82"/>
      <point x="218" y="-13.3333"/>
      <point x="385.333" y="-13.3333" type="curve" smooth="yes"/>
      <point x="416.667" y="-13.3333"/>
      <point x="446" y="-10"/>
      <point x="474.333" y="-3.66667" type="curve"/>
    </contour>
    <contour>
      <point x="474.333" y="623.333" type="line"/>
      <point x="495" y="630.333"/>
      <point x="517.333" y="632.667"/>
      <point x="541" y="632.667" type="curve" smooth="yes"/>
      <point x="640.667" y="632.667"/>
      <point x="688.333" y="573.333"/>
      <point x="688.333" y="470" type="curve" smooth="yes"/>
      <point x="688.333" y="324"/>
      <point x="622.667" y="142.333"/>
      <point x="474.333" y="99.3333" type="curve"/>
      <point x="474.333" y="-3.66667" type="line"/>
      <point x="690" y="42.6667"/>
      <point x="825.333" y="252"/>
      <point x="825.333" y="475.333" type="curve" smooth="yes"/>
      <point x="825.333" y="640.667"/>
      <point x="730.667" y="736"/>
      <point x="563.333" y="736" type="curve" smooth="yes"/>
      <point x="532" y="736"/>
      <point x="502.667" y="732.667"/>
      <point x="474.333" y="726.333" type="curve"/>
    </contour>
  </outline>
  <guideline angle="90" x="463" y="0"/>
</glyph>
<glyph name="P" format="2">
  <advance width="637"/>
  <unicode hex="0050"/>
  <anchor x="439.333" y="800" name="top"/>
  <outline>
    <contour>
      <point x="704.667" y="561.333" type="curve" smooth="yes"/>
      <point x="704.667" y="685"/>
      <point x="589.667" y="721.333"/>
      <point x="470.667" y="721.333" type="curve" smooth="yes"/>
      <point x="234.667" y="721.333" type="line"/>
      <point x="68.3333" y="-0.666667" type="line"/>
      <point x="198.667" y="-0.666667" type="line"/>
      <point x="264.333" y="284" type="line"/>
      <point x="370" y="284" type="line" smooth="yes"/>
      <point x="542" y="284"/>
      <point x="704.667" y="371.667"/>
    </contour>
    <contour>
      <point x="371" y="390" type="curve" smooth="yes"/>
      <point x="289" y="390" type="line"/>
      <point x="341" y="615.667" type="line"/>
      <point x="423" y="615.667" type="line" smooth="yes"/>
      <point x="508.333" y="615.667"/>
      <point x="568.333" y="601.333"/>
      <point x="568.333" y="535" type="curve" smooth="yes"/>
      <point x="568.333" y="413.333"/>
      <point x="472.667" y="390"/>
    </contour>
  </outline>
</glyph>
<glyph name="R" format="2">
  <advance width="660"/>
  <unicode hex="0052"/>
  <anchor x="327.333" y="-60" name="bottom"/>
  <anchor x="451.333" y="800" name="top"/>
  <outline>
    <contour>
      <point x="67" y="0" type="line"/>
      <point x="200.667" y="0" type="line"/>
      <point x="271.333" y="305.333" type="line"/>
      <point x="397.667" y="305.333" type="line" smooth="yes"/>
      <point x="477" y="305.333"/>
      <point x="494" y="274"/>
      <point x="494" y="203.667" type="curve" smooth="yes"/>
      <point x="494" y="145"/>
      <point x="481.667" y="93"/>
      <point x="481.667" y="36.3333" type="curve" smooth="yes"/>
      <point x="481.667" y="23.3333"/>
      <point x="482.333" y="10"/>
      <point x="483.667" y="0" type="curve"/>
      <point x="619.333" y="0" type="line"/>
      <point x="617" y="18.6667"/>
      <point x="615.333" y="40.6667"/>
      <point x="615.333" y="63.6667" type="curve" smooth="yes"/>
      <point x="615.333" y="129.667"/>
      <point x="627.667" y="191"/>
      <point x="627.667" y="252" type="curve" smooth="yes"/>
      <point x="627.667" y="319.667"/>
      <point x="602" y="347"/>
      <point x="537.333" y="362" type="curve"/>
      <point x="647" y="396.333"/>
      <point x="728.667" y="450.333"/>
      <point x="728.667" y="579" type="curve" smooth="yes"/>
      <point x="728.667" y="700"/>
      <point x="611.333" y="722"/>
      <point x="495.667" y="722" type="curve" smooth="yes"/>
      <point x="234" y="722" type="line"/>
    </contour>
    <contour>
      <point x="296" y="411.333" type="line"/>
      <point x="342.667" y="616" type="line"/>
      <point x="471" y="616" type="line" smooth="yes"/>
      <point x="535.667" y="616"/>
      <point x="589" y="593.333"/>
      <point x="589" y="537" type="curve" smooth="yes"/>
      <point x="589" y="449.667"/>
      <point x="490.667" y="411.333"/>
      <point x="417" y="411.333" type="curve" smooth="yes"/>
    </contour>
  </outline>
</glyph>
<glyph name="S" format="2">
  <advance width="669"/>
  <unicode hex="0053"/>
  <anchor x="489.667" y="800" name="top"/>
  <outline>
    <contour>
      <point x="104.667" y="224.333" type="line"/>
      <point x="99.6667" y="203.333"/>
      <point x="97.6667" y="183.667"/>
      <point x="97.6667" y="167.333" type="curve" smooth="yes"/>
      <point x="97.6667" y="41.6667"/>
      <point x="226.667" y="-13.3333"/>
      <point x="339" y="-13.3333" type="curve" smooth="yes"/>
      <point x="552.333" y="-13.3333"/>
      <point x="668.333" y="78.6667"/>
      <point x="668.333" y="240.667" type="curve" smooth="yes"/>
      <point x="668.333" y="327.333"/>
      <point x="606" y="378.333"/>
      <point x="520.667" y="402.667" type="curve" smooth="yes"/>
      <point x="397.333" y="439.333" type="line"/>
      <point x="353.667" y="451.333"/>
      <point x="325.667" y="469"/>
      <point x="325.667" y="512" type="curve" smooth="yes"/>
      <point x="325.667" y="587.667"/>
      <point x="388" y="632"/>
      <point x="463" y="632" type="curve" smooth="yes"/>
      <point x="525.667" y="632"/>
      <point x="585.667" y="612.333"/>
      <point x="585.667" y="559.667" type="curve" smooth="yes"/>
      <point x="585.667" y="551"/>
      <point x="584" y="537.667"/>
      <point x="581" y="526.333" type="curve"/>
      <point x="714" y="526.333" type="line"/>
      <point x="718.667" y="545.667"/>
      <point x="720.667" y="562.667"/>
      <point x="720.667" y="579" type="curve" smooth="yes"/>
      <point x="720.667" y="696.667"/>
      <point x="608" y="735.333"/>
      <point x="490.333" y="735.333" type="curve" smooth="yes"/>
      <point x="296.333" y="735.333"/>
      <point x="185" y="648.667"/>
      <point x="185" y="495.667" type="curve" smooth="yes"/>
      <point x="185" y="399.333"/>
      <point x="248.333" y="356"/>
      <point x="317.667" y="337" type="curve"/>
      <point x="457.667" y="296.667" type="line"/>
      <point x="505" y="284"/>
      <point x="533.333" y="253.333"/>
      <point x="533.333" y="204.333" type="curve" smooth="yes"/>
      <point x="533.333" y="139.333"/>
      <point x="468.333" y="90"/>
      <point x="370.667" y="90" type="curve" smooth="yes"/>
      <point x="296.667" y="90"/>
      <point x="232.667" y="121"/>
      <point x="232.667" y="184.333" type="curve" smooth="yes"/>
      <point x="232.667" y="195"/>
      <point x="234.333" y="209"/>
      <point x="238" y="224.333" type="curve"/>
    </contour>
  </outline>
</glyph>
<glyph name="T" format="2">
  <advance width="631"/>
  <unicode hex="0054"/>
  <anchor x="486" y="800" name="top"/>
  <outline>
    <contour>
      <point x="744" y="616.333" type="line"/>
      <point x="768.667" y="722" type="line"/>
      <point x="193.667" y="722" type="line"/>
      <point x="169" y="616.333" type="line"/>
      <point x="389.667" y="616.333" type="line"/>
      <point x="247.333" y="0" type="line"/>
      <point x="381" y="0" type="line"/>
      <point x="523.333" y="616.333" type="line"/>
    </contour>
  </outline>
</glyph>
<glyph name="V" format="2">
  <advance width="709"/>
  <unicode hex="0056"/>
  <anchor x="522" y="800" name="top"/>
  <outline>
    <contour>
      <point x="865.333" y="722" type="line"/>
      <point x="721" y="722" type="line"/>
      <point x="391" y="154.667" type="line"/>
      <point x="323" y="722" type="line"/>
      <point x="178.667" y="722" type="line"/>
      <point x="274" y="0" type="line"/>
      <point x="429.333" y="0" type="line"/>
    </contour>
  </outline>
</glyph>
<glyph name="X" format="2">
  <advance width="689"/>
  <unicode hex="0058"/>
  <anchor x="526" y="800" name="top"/>
  <outline>
    <contour>
      <point x="678.333" y="0" type="line"/>
      <point x="507.333" y="379" type="line"/>
      <point x="820.333" y="722" type="line"/>
      <point x="677.667" y="722" type="line"/>
      <point x="462" y="471.333" type="line"/>
      <point x="360" y="722" type="line"/>
      <point x="204" y="722" type="line"/>
      <point x="355.667" y="379" type="line"/>
      <point x="11.6667" y="0" type="line"/>
      <point x="151" y="0" type="line"/>
      <point x="400.333" y="287.333" type="line"/>
      <point x="522.333" y="0" type="line"/>
    </contour>
  </outline>
</glyph>
<glyph name="bracketright" format="2">
  <advance width="392"/>
  <unicode hex="005D"/>
  <outline>
    <contour>
      <point x="256.667" y="-198" type="line"/>
      <point x="469.667" y="722" type="line"/>
      <point x="257.667" y="722" type="line"/>
      <point x="239.667" y="645" type="line"/>
      <point x="342.667" y="645" type="line"/>
      <point x="165.667" y="-121" type="line"/>
      <point x="62.6667" y="-121" type="line"/>
      <point x="44.6667" y="-198" type="line"/>
    </contour>
  </outline>
</glyph>
<glyph name="b" format="2">
  <advance width="621"/>
  <unicode hex="0062"/>
  <anchor x="337.667" y="-60" name="bottom"/>
  <anchor x="317.667" y="800" name="top"/>
  <outline>
    <contour>
      <point x="80.3333" y="0.666667" type="line"/>
      <point x="199.333" y="0.666667" type="line"/>
      <point x="214.667" y="66.3333" type="line"/>
      <point x="240.667" y="25.3333"/>
      <point x="281" y="-13.3333"/>
      <point x="342.333" y="-13.3333" type="curve" smooth="yes"/>
      <point x="523" y="-13.3333"/>
      <point x="641.667" y="173"/>
      <point x="641.667" y="333.333" type="curve" smooth="yes"/>
      <point x="641.667" y="442"/>
      <point x="587.333" y="513.333"/>
      <point x="470.333" y="513.333" type="curve" smooth="yes"/>
      <point x="401.667" y="513.333"/>
      <point x="352.667" y="495.333"/>
      <point x="302.667" y="447" type="curve"/>
      <point x="366.333" y="722" type="line"/>
      <point x="247.333" y="722" type="line"/>
    </contour>
    <contour>
      <point x="247.333" y="186" type="curve" smooth="yes"/>
      <point x="247.333" y="285.667"/>
      <point x="309.333" y="437.333"/>
      <point x="426" y="437.333" type="curve" smooth="yes"/>
      <point x="496.333" y="437.333"/>
      <point x="517.333" y="382.333"/>
      <point x="517.333" y="322.667" type="curve" smooth="yes"/>
      <point x="517.333" y="220.667"/>
      <point x="456.667" y="69"/>
      <point x="341.667" y="69" type="curve" smooth="yes"/>
      <point x="276" y="69"/>
      <point x="247.333" y="119"/>
    </contour>
  </outline>
</glyph>
<glyph name="c" format="2">
  <advance width="531"/>
  <unicode hex="0063"/>
  <anchor x="264.333" y="-60" name="bottom"/>
  <anchor x="274" y="10" name="cedillaC"/>
  <anchor x="405.333" y="580" name="top"/>
  <outline>
    <contour>
      <point x="99" y="152.667" type="curve" smooth="yes"/>
      <point x="99" y="42.6667"/>
      <point x="157.667" y="-13.3333"/>
      <point x="274.333" y="-13.3333" type="curve" smooth="yes"/>
      <point x="403.667" y="-13.3333"/>
      <point x="493.667" y="56"/>
      <point x="524.667" y="179" type="curve"/>
      <point x="402.667" y="179" type="line"/>
      <point x="385.667" y="108.333"/>
      <point x="353.667" y="65.3333"/>
      <point x="288.333" y="65.3333" type="curve" smooth="yes"/>
      <point x="233.667" y="65.3333"/>
      <point x="213" y="95.3333"/>
      <point x="213" y="154.333" type="curve" smooth="yes"/>
      <point x="213" y="242.667"/>
      <point x="259.667" y="434.333"/>
      <point x="378.333" y="434.333" type="curve" smooth="yes"/>
      <point x="425.333" y="434.333"/>
      <point x="442.667" y="405.667"/>
      <point x="442.667" y="366.667" type="curve" smooth="yes"/>
      <point x="442.667" y="354.333"/>
      <point x="441" y="342.333"/>
      <point x="438" y="329.667" type="curve"/>
      <point x="557.667" y="329.667" type="line"/>
      <point x="561.667" y="348.667"/>
      <point x="564" y="366"/>
      <point x="564" y="383" type="curve" smooth="yes"/>
      <point x="564" y="481.333"/>
      <point x="492" y="513.333"/>
      <point x="398.333" y="513.333" type="curve" smooth="yes"/>
      <point x="205" y="513.333"/>
      <point x="99" y="322.667"/>
    </contour>
  </outline>
</glyph>
<glyph name="f" format="2">
  <advance width="349"/>
  <unicode hex="0066"/>
  <anchor x="364" y="800" name="top"/>
  <outline>
    <contour>
      <point x="107.333" y="421.667" type="line"/>
      <point x="200.667" y="421.667" type="line"/>
      <point x="108" y="0" type="line"/>
      <point x="231.333" y="0" type="line"/>
      <point x="324" y="421.667" type="line"/>
      <point x="431.333" y="421.667" type="line"/>
      <point x="449" y="500" type="line"/>
      <point x="338.333" y="500" type="line"/>
      <point x="355.333" y="573" type="line" smooth="yes"/>
      <point x="368" y="626.667"/>
      <point x="388.333" y="651.333"/>
      <point x="439.667" y="651.333" type="curve" smooth="yes"/>
      <point x="459" y="651.333"/>
      <point x="477.333" y="647.667"/>
      <point x="494.333" y="638" type="curve"/>
      <point x="513.333" y="719.333" type="line"/>
      <point x="483.667" y="729.667"/>
      <point x="454" y="734.667"/>
      <point x="420.333" y="734.667" type="curve" smooth="yes"/>
      <point x="318" y="734.667"/>
      <point x="263" y="689.333"/>
      <point x="236.333" y="575.667" type="curve" smooth="yes"/>
      <point x="218.333" y="500" type="line"/>
      <point x="125" y="500" type="line"/>
    </contour>
  </outline>
</glyph>
<glyph name="g" format="2">
  <advance width="620"/>
  <unicode hex="0067"/>
  <anchor x="403" y="580" name="top"/>
  <outline>
    <contour>
      <point x="102" y="176.667" type="curve" smooth="yes"/>
      <point x="102" y="66.3333"/>
      <point x="159.333" y="5.33333"/>
      <point x="278.333" y="5.33333" type="curve" smooth="yes"/>
      <point x="351" y="5.33333"/>
      <point x="406" y="48.3333"/>
      <point x="445" y="85.3333" type="curve"/>
      <point x="421.667" y="-36"/>
      <point x="386.333" y="-121.333"/>
      <point x="277.333" y="-121.333" type="curve" smooth="yes"/>
      <point x="229.333" y="-121.333"/>
      <point x="188" y="-104.667"/>
      <point x="188" y="-65" type="curve" smooth="yes"/>
      <point x="188" y="-59.6667"/>
      <point x="189" y="-54"/>
      <point x="190.333" y="-48.6667" type="curve"/>
      <point x="70" y="-48.6667" type="line"/>
      <point x="67.6667" y="-59.6667"/>
      <point x="66" y="-69.6667"/>
      <point x="66" y="-81.6667" type="curve" smooth="yes"/>
      <point x="66" y="-175"/>
      <point x="170" y="-200"/>
      <point x="252.333" y="-200" type="curve" smooth="yes"/>
      <point x="402.667" y="-200"/>
      <point x="515.667" y="-125.667"/>
      <point x="548" y="13" type="curve" smooth="yes"/>
      <point x="660" y="500" type="line"/>
      <point x="540" y="500" type="line"/>
      <point x="529.333" y="450.667" type="line"/>
      <point x="508.333" y="487.333"/>
      <point x="469" y="513.333"/>
      <point x="392.333" y="513.333" type="curve" smooth="yes"/>
      <point x="220" y="513.333"/>
      <point x="102" y="335.333"/>
    </contour>
    <contour>
      <point x="224" y="191.667" type="curve" smooth="yes"/>
      <point x="224" y="286"/>
      <point x="286" y="434.667"/>
      <point x="400.667" y="434.667" type="curve" smooth="yes"/>
      <point x="469.667" y="434.667"/>
      <point x="494.333" y="387"/>
      <point x="494.333" y="322.667" type="curve" smooth="yes"/>
      <point x="494.333" y="225.333"/>
      <point x="438" y="84"/>
      <point x="318" y="84" type="curve" smooth="yes"/>
      <point x="251.667" y="84"/>
      <point x="224" y="127"/>
    </contour>
  </outline>
</glyph>
<glyph name="m" format="2">
  <advance width="926"/>
  <unicode hex="006D"/>
  <anchor x="467.667" y="-60" name="bottom"/>
  <anchor x="575" y="580" name="top"/>
  <outline>
    <contour>
      <point x="79.6667" y="0" type="line"/>
      <point x="199.667" y="0" type="line"/>
      <point x="269.333" y="300.333" type="line" smooth="yes"/>
      <point x="283" y="358.333"/>
      <point x="344" y="435.333"/>
      <point x="414" y="435.333" type="curve" smooth="yes"/>
      <point x="462" y="435.333"/>
      <point x="485.667" y="399.333"/>
      <point x="485.667" y="353.333" type="curve" smooth="yes"/>
      <point x="485.667" y="343.333"/>
      <point x="485.333" y="332.667"/>
      <point x="482.333" y="321" type="curve" smooth="yes"/>
      <point x="408" y="0" type="line"/>
      <point x="528" y="0" type="line"/>
      <point x="597.667" y="301" type="line" smooth="yes"/>
      <point x="610.667" y="358.333"/>
      <point x="670" y="435.333"/>
      <point x="740.667" y="435.333" type="curve" smooth="yes"/>
      <point x="788" y="435.333"/>
      <point x="812.333" y="402"/>
      <point x="812.333" y="356.667" type="curve" smooth="yes"/>
      <point x="812.333" y="345.667"/>
      <point x="811" y="333.333"/>
      <point x="807.667" y="320.667" type="curve"/>
      <point x="733.667" y="0" type="line"/>
      <point x="853.667" y="0" type="line"/>
      <point x="929.667" y="327.667" type="line" smooth="yes"/>
      <point x="934.667" y="349"/>
      <point x="937" y="368"/>
      <point x="937" y="386.333" type="curve" smooth="yes"/>
      <point x="937" y="469.333"/>
      <point x="887.333" y="513.333"/>
      <point x="787.333" y="513.333" type="curve" smooth="yes"/>
      <point x="710" y="513.333"/>
      <point x="666" y="482.667"/>
      <point x="610" y="421.667" type="curve"/>
      <point x="594.333" y="478.333"/>
      <point x="560" y="513.333"/>
      <point x="471.333" y="513.333" type="curve" smooth="yes"/>
      <point x="400.333" y="513.333"/>
      <point x="353.333" y="484"/>
      <point x="299" y="428.333" type="curve"/>
      <point x="314.667" y="500" type="line"/>
      <point x="194.667" y="500" type="line"/>
    </contour>
  </outline>
</glyph>
<glyph name="n" format="2">
  <advance width="608"/>
  <unicode hex="006E"/>
  <anchor x="305" y="-60" name="bottom"/>
  <anchor x="427" y="580" name="top"/>
  <outline>
    <contour>
      <point x="79.6667" y="0" type="line"/>
      <point x="199.667" y="0" type="line"/>
      <point x="267.333" y="293.667" type="line" smooth="yes"/>
      <point x="283.667" y="365.333"/>
      <point x="335.667" y="439.333"/>
      <point x="415.333" y="439.333" type="curve" smooth="yes"/>
      <point x="465.667" y="439.333"/>
      <point x="493.333" y="409.333"/>
      <point x="493.333" y="358.667" type="curve" smooth="yes"/>
      <point x="493.333" y="344.333"/>
      <point x="491" y="328"/>
      <point x="487" y="309.667" type="curve" smooth="yes"/>
      <point x="415.667" y="0" type="line"/>
      <point x="535.667" y="0" type="line"/>
      <point x="613" y="335.667" type="line" smooth="yes"/>
      <point x="618" y="356.333"/>
      <point x="620" y="375"/>
      <point x="620" y="391.667" type="curve" smooth="yes"/>
      <point x="620" y="470"/>
      <point x="572.333" y="513.333"/>
      <point x="478.667" y="513.333" type="curve" smooth="yes"/>
      <point x="394" y="513.333"/>
      <point x="350.333" y="490"/>
      <point x="300" y="434" type="curve"/>
      <point x="314.667" y="500" type="line"/>
      <point x="194.667" y="500" type="line"/>
    </contour>
  </outline>
</glyph>
<glyph name="q" format="2">
  <advance width="625"/>
  <unicode hex="0071"/>
  <anchor x="271.667" y="-60" name="bottom"/>
  <anchor x="417.333" y="580" name="top"/>
  <outline>
    <contour>
      <point x="101.667" y="167" type="curve" smooth="yes"/>
      <point x="101.667" y="56.3333"/>
      <point x="155.667" y="-13.6667"/>
      <point x="270.667" y="-13.6667" type="curve" smooth="yes"/>
      <point x="326" y="-13.6667"/>
      <point x="381.333" y="7.66667"/>
      <point x="440.333" y="47.6667" type="curve"/>
      <point x="383.667" y="-200" type="line"/>
      <point x="504.333" y="-200" type="line"/>
      <point x="665.333" y="500" type="line"/>
      <point x="546.333" y="500" type="line"/>
      <point x="530.667" y="432.333" type="line"/>
      <point x="509.333" y="478.333"/>
      <point x="468.667" y="513"/>
      <point x="400.667" y="513" type="curve" smooth="yes"/>
      <point x="211.333" y="513"/>
      <point x="101.667" y="336.667"/>
    </contour>
    <contour>
      <point x="227" y="183" type="curve" smooth="yes"/>
      <point x="227" y="284.333"/>
      <point x="286.667" y="430.667"/>
      <point x="401" y="430.667" type="curve" smooth="yes"/>
      <point x="470.333" y="430.667"/>
      <point x="498" y="377.667"/>
      <point x="498" y="313" type="curve" smooth="yes"/>
      <point x="498" y="214.333"/>
      <point x="434.667" y="64.6667"/>
      <point x="320.333" y="64.6667" type="curve" smooth="yes"/>
      <point x="251.667" y="64.6667"/>
      <point x="227" y="118"/>
    </contour>
  </outline>
</glyph>
<glyph name="r" format="2">
  <advance width="404"/>
  <unicode hex="0072"/>
  <anchor x="130" y="-60" name="bottom"/>
  <anchor x="354.667" y="580" name="top"/>
  <outline>
    <contour>
      <point x="79.6667" y="0" type="line"/>
      <point x="199.667" y="0" type="line"/>
      <point x="260.667" y="264" type="line" smooth="yes"/>
      <point x="283" y="360.333"/>
      <point x="359.667" y="406"/>
      <point x="468" y="406" type="curve"/>
      <point x="492" y="509.333" type="line"/>
      <point x="392.667" y="509.333"/>
      <point x="347.333" y="491"/>
      <point x="298.333" y="426" type="curve"/>
      <point x="314.667" y="500" type="line"/>
      <point x="194.667" y="500" type="line"/>
    </contour>
  </outline>
</glyph>
<glyph name="s" format="2">
  <advance width="521"/>
  <unicode hex="0073"/>
  <anchor x="260" y="-60" name="bottom"/>
  <anchor x="378.333" y="580" name="top"/>
  <outline>
    <contour>
      <point x="88.6667" y="150.667" type="line"/>
      <point x="85.3333" y="135.333"/>
      <point x="83.6667" y="120.333"/>
      <point x="83.6667" y="107.333" type="curve" smooth="yes"/>
      <point x="83.6667" y="19"/>
      <point x="155.667" y="-14"/>
      <point x="246.667" y="-14" type="curve" smooth="yes"/>
      <point x="371.667" y="-14"/>
      <point x="513.667" y="49.6667"/>
      <point x="513.667" y="186.667" type="curve" smooth="yes"/>
      <point x="513.667" y="266.333"/>
      <point x="438.333" y="288.333"/>
      <point x="369" y="302.667" type="curve" smooth="yes"/>
      <point x="339" y="308.667"/>
      <point x="268.667" y="326"/>
      <point x="270" y="369" type="curve" smooth="yes"/>
      <point x="271.333" y="419.333"/>
      <point x="308.333" y="435"/>
      <point x="352.667" y="435" type="curve" smooth="yes"/>
      <point x="398.667" y="435"/>
      <point x="430.667" y="421.333"/>
      <point x="430.667" y="385" type="curve" smooth="yes"/>
      <point x="430.667" y="378.667"/>
      <point x="429.667" y="368.333"/>
      <point x="427.667" y="358" type="curve"/>
      <point x="546.667" y="358" type="line"/>
      <point x="550" y="374.333"/>
      <point x="552" y="389.333"/>
      <point x="552" y="403" type="curve" smooth="yes"/>
      <point x="552" y="488.333"/>
      <point x="472.333" y="513.333"/>
      <point x="380" y="513.333" type="curve" smooth="yes"/>
      <point x="266" y="513.333"/>
      <point x="148" y="467.667"/>
      <point x="148" y="347" type="curve" smooth="yes"/>
      <point x="148" y="264.667"/>
      <point x="241.333" y="225"/>
      <point x="308.667" y="209" type="curve" smooth="yes"/>
      <point x="353.333" y="198.667"/>
      <point x="391.667" y="183.667"/>
      <point x="391.667" y="144.667" type="curve" smooth="yes"/>
      <point x="391.667" y="95.6667"/>
      <point x="329" y="64.3333"/>
      <point x="280.667" y="64.3333" type="curve" smooth="yes"/>
      <point x="229.667" y="64.3333"/>
      <point x="205" y="81.6667"/>
      <point x="205" y="119" type="curve" smooth="yes"/>
      <point x="205" y="128.333"/>
      <point x="206.667" y="138.667"/>
      <point x="209.333" y="150.667" type="curve"/>
    </contour>
  </outline>
</glyph>
<glyph name="t" format="2">
  <advance width="402"/>
  <unicode hex="0074"/>
  <anchor x="223.667" y="-60" name="bottom"/>
  <anchor x="235.333" y="10" name="cedillaC"/>
  <anchor x="499.667" y="816" name="leftTM"/>
  <anchor x="343" y="700" name="top"/>
  <outline>
    <contour>
      <point x="284.667" y="149" type="curve" smooth="yes"/>
      <point x="347.333" y="421.667" type="line"/>
      <point x="463.333" y="421.667" type="line"/>
      <point x="481" y="500" type="line"/>
      <point x="365" y="500" type="line"/>
      <point x="398.333" y="643.333" type="line"/>
      <point x="265.333" y="593" type="line"/>
      <point x="245" y="500" type="line"/>
      <point x="148.333" y="500" type="line"/>
      <point x="130.667" y="421.667" type="line"/>
      <point x="227.333" y="421.667" type="line"/>
      <point x="158.667" y="123.667" type="line" smooth="yes"/>
      <point x="155.333" y="108.667"/>
      <point x="153.667" y="94.6667"/>
      <point x="153.667" y="82.6667" type="curve" smooth="yes"/>
      <point x="153.667" y="22"/>
      <point x="200" y="-12.6667"/>
      <point x="277.667" y="-12.6667" type="curve" smooth="yes"/>
      <point x="306.667" y="-12.6667"/>
      <point x="340.333" y="-7.66667"/>
      <point x="372.667" y="2.66667" type="curve"/>
      <point x="390.667" y="80" type="line"/>
      <point x="373.333" y="74"/>
      <point x="354" y="71"/>
      <point x="338.667" y="71" type="curve" smooth="yes"/>
      <point x="299.667" y="71"/>
      <point x="281" y="89"/>
      <point x="281" y="120.667" type="curve" smooth="yes"/>
      <point x="281" y="129"/>
      <point x="282.333" y="138.333"/>
    </contour>
  </outline>
</glyph>
<glyph name="u" format="2">
  <advance width="607"/>
  <unicode hex="0075"/>
  <anchor x="282.333" y="-60" name="bottom"/>
  <anchor x="449" y="10" name="bottomUC"/>
  <anchor x="424" y="580" name="top"/>
  <outline>
    <contour>
      <point x="108" y="106.667" type="curve" smooth="yes"/>
      <point x="108" y="29.3333"/>
      <point x="154.667" y="-13.3333"/>
      <point x="246.333" y="-13.3333" type="curve" smooth="yes"/>
      <point x="333.667" y="-13.3333"/>
      <point x="373.333" y="6.33333"/>
      <point x="427.667" y="66.6667" type="curve"/>
      <point x="412" y="0" type="line"/>
      <point x="532" y="0" type="line"/>
      <point x="647.667" y="500.667" type="line"/>
      <point x="527.667" y="500.667" type="line"/>
      <point x="459.667" y="207.333" type="line" smooth="yes"/>
      <point x="442.667" y="134.333"/>
      <point x="394" y="61"/>
      <point x="313.333" y="61" type="curve" smooth="yes"/>
      <point x="262.333" y="61"/>
      <point x="234.667" y="90.3333"/>
      <point x="234.667" y="141" type="curve" smooth="yes"/>
      <point x="234.667" y="155"/>
      <point x="237" y="171.333"/>
      <point x="241" y="189.667" type="curve" smooth="yes"/>
      <point x="312.333" y="500" type="line"/>
      <point x="192.333" y="500" type="line"/>
      <point x="115.333" y="163.667" type="line" smooth="yes"/>
      <point x="110.333" y="142.667"/>
      <point x="108" y="123.667"/>
    </contour>
  </outline>
</glyph>
<glyph name="braceleft" format="2">
  <advance width="502"/>
  <unicode hex="007B"/>
  <outline>
    <contour>
      <point x="122.333" y="218.333" type="line"/>
      <point x="182.667" y="208"/>
      <point x="219.667" y="169"/>
      <point x="219.667" y="112" type="curve" smooth="yes"/>
      <point x="219.667" y="96.6667"/>
      <point x="217" y="80.6667"/>
      <point x="213.333" y="62.3333" type="curve"/>
      <point x="185.333" y="-45.6667" type="line" smooth="yes"/>
      <point x="178.667" y="-73"/>
      <point x="175.333" y="-97.6667"/>
      <point x="175.333" y="-117" type="curve" smooth="yes"/>
      <point x="175.333" y="-214"/>
      <point x="258.333" y="-240"/>
      <point x="362.333" y="-240" type="curve" smooth="yes"/>
      <point x="374.333" y="-240" type="line"/>
      <point x="394" y="-152.667" type="line"/>
      <point x="335" y="-152.667"/>
      <point x="295.333" y="-146"/>
      <point x="295.333" y="-94" type="curve" smooth="yes"/>
      <point x="295.333" y="-83"/>
      <point x="296.667" y="-70.3333"/>
      <point x="300.333" y="-56.3333" type="curve" smooth="yes"/>
      <point x="319" y="18.3333" type="line" smooth="yes"/>
      <point x="329" y="59.3333"/>
      <point x="337.667" y="96.3333"/>
      <point x="337.667" y="130.333" type="curve" smooth="yes"/>
      <point x="337.667" y="183"/>
      <point x="318" y="225"/>
      <point x="265.667" y="260" type="curve"/>
      <point x="368.667" y="314"/>
      <point x="407" y="380.667"/>
      <point x="430.333" y="502.333" type="curve" smooth="yes"/>
      <point x="441.667" y="562" type="line" smooth="yes"/>
      <point x="457.667" y="641.333"/>
      <point x="499.333" y="672"/>
      <point x="584" y="672" type="curve"/>
      <point x="603.667" y="759.333" type="line"/>
      <point x="442.667" y="759.333"/>
      <point x="358" y="718.667"/>
      <point x="325" y="554.667" type="curve" smooth="yes"/>
      <point x="307" y="462.333" type="line" smooth="yes"/>
      <point x="286.667" y="364.333"/>
      <point x="244" y="317"/>
      <point x="140.667" y="298.667" type="curve"/>
    </contour>
  </outline>
</glyph>
<glyph name="bar" format="2">
  <advance width="344"/>
  <unicode hex="007C"/>
  <outline>
    <contour>
      <point x="144.667" y="-258" type="line"/>
      <point x="388.667" y="796" type="line"/>
      <point x="324.333" y="796" type="line"/>
      <point x="80.3333" y="-258" type="line"/>
    </contour>
  </outline>
</glyph>
<glyph name="cent" format="2">
  <advance width="568"/>
  <unicode hex="00A2"/>
  <outline>
    <contour>
      <point x="106" y="-127.333" type="line"/>
      <point x="154.333" y="-140.333" type="line"/>
      <point x="574" y="612" type="line"/>
      <point x="524.667" y="625" type="line"/>
    </contour>
    <contour>
      <point x="109.667" y="157.667" type="curve" smooth="yes"/>
      <point x="109.667" y="39.3333"/>
      <point x="176" y="-14"/>
      <point x="292.667" y="-14" type="curve" smooth="yes"/>
      <point x="419.333" y="-14"/>
      <point x="517" y="56.3333"/>
      <point x="545.333" y="177.667" type="curve"/>
      <point x="425.667" y="177.667" type="line"/>
      <point x="410" y="110.667"/>
      <point x="372" y="65.6667"/>
      <point x="308.667" y="65.6667" type="curve" smooth="yes"/>
      <point x="244.333" y="65.6667"/>
      <point x="226.333" y="111"/>
      <point x="226.333" y="166.333" type="curve" smooth="yes"/>
      <point x="226.333" y="259.333"/>
      <point x="276.667" y="434"/>
      <point x="390.667" y="434" type="curve" smooth="yes"/>
      <point x="432.333" y="434"/>
      <point x="465.667" y="416.333"/>
      <point x="465.667" y="363.333" type="curve" smooth="yes"/>
      <point x="465.667" y="353.333"/>
      <point x="464.333" y="342.333"/>
      <point x="462.333" y="332.333" type="curve"/>
      <point x="578.667" y="332.333" type="line"/>
      <point x="582.333" y="349.667"/>
      <point x="585" y="367"/>
      <point x="585" y="385.333" type="curve" smooth="yes"/>
      <point x="585" y="492.667"/>
      <point x="489.667" y="513.667"/>
      <point x="407" y="513.667" type="curve" smooth="yes"/>
      <point x="214.333" y="513.667"/>
      <point x="109.667" y="323.333"/>
    </contour>
  </outline>
</glyph>
<glyph name="sterling" format="2">
  <advance width="568"/>
  <unicode hex="00A3"/>
  <outline>
    <contour>
      <point x="254.333" y="565" type="curve" smooth="yes"/>
      <point x="228" y="452.667" type="line"/>
      <point x="156.333" y="452.667" type="line"/>
      <point x="138.667" y="374.667" type="line"/>
      <point x="210.667" y="374.667" type="line"/>
      <point x="142" y="78" type="line"/>
      <point x="70.3333" y="78" type="line"/>
      <point x="52" y="0" type="line"/>
      <point x="541" y="0" type="line"/>
      <point x="559.333" y="78" type="line"/>
      <point x="261.667" y="78" type="line"/>
      <point x="330" y="374.667" type="line"/>
      <point x="475.333" y="374.667" type="line"/>
      <point x="492.667" y="452.667" type="line"/>
      <point x="347.667" y="452.667" type="line"/>
      <point x="373.333" y="562.333" type="line" smooth="yes"/>
      <point x="388" y="625.333"/>
      <point x="434.333" y="658"/>
      <point x="488.667" y="658" type="curve" smooth="yes"/>
      <point x="532.667" y="658"/>
      <point x="563.333" y="636.333"/>
      <point x="563.333" y="596" type="curve" smooth="yes"/>
      <point x="563.333" y="588"/>
      <point x="562.333" y="578.667"/>
      <point x="560" y="568.333" type="curve"/>
      <point x="679.667" y="568.333" type="line"/>
      <point x="683.667" y="586.333"/>
      <point x="686" y="601.333"/>
      <point x="686" y="616.333" type="curve" smooth="yes"/>
      <point x="686" y="709.333"/>
      <point x="593.333" y="736"/>
      <point x="511.333" y="736" type="curve" smooth="yes"/>
      <point x="382.667" y="736"/>
      <point x="281.333" y="680.333"/>
    </contour>
  </outline>
</glyph>
<glyph name="section" format="2">
  <advance width="467"/>
  <unicode hex="00A7"/>
  <outline>
    <contour>
      <point x="265" y="205" type="curve"/>
      <point x="237" y="223" type="line" smooth="yes"/>
      <point x="219" y="234"/>
      <point x="191" y="257"/>
      <point x="191" y="286" type="curve" smooth="yes"/>
      <point x="191" y="354"/>
      <point x="266" y="381"/>
      <point x="324" y="391" type="curve"/>
      <point x="381" y="357" type="line" smooth="yes"/>
      <point x="394" y="349"/>
      <point x="402" y="333"/>
      <point x="402" y="320" type="curve" smooth="yes"/>
      <point x="402" y="277"/>
      <point x="354" y="234"/>
    </contour>
    <contour>
      <point x="537.667" y="618.333" type="curve"/>
      <point x="556.667" y="705.667" type="line"/>
      <point x="516.333" y="732"/>
      <point x="464.333" y="746.333"/>
      <point x="406.667" y="746.333" type="curve" smooth="yes"/>
      <point x="251.333" y="746.333"/>
      <point x="181.667" y="672"/>
      <point x="181.667" y="571" type="curve" smooth="yes"/>
      <point x="181.667" y="530.667"/>
      <point x="205.333" y="500"/>
      <point x="236.667" y="473.667" type="curve" smooth="yes"/>
      <point x="257" y="456.333" type="line"/>
      <point x="175" y="436.333"/>
      <point x="74.3333" y="381.667"/>
      <point x="74.3333" y="267.667" type="curve" smooth="yes"/>
      <point x="74.3333" y="210.333"/>
      <point x="120" y="168.333"/>
      <point x="172" y="134" type="curve" smooth="yes"/>
      <point x="255.667" y="79" type="line" smooth="yes"/>
      <point x="301" y="49"/>
      <point x="312.333" y="19.3333"/>
      <point x="312.333" y="-4" type="curve" smooth="yes"/>
      <point x="312.333" y="-67.6667"/>
      <point x="250.333" y="-90"/>
      <point x="174" y="-90" type="curve" smooth="yes"/>
      <point x="134.333" y="-90"/>
      <point x="65.3333" y="-76"/>
      <point x="24" y="-43" type="curve"/>
      <point x="1" y="-152.667" type="line"/>
      <point x="32" y="-171.333"/>
      <point x="119" y="-190.333"/>
      <point x="172.667" y="-190.333" type="curve" smooth="yes"/>
      <point x="338.667" y="-190.333"/>
      <point x="442.667" y="-118.333"/>
      <point x="442.667" y="0.333333" type="curve" smooth="yes"/>
      <point x="442.667" y="55.3333"/>
      <point x="408.667" y="94.6667"/>
      <point x="370" y="122.667" type="curve" smooth="yes"/>
      <point x="343.667" y="141.333" type="line"/>
      <point x="426.667" y="178.333"/>
      <point x="523.333" y="242.333"/>
      <point x="523.333" y="338.333" type="curve" smooth="yes"/>
      <point x="523.333" y="376.333"/>
      <point x="503.667" y="424"/>
      <point x="440.667" y="462.667" type="curve" smooth="yes"/>
      <point x="369" y="506" type="line" smooth="yes"/>
      <point x="325.667" y="532.333"/>
      <point x="313.667" y="559"/>
      <point x="313.667" y="584.333" type="curve" smooth="yes"/>
      <point x="313.667" y="628.333"/>
      <point x="350.333" y="663.667"/>
      <point x="407" y="663.667" type="curve" smooth="yes"/>
      <point x="462.667" y="663.667"/>
      <point x="498" y="647.667"/>
    </contour>
  </outline>
</glyph>
<glyph name="copyright" format="2">
  <advance width="867"/>
  <unicode hex="00A9"/>
  <outline>
    <contour>
      <point x="301.333" y="283" type="curve" smooth="yes"/>
      <point x="301.333" y="187.333"/>
      <point x="355" y="126.667"/>
      <point x="460.667" y="126.667" type="curve" smooth="yes"/>
      <point x="573.667" y="126.667"/>
      <point x="660.667" y="196.333"/>
      <point x="689.667" y="298.333" type="curve"/>
      <point x="584.667" y="298.333" type="line"/>
      <point x="569.667" y="238.333"/>
      <point x="539" y="201"/>
      <point x="474" y="201" type="curve" smooth="yes"/>
      <point x="417" y="201"/>
      <point x="402.667" y="224.667"/>
      <point x="402.667" y="272.667" type="curve" smooth="yes"/>
      <point x="402.667" y="369.333"/>
      <point x="447" y="519"/>
      <point x="548.667" y="519" type="curve" smooth="yes"/>
      <point x="596" y="519"/>
      <point x="618" y="497.667"/>
      <point x="618" y="455" type="curve" smooth="yes"/>
      <point x="618" y="446"/>
      <point x="617" y="435.667"/>
      <point x="615" y="424.333" type="curve"/>
      <point x="718.333" y="424.333" type="line"/>
      <point x="722" y="439.333"/>
      <point x="724" y="454"/>
      <point x="724" y="467.667" type="curve" smooth="yes"/>
      <point x="724" y="542.667"/>
      <point x="667.333" y="588.667"/>
      <point x="575.333" y="588.667" type="curve" smooth="yes"/>
      <point x="406.333" y="588.667"/>
      <point x="301.333" y="435"/>
    </contour>
    <contour>
      <point x="131.333" y="280" type="curve" smooth="yes"/>
      <point x="131.333" y="102.667"/>
      <point x="257.667" y="-13.3333"/>
      <point x="431" y="-13.3333" type="curve" smooth="yes"/>
      <point x="673" y="-13.3333"/>
      <point x="901.667" y="193"/>
      <point x="901.667" y="442" type="curve" smooth="yes"/>
      <point x="901.667" y="617.667"/>
      <point x="774.667" y="735.333"/>
      <point x="598" y="735.333" type="curve" smooth="yes"/>
      <point x="358" y="735.333"/>
      <point x="131.333" y="517.333"/>
    </contour>
    <contour>
      <point x="195.333" y="289" type="curve" smooth="yes"/>
      <point x="195.333" y="485.333"/>
      <point x="385.333" y="671"/>
      <point x="584.333" y="671" type="curve" smooth="yes"/>
      <point x="730.333" y="671"/>
      <point x="835" y="570.333"/>
      <point x="835" y="423.333" type="curve" smooth="yes"/>
      <point x="835" y="223.667"/>
      <point x="641.667" y="46.6667"/>
      <point x="445" y="46.6667" type="curve" smooth="yes"/>
      <point x="297" y="46.6667"/>
      <point x="195.333" y="146.333"/>
    </contour>
  </outline>
</glyph>
<glyph name="guillemotleft" format="2">
  <advance width="588"/>
  <unicode hex="00AB"/>
  <outline>
    <contour>
      <point x="476.667" y="57" type="line"/>
      <point x="421.667" y="252" type="line"/>
      <point x="566.667" y="447" type="line"/>
      <point x="454" y="447" type="line"/>
      <point x="290" y="252" type="line"/>
      <point x="364" y="57" type="line"/>
    </contour>
    <contour>
      <point x="369.667" y="57" type="line"/>
      <point x="314.667" y="252" type="line"/>
      <point x="459.667" y="447" type="line"/>
      <point x="347" y="447" type="line"/>
      <point x="183" y="252" type="line"/>
      <point x="257" y="57" type="line"/>
    </contour>
  </outline>
</glyph>
<glyph name="degree" format="2">
  <advance width="301"/>
  <unicode hex="00B0"/>
  <outline>
    <contour>
      <point x="321.333" y="724" type="curve" smooth="yes"/>
      <point x="243.333" y="724"/>
      <point x="178" y="662.333"/>
      <point x="178" y="587.667" type="curve" smooth="yes"/>
      <point x="178" y="529.333"/>
      <point x="219" y="491.333"/>
      <point x="276.333" y="491.333" type="curve" smooth="yes"/>
      <point x="351.667" y="491.333"/>
      <point x="420" y="556.667"/>
      <point x="420" y="631" type="curve" smooth="yes"/>
      <point x="420" y="686"/>
      <point x="382.667" y="724"/>
    </contour>
    <contour>
      <point x="289.667" y="548" type="curve" smooth="yes"/>
      <point x="258.667" y="548"/>
      <point x="239" y="568.667"/>
      <point x="239" y="597.667" type="curve" smooth="yes"/>
      <point x="239" y="635.667"/>
      <point x="273" y="667.333"/>
      <point x="313.667" y="667.333" type="curve" smooth="yes"/>
      <point x="343.333" y="667.333"/>
      <point x="362.333" y="649.667"/>
      <point x="362.333" y="620" type="curve" smooth="yes"/>
      <point x="362.333" y="581"/>
      <point x="328.333" y="548"/>
    </contour>
  </outline>
</glyph>
<glyph name="plusminus" format="2">
  <advance width="1000"/>
  <unicode hex="00B1"/>
  <outline>
    <contour>
      <point x="880.333" y="344.667" type="line"/>
      <point x="902.333" y="440.667" type="line"/>
      <point x="660.667" y="440.667" type="line"/>
      <point x="700" y="613.333" type="line"/>
      <point x="583.333" y="613.333" type="line"/>
      <point x="544" y="440.667" type="line"/>
      <point x="302.333" y="440.667" type="line"/>
      <point x="280.333" y="344.667" type="line"/>
      <point x="522" y="344.667" type="line"/>
      <point x="485.333" y="187.333" type="line"/>
      <point x="602" y="187.333" type="line"/>
      <point x="638.667" y="344.667" type="line"/>
    </contour>
    <contour>
      <point x="800" y="0" type="line"/>
      <point x="820.667" y="96" type="line"/>
      <point x="220.667" y="96" type="line"/>
      <point x="200" y="0" type="line"/>
    </contour>
  </outline>
</glyph>
<glyph name="periodcentered" format="2">
  <advance width="280"/>
  <unicode hex="00B7"/>
  <anchor x="160.667" y="347" name="_dotCN"/>
  <anchor x="219.667" y="480.667" name="top"/>
  <outline>
    <contour>
      <point x="264.667" y="276.667" type="line"/>
      <point x="294.333" y="405.667" type="line"/>
      <point x="174.333" y="405.667" type="line"/>
      <point x="144.667" y="276.667" type="line"/>
    </contour>
  </outline>
</glyph>
<glyph name="cedilla" format="2">
  <advance width="250"/>
  <unicode hex="00B8"/>
  <outline>
    <contour>
      <point x="-10.6667" y="-235.333" type="line"/>
      <point x="27.3333" y="-241.333"/>
      <point x="57.6667" y="-244.333"/>
      <point x="83" y="-244.333" type="curve" smooth="yes"/>
      <point x="158" y="-244.333"/>
      <point x="260.333" y="-218"/>
      <point x="260.333" y="-131.333" type="curve" smooth="yes"/>
      <point x="260.333" y="-75.6667"/>
      <point x="218.333" y="-50.6667"/>
      <point x="136.333" y="-50.6667" type="curve"/>
      <point x="148.333" y="-0.666667" type="line"/>
      <point x="101.667" y="-0.666667" type="line"/>
      <point x="78.6667" y="-100.667" type="line"/>
      <point x="107.333" y="-100.667" type="line" smooth="yes"/>
      <point x="137.333" y="-100.667"/>
      <point x="176.667" y="-115.333"/>
      <point x="176.667" y="-149.667" type="curve" smooth="yes"/>
      <point x="176.667" y="-186"/>
      <point x="132.667" y="-191.333"/>
      <point x="101" y="-191.333" type="curve" smooth="yes"/>
      <point x="74.3333" y="-191.333"/>
      <point x="40" y="-187.333"/>
      <point x="2" y="-178.667" type="curve"/>
    </contour>
  </outline>
</glyph>
<glyph name="onequarter" format="2">
  <advance width="799"/>
  <unicode hex="00BC"/>
  <outline>
    <component base="onesuperior"/>
    <contour>
      <point x="809.667" y="736" type="line"/>
      <point x="720.667" y="736" type="line"/>
      <point x="121.667" y="-14" type="line"/>
      <point x="210.667" y="-14" type="line"/>
    </contour>
    <contour>
      <point x="774" y="79" type="line"/>
      <point x="787.333" y="137.333" type="line"/>
      <point x="731" y="137.333" type="line"/>
      <point x="787" y="378" type="line"/>
      <point x="687" y="378" type="line"/>
      <point x="468.333" y="142.333" type="line"/>
      <point x="453.667" y="79" type="line"/>
      <point x="632.333" y="79" type="line"/>
      <point x="612.333" y="-9.33333" type="line"/>
      <point x="697.667" y="-9.33333" type="line"/>
      <point x="717.667" y="79" type="line"/>
    </contour>
    <contour>
      <point x="646.333" y="137.667" type="line"/>
      <point x="543.333" y="137.667" type="line"/>
      <point x="682.333" y="292" type="line"/>
    </contour>
  </outline>
</glyph>
<glyph name="onehalf" format="2">
  <advance width="799"/>
  <unicode hex="00BD"/>
  <outline>
    <component base="twosuperior" xOffset="340" yOffset="-351"/>
    <component base="onesuperior"/>
    <contour>
      <point x="794.333" y="736.667" type="line"/>
      <point x="705.333" y="736.667" type="line"/>
      <point x="106.333" y="-13.3333" type="line"/>
      <point x="195.333" y="-13.3333" type="line"/>
    </contour>
  </outline>
</glyph>
<glyph name="threequarters" format="2">
  <advance width="799"/>
  <unicode hex="00BE"/>
  <outline>
    <component base="threesuperior"/>
    <contour>
      <point x="849.667" y="736" type="line"/>
      <point x="760.667" y="736" type="line"/>
      <point x="161.667" y="-14" type="line"/>
      <point x="250.667" y="-14" type="line"/>
    </contour>
    <contour>
      <point x="785.333" y="78.3333" type="line"/>
      <point x="798.667" y="135.333" type="line"/>
      <point x="742.333" y="135.333" type="line"/>
      <point x="798.333" y="378" type="line"/>
      <point x="698.333" y="378" type="line"/>
      <point x="479.667" y="143.667" type="line"/>
      <point x="465" y="78.3333" type="line"/>
      <point x="643.667" y="78.3333" type="line"/>
      <point x="623.667" y="-9.33333" type="line"/>
      <point x="709" y="-9.33333" type="line"/>
      <point x="729" y="78.3333" type="line"/>
    </contour>
    <contour>
      <point x="654" y="135.333" type="line"/>
      <point x="551" y="135.333" type="line"/>
      <point x="689.333" y="289.667" type="line"/>
    </contour>
  </outline>
</glyph>
<glyph name="questiondown" format="2">
  <advance width="531"/>
  <unicode hex="00BF"/>
  <outline>
    <contour>
      <point x="394" y="233.333" type="curve" smooth="yes"/>
      <point x="415" y="324" type="line"/>
      <point x="321.667" y="324" type="line"/>
      <point x="304" y="249.333" type="line" smooth="yes"/>
      <point x="297" y="218.333"/>
      <point x="255" y="191"/>
      <point x="205.667" y="160.333" type="curve" smooth="yes"/>
      <point x="129" y="113"/>
      <point x="37" y="54.6667"/>
      <point x="37" y="-45" type="curve" smooth="yes"/>
      <point x="37" y="-150"/>
      <point x="140" y="-197.333"/>
      <point x="235.667" y="-197.333" type="curve" smooth="yes"/>
      <point x="330.333" y="-197.333"/>
      <point x="413.333" y="-152"/>
      <point x="482.333" y="-59.3333" type="curve"/>
      <point x="410.667" y="-4.66667" type="line"/>
      <point x="371.333" y="-66.3333"/>
      <point x="330.667" y="-98.3333"/>
      <point x="258" y="-98.3333" type="curve" smooth="yes"/>
      <point x="204" y="-98.3333"/>
      <point x="166" y="-76"/>
      <point x="166" y="-26" type="curve" smooth="yes"/>
      <point x="166" y="41"/>
      <point x="231.667" y="87.3333"/>
      <point x="292.667" y="129.667" type="curve" smooth="yes"/>
      <point x="340.667" y="163"/>
      <point x="385.333" y="194"/>
    </contour>
    <contour>
      <point x="441.667" y="393.667" type="line"/>
      <point x="465.333" y="500" type="line"/>
      <point x="352" y="500" type="line"/>
      <point x="328.333" y="393.667" type="line"/>
    </contour>
  </outline>
</glyph>
<glyph name="AE" format="2">
  <advance width="993"/>
  <unicode hex="00C6"/>
  <anchor x="719.667" y="800" name="top"/>
  <outline>
    <contour>
      <point x="937" y="0" type="line"/>
      <point x="960.333" y="105" type="line"/>
      <point x="613.667" y="105" type="line"/>
      <point x="664" y="319.333" type="line"/>
      <point x="984" y="319.333" type="line"/>
      <point x="1008" y="424.333" type="line"/>
      <point x="688" y="424.333" type="line"/>
      <point x="734.667" y="623.667" type="line"/>
      <point x="1071.33" y="623.667" type="line"/>
      <point x="1094" y="722" type="line"/>
      <point x="567" y="722" type="line"/>
      <point x="11.6667" y="0" type="line"/>
      <point x="142.333" y="0" type="line"/>
      <point x="280.667" y="179" type="line"/>
      <point x="501.667" y="179" type="line"/>
      <point x="460" y="0" type="line"/>
    </contour>
    <contour>
      <point x="531.333" y="284" type="line"/>
      <point x="360.667" y="284" type="line"/>
      <point x="607.333" y="611" type="line"/>
    </contour>
  </outline>
</glyph>
<glyph name="multiply" format="2">
  <advance width="880"/>
  <unicode hex="00D7"/>
  <outline>
    <contour>
      <point x="726" y="69" type="line"/>
      <point x="549" y="300" type="line"/>
      <point x="833" y="531" type="line"/>
      <point x="803" y="570" type="line"/>
      <point x="518" y="338" type="line"/>
      <point x="341" y="570" type="line"/>
      <point x="293" y="531" type="line"/>
      <point x="469" y="300" type="line"/>
      <point x="186" y="69" type="line"/>
      <point x="216" y="30" type="line"/>
      <point x="500" y="262" type="line"/>
      <point x="678" y="30" type="line"/>
    </contour>
  </outline>
</glyph>
<glyph name="Oslash" format="2">
  <advance width="787"/>
  <unicode hex="00D8"/>
  <anchor x="552.667" y="800" name="top"/>
  <outline>
    <component base="O" xOffset="3"/>
    <contour>
      <point x="78.3333" y="-67.3333" type="line"/>
      <point x="926.667" y="737.333" type="line"/>
      <point x="873.667" y="789" type="line"/>
      <point x="25.6667" y="-15" type="line"/>
    </contour>
  </outline>
</glyph>
<glyph name="Thorn" format="2">
  <advance width="644"/>
  <unicode hex="00DE"/>
  <outline>
    <contour>
      <point x="64.6667" y="0" type="line"/>
      <point x="198.333" y="0" type="line"/>
      <point x="237" y="166" type="line"/>
      <point x="338" y="166" type="line" smooth="yes"/>
      <point x="514.667" y="166"/>
      <point x="673.667" y="244.333"/>
      <point x="673.667" y="440.333" type="curve" smooth="yes"/>
      <point x="673.667" y="556"/>
      <point x="576.333" y="596.667"/>
      <point x="437.333" y="596.667" type="curve" smooth="yes"/>
      <point x="336.333" y="596.667" type="line"/>
      <point x="365.333" y="722" type="line"/>
      <point x="231.667" y="722" type="line"/>
    </contour>
    <contour>
      <point x="261" y="272" type="line"/>
      <point x="311.667" y="491" type="line"/>
      <point x="413.667" y="491" type="line" smooth="yes"/>
      <point x="492.667" y="491"/>
      <point x="539.333" y="472.667"/>
      <point x="539.333" y="414.333" type="curve" smooth="yes"/>
      <point x="539.333" y="307.333"/>
      <point x="459.667" y="272"/>
      <point x="363" y="272" type="curve" smooth="yes"/>
    </contour>
  </outline>
</glyph>
<glyph name="germandbls" format="2">
  <advance width="568"/>
  <unicode hex="00DF"/>
  <outline>
    <contour>
      <point x="43.6667" y="0" type="line"/>
      <point x="165.333" y="0" type="line"/>
      <point x="282" y="503.667" type="line" smooth="yes"/>
      <point x="300.333" y="583.333"/>
      <point x="353" y="632.667"/>
      <point x="425.333" y="632.667" type="curve" smooth="yes"/>
      <point x="472.667" y="632.667"/>
      <point x="494" y="611.667"/>
      <point x="494" y="573.667" type="curve" smooth="yes"/>
      <point x="494" y="462"/>
      <point x="319.333" y="470"/>
      <point x="319.333" y="350.333" type="curve" smooth="yes"/>
      <point x="319.333" y="246.667"/>
      <point x="473" y="249"/>
      <point x="473" y="156" type="curve" smooth="yes"/>
      <point x="473" y="124"/>
      <point x="454.333" y="90"/>
      <point x="409.333" y="90" type="curve" smooth="yes"/>
      <point x="371.667" y="90"/>
      <point x="346.667" y="103"/>
      <point x="346.667" y="127.333" type="curve" smooth="yes"/>
      <point x="346.667" y="132"/>
      <point x="347.667" y="137.667"/>
      <point x="349.333" y="145.667" type="curve"/>
      <point x="240.667" y="145.667" type="line"/>
      <point x="236.667" y="129.667"/>
      <point x="235" y="118.333"/>
      <point x="235" y="107" type="curve" smooth="yes"/>
      <point x="235" y="31.6667"/>
      <point x="305.333" y="-13.3333"/>
      <point x="383" y="-13.3333" type="curve" smooth="yes"/>
      <point x="503.333" y="-13.3333"/>
      <point x="596" y="48"/>
      <point x="596" y="183" type="curve" smooth="yes"/>
      <point x="596" y="303.667"/>
      <point x="453" y="329"/>
      <point x="453" y="379.667" type="curve" smooth="yes"/>
      <point x="453" y="435"/>
      <point x="623.333" y="482.667"/>
      <point x="623.333" y="610.667" type="curve" smooth="yes"/>
      <point x="623.333" y="705.333"/>
      <point x="529" y="736"/>
      <point x="442.333" y="736" type="curve" smooth="yes"/>
      <point x="295.333" y="736"/>
      <point x="199.333" y="672.333"/>
      <point x="172.667" y="556.333" type="curve" smooth="yes"/>
    </contour>
  </outline>
</glyph>
<glyph name="oslash" format="2">
  <advance width="591"/>
  <unicode hex="00F8"/>
  <anchor x="406.667" y="580" name="top"/>
  <outline>
    <component base="o" xOffset="-4.33333"/>
    <contour>
      <point x="17" y="-42" type="line"/>
      <point x="63.6667" y="-82.3333" type="line"/>
      <point x="682" y="552" type="line"/>
      <point x="635" y="592.333" type="line"/>
    </contour>
  </outline>
</glyph>
<glyph name="hbar" format="2">
  <advance width="583"/>
  <unicode hex="0127"/>
  <outline>
    <component base="h"/>
    <contour>
      <point x="99.6877" y="560.333" type="line"/>
      <point x="474.549" y="560.333" type="line"/>
      <point x="485.281" y="644.333" type="line"/>
      <point x="110.42" y="644.333" type="line"/>
    </contour>
  </outline>
</glyph>
<glyph name="dotlessi" format="2">
  <advance width="252"/>
  <unicode hex="0131"/>
  <anchor x="120" y="-60" name="bottom"/>
  <anchor x="251" y="580" name="top"/>
  <outline>
    <contour>
      <point x="186.667" y="0" type="line"/>
      <point x="301.667" y="500" type="line"/>
      <point x="181.667" y="500" type="line"/>
      <point x="66.6667" y="0" type="line"/>
    </contour>
  </outline>
</glyph>
<glyph name="Lslash" format="2">
  <advance width="627"/>
  <unicode hex="0141"/>
  <outline>
    <contour>
      <point x="581.667" y="0" type="line"/>
      <point x="606.333" y="105.667" type="line"/>
      <point x="282.667" y="105.667" type="line"/>
      <point x="350.667" y="400.667" type="line"/>
      <point x="486" y="510" type="line"/>
      <point x="511" y="618.667" type="line"/>
      <point x="375.667" y="509" type="line"/>
      <point x="425" y="722" type="line"/>
      <point x="291.333" y="722" type="line"/>
      <point x="211.667" y="377.333" type="line"/>
      <point x="89.3333" y="279" type="line"/>
      <point x="64.6667" y="171.333" type="line"/>
      <point x="186.667" y="269.333" type="line"/>
      <point x="124.333" y="0" type="line"/>
    </contour>
  </outline>
</glyph>
<glyph name="lslash" format="2">
  <advance width="353"/>
  <unicode hex="0142"/>
  <outline>
    <contour>
      <point x="437.667" y="471" type="line"/>
      <point x="463" y="579.667" type="line"/>
      <point x="350" y="488.667" type="line"/>
      <point x="404" y="722" type="line"/>
      <point x="284" y="722" type="line"/>
      <point x="208.667" y="397" type="line"/>
      <point x="95.6667" y="306" type="line"/>
      <point x="71.6667" y="200.333" type="line"/>
      <point x="183.667" y="290.333" type="line"/>
      <point x="117" y="0" type="line"/>
      <point x="237" y="0" type="line"/>
      <point x="325.333" y="381" type="line"/>
    </contour>
  </outline>
</glyph>
<glyph name="napostrophe" format="2">
  <advance width="721"/>
  <unicode hex="0149"/>
  <outline>
    <component base="n" xOffset="126"/>
    <contour>
      <point x="328" y="722" type="line"/>
      <point x="192.667" y="722" type="line"/>
      <point x="150.667" y="432.667" type="line"/>
      <point x="236" y="432.667" type="line"/>
    </contour>
  </outline>
</glyph>
<glyph name="eng" format="2">
  <advance width="914"/>
  <unicode hex="014B"/>
  <outline>
    <component base="n" xOffset="0.666667"/>
    <contour>
      <point x="421.333" y="19.6667" type="line"/>
      <point x="405.333" y="-49" type="line" smooth="yes"/>
      <point x="397.667" y="-81.3333"/>
      <point x="378.333" y="-103.667"/>
      <point x="345.667" y="-103.667" type="curve" smooth="yes"/>
      <point x="325.667" y="-103.667"/>
      <point x="308.667" y="-95.3333"/>
      <point x="294.667" y="-76" type="curve"/>
      <point x="220.333" y="-143.333" type="line"/>
      <point x="246.333" y="-181"/>
      <point x="288.333" y="-200"/>
      <point x="341.667" y="-200" type="curve" smooth="yes"/>
      <point x="431.333" y="-200"/>
      <point x="503.667" y="-146.333"/>
      <point x="522.333" y="-62.3333" type="curve" smooth="yes"/>
      <point x="541" y="19.6667" type="line"/>
    </contour>
  </outline>
</glyph>
<glyph name="OE" format="2">
  <advance width="1017"/>
  <unicode hex="0152"/>
  <anchor x="549.667" y="-59.6667" name="bottom"/>
  <anchor x="737" y="800" name="top"/>
  <outline>
    <contour>
      <point x="123.333" y="247.333" type="curve" smooth="yes"/>
      <point x="123.333" y="82"/>
      <point x="218" y="-13.3333"/>
      <point x="385.333" y="-13.3333" type="curve" smooth="yes"/>
      <point x="464.667" y="-13.3333"/>
      <point x="534.667" y="-1"/>
      <point x="595" y="36.3333" type="curve"/>
      <point x="739" y="700.333" type="line"/>
      <point x="696" y="723.667"/>
      <point x="636.333" y="736"/>
      <point x="565.333" y="736" type="curve" smooth="yes"/>
      <point x="294.667" y="736"/>
      <point x="123.333" y="498"/>
    </contour>
    <contour>
      <point x="260.333" y="252.667" type="curve" smooth="yes"/>
      <point x="260.333" y="417.667"/>
      <point x="344" y="632.667"/>
      <point x="542" y="632.667" type="curve" smooth="yes"/>
      <point x="597.333" y="632.667"/>
      <point x="636" y="620.667"/>
      <point x="660.667" y="602" type="curve"/>
      <point x="556" y="134" type="line"/>
      <point x="516" y="104.333"/>
      <point x="467.333" y="90"/>
      <point x="407.667" y="90" type="curve" smooth="yes"/>
      <point x="308" y="90"/>
      <point x="260.333" y="149.333"/>
    </contour>
    <contour>
      <point x="956.333" y="0.333333" type="line"/>
      <point x="981" y="106" type="line"/>
      <point x="663" y="106" type="line"/>
      <point x="712.667" y="321.667" type="line"/>
      <point x="1004" y="321.667" type="line"/>
      <point x="1027.33" y="424" type="line"/>
      <point x="736" y="424" type="line"/>
      <point x="780.667" y="616.667" type="line"/>
      <point x="1090.33" y="616.667" type="line"/>
      <point x="1115" y="722.333" type="line"/>
      <point x="675" y="722.333" type="line"/>
      <point x="508" y="0.333333" type="line"/>
    </contour>
  </outline>
</glyph>
<glyph name="Tbar" format="2">
  <advance width="622"/>
  <unicode hex="0166"/>
  <outline>
    <component base="T"/>
    <contour>
      <point x="224.667" y="376.333" type="line"/>
      <point x="205.667" y="292.333" type="line"/>
      <point x="558.333" y="292.333" type="line"/>
      <point x="578" y="376.333" type="line"/>
    </contour>
  </outline>
</glyph>
<glyph name="longs" format="2">
  <advance width="349"/>
  <unicode hex="017F"/>
  <outline>
    <contour>
      <point x="107.333" y="421.667" type="line"/>
      <point x="200.667" y="421.667" type="line"/>
      <point x="108" y="0" type="line"/>
      <point x="231.333" y="0" type="line"/>
      <point x="355.333" y="573" type="line" smooth="yes"/>
      <point x="367.333" y="626.667"/>
      <point x="388.333" y="651.333"/>
      <point x="439.667" y="651.333" type="curve" smooth="yes"/>
      <point x="459" y="651.333"/>
      <point x="477.333" y="647.667"/>
      <point x="494.333" y="638" type="curve"/>
      <point x="513.333" y="719.333" type="line"/>
      <point x="483.667" y="729.667"/>
      <point x="454" y="734.667"/>
      <point x="420.333" y="734.667" type="curve" smooth="yes"/>
      <point x="318" y="734.667"/>
      <point x="263" y="689.333"/>
      <point x="236.333" y="575.667" type="curve" smooth="yes"/>
      <point x="218.333" y="500" type="line"/>
      <point x="125" y="500" type="line"/>
    </contour>
  </outline>
</glyph>
<glyph name="florin" format="2">
  <advance width="519"/>
  <unicode hex="0192"/>
  <outline>
    <contour>
      <point x="94.6667" y="-61.6667" type="line" smooth="yes"/>
      <point x="83" y="-115.333"/>
      <point x="61.6667" y="-140"/>
      <point x="10.3333" y="-140" type="curve" smooth="yes"/>
      <point x="-9" y="-140"/>
      <point x="-27.3333" y="-136.333"/>
      <point x="-44.3333" y="-126.667" type="curve"/>
      <point x="-63.3333" y="-208" type="line"/>
      <point x="-33.6667" y="-218.333"/>
      <point x="-4" y="-223.333"/>
      <point x="29.6667" y="-223.333" type="curve" smooth="yes"/>
      <point x="132" y="-223.333"/>
      <point x="191.333" y="-178.333"/>
      <point x="217" y="-64.3333" type="curve"/>
      <point x="355.333" y="573" type="line"/>
      <point x="368" y="626.667"/>
      <point x="388.333" y="651.333"/>
      <point x="439.667" y="651.333" type="curve" smooth="yes"/>
      <point x="459" y="651.333"/>
      <point x="477.333" y="647.667"/>
      <point x="494.333" y="638" type="curve"/>
      <point x="513.333" y="719.333" type="line"/>
      <point x="483.667" y="729.667"/>
      <point x="454" y="734.667"/>
      <point x="420.333" y="734.667" type="curve" smooth="yes"/>
      <point x="318" y="734.667"/>
      <point x="261.667" y="689.333"/>
      <point x="236.333" y="575.667" type="curve" smooth="yes"/>
    </contour>
    <contour>
      <point x="126.667" y="500" type="line"/>
      <point x="109" y="421.667" type="line"/>
      <point x="433" y="421.667" type="line"/>
      <point x="450.667" y="500" type="line"/>
    </contour>
  </outline>
</glyph>
<glyph name="uni019E" format="2">
  <advance width="606"/>
  <unicode hex="019E"/>
  <outline>
    <contour>
      <point x="79.6667" y="0" type="line"/>
      <point x="199.667" y="0" type="line"/>
      <point x="265.333" y="293.667" type="line" smooth="yes"/>
      <point x="281" y="365.333"/>
      <point x="333.667" y="439.333"/>
      <point x="413.333" y="439.333" type="curve" smooth="yes"/>
      <point x="463.667" y="439.333"/>
      <point x="491.333" y="409.333"/>
      <point x="491.333" y="358.667" type="curve" smooth="yes"/>
      <point x="491.333" y="344.333"/>
      <point x="489" y="328"/>
      <point x="485" y="309.667" type="curve" smooth="yes"/>
      <point x="373.667" y="-200" type="line"/>
      <point x="493.667" y="-200" type="line"/>
      <point x="611" y="335.667" type="line" smooth="yes"/>
      <point x="615.333" y="356.333"/>
      <point x="618" y="375"/>
      <point x="618" y="393" type="curve" smooth="yes"/>
      <point x="618" y="470"/>
      <point x="570.333" y="513.333"/>
      <point x="476.667" y="513.333" type="curve" smooth="yes"/>
      <point x="392" y="513.333"/>
      <point x="347" y="490"/>
      <point x="296.667" y="434" type="curve"/>
      <point x="311.333" y="500" type="line"/>
      <point x="190.667" y="500" type="line"/>
    </contour>
  </outline>
</glyph>
<glyph name="uni01C0" format="2">
  <advance width="344"/>
  <unicode hex="01C0"/>
  <outline>
    <contour>
      <point x="144.667" y="-258" type="line"/>
      <point x="388.667" y="796" type="line"/>
      <point x="324.333" y="796" type="line"/>
      <point x="80.3333" y="-258" type="line"/>
    </contour>
  </outline>
</glyph>
<glyph name="uni01C1" format="2">
  <advance width="688"/>
  <unicode hex="01C1"/>
  <outline>
    <contour>
      <point x="144.667" y="-258" type="line"/>
      <point x="388.667" y="796" type="line"/>
      <point x="324.333" y="796" type="line"/>
      <point x="80.3333" y="-258" type="line"/>
    </contour>
    <contour>
      <point x="488.667" y="-258" type="line"/>
      <point x="732.667" y="796" type="line"/>
      <point x="668.333" y="796" type="line"/>
      <point x="424.333" y="-258" type="line"/>
    </contour>
  </outline>
</glyph>
<glyph name="uni0253" format="2">
  <advance width="590"/>
  <unicode hex="0253"/>
  <outline>
    <component base="uni0250"/>
    <contour>
      <point x="309" y="555" type="line" smooth="yes"/>
      <point x="321.667" y="613.333"/>
      <point x="359" y="639.333"/>
      <point x="422.333" y="639.333" type="curve" smooth="yes"/>
      <point x="461.333" y="639.333"/>
      <point x="491.333" y="629.333"/>
      <point x="511.333" y="608.333" type="curve"/>
      <point x="594.667" y="674.333" type="line"/>
      <point x="559.333" y="709.667"/>
      <point x="496" y="735"/>
      <point x="426" y="735" type="curve" smooth="yes"/>
      <point x="305.667" y="735"/>
      <point x="217.333" y="682.667"/>
      <point x="187" y="545" type="curve" smooth="yes"/>
      <point x="177" y="500" type="line"/>
      <point x="297" y="500" type="line"/>
    </contour>
  </outline>
</glyph>
<glyph name="uni0257" format="2">
  <advance width="591"/>
  <unicode hex="0257"/>
  <outline>
    <contour>
      <point x="98" y="171.333" type="curve" smooth="yes"/>
      <point x="98" y="57.6667"/>
      <point x="154.333" y="-13.3333"/>
      <point x="277.667" y="-13.3333" type="curve" smooth="yes"/>
      <point x="340.333" y="-13.3333"/>
      <point x="401.667" y="30.3333"/>
      <point x="436.667" y="62.3333" type="curve"/>
      <point x="422.333" y="-0.666667" type="line"/>
      <point x="542.333" y="-0.666667" type="line"/>
      <point x="657.333" y="500" type="line"/>
      <point x="538" y="500" type="line"/>
      <point x="525.667" y="447.667" type="line"/>
      <point x="502.667" y="489"/>
      <point x="469" y="513.333"/>
      <point x="391.333" y="513.333" type="curve" smooth="yes"/>
      <point x="211" y="513.333"/>
      <point x="98" y="330.667"/>
    </contour>
    <contour>
      <point x="219.333" y="181.333" type="curve" smooth="yes"/>
      <point x="219.333" y="282.333"/>
      <point x="285.333" y="434.667"/>
      <point x="394.667" y="434.667" type="curve" smooth="yes"/>
      <point x="462.333" y="434.667"/>
      <point x="489.667" y="385"/>
      <point x="489.667" y="319.667" type="curve" smooth="yes"/>
      <point x="489.667" y="221.333"/>
      <point x="429.333" y="67"/>
      <point x="312.333" y="67" type="curve" smooth="yes"/>
      <point x="242" y="67"/>
      <point x="219.333" y="122.667"/>
    </contour>
    <contour>
      <point x="538" y="500" type="line"/>
      <point x="657.333" y="500" type="line"/>
      <point x="678.333" y="591.333" type="line" smooth="yes"/>
      <point x="686.333" y="626.667"/>
      <point x="716.667" y="641.667"/>
      <point x="746" y="641.667" type="curve" smooth="yes"/>
      <point x="771" y="641.667"/>
      <point x="787.333" y="630.333"/>
      <point x="794.333" y="616.667" type="curve"/>
      <point x="873.667" y="684.333" type="line"/>
      <point x="846.667" y="715.667"/>
      <point x="803.667" y="737.333"/>
      <point x="742" y="737.333" type="curve" smooth="yes"/>
      <point x="652" y="737.333"/>
      <point x="581" y="683"/>
      <point x="561" y="598" type="curve" smooth="yes"/>
    </contour>
  </outline>
</glyph>
<glyph name="uni0262" format="2">
  <advance width="564"/>
  <unicode hex="0262"/>
  <outline>
    <contour>
      <point x="626" y="360.333" type="line"/>
      <point x="626" y="446.333"/>
      <point x="552.667" y="513.333"/>
      <point x="424.333" y="513.333" type="curve" smooth="yes"/>
      <point x="223.667" y="513.333"/>
      <point x="91" y="359"/>
      <point x="91" y="181" type="curve" smooth="yes"/>
      <point x="91" y="50"/>
      <point x="162.333" y="-13.3333"/>
      <point x="308.667" y="-13.3333" type="curve" smooth="yes"/>
      <point x="371.333" y="-13.3333"/>
      <point x="474.333" y="-1.66667"/>
      <point x="544.333" y="21.3333" type="curve"/>
      <point x="601.333" y="273" type="line"/>
      <point x="368.333" y="273" type="line"/>
      <point x="351.333" y="199" type="line"/>
      <point x="472" y="199" type="line"/>
      <point x="445.333" y="85.3333" type="line"/>
      <point x="403.667" y="74.3333"/>
      <point x="361.667" y="68.6667"/>
      <point x="317.667" y="68.6667" type="curve" smooth="yes"/>
      <point x="254.333" y="68.6667"/>
      <point x="209" y="107"/>
      <point x="209" y="192" type="curve" smooth="yes"/>
      <point x="209" y="339"/>
      <point x="293" y="431.333"/>
      <point x="405" y="431.333" type="curve" smooth="yes"/>
      <point x="466.333" y="431.333"/>
      <point x="505.667" y="400.333"/>
      <point x="505.667" y="360.333" type="curve"/>
    </contour>
  </outline>
</glyph>
<glyph name="uni0267" format="2">
  <advance width="574"/>
  <unicode hex="0267"/>
  <outline>
    <component base="uni0266"/>
    <contour>
      <point x="195" y="-144" type="line"/>
      <point x="219.333" y="-177.667"/>
      <point x="275.333" y="-200"/>
      <point x="338" y="-200" type="curve" smooth="yes"/>
      <point x="436.667" y="-200"/>
      <point x="503.333" y="-145.667"/>
      <point x="522.333" y="-62" type="curve" smooth="yes"/>
      <point x="536.333" y="0" type="line"/>
      <point x="416.333" y="0" type="line"/>
      <point x="406.667" y="-41" type="line" smooth="yes"/>
      <point x="396.667" y="-83.6667"/>
      <point x="372.667" y="-104.333"/>
      <point x="338" y="-104.333" type="curve" smooth="yes"/>
      <point x="312.333" y="-104.333"/>
      <point x="292" y="-93.3333"/>
      <point x="280" y="-77" type="curve"/>
    </contour>
  </outline>
</glyph>
<glyph name="uni026A" format="2">
  <advance width="342"/>
  <unicode hex="026A"/>
  <outline>
    <component base="dotlessi" xScale="1" xOffset="46.6667"/>
    <contour>
      <point x="391.667" y="406.667" type="line"/>
      <point x="413" y="500" type="line"/>
      <point x="158.667" y="500" type="line"/>
      <point x="137.333" y="406.667" type="line"/>
    </contour>
    <contour>
      <point x="63.3333" y="87.3333" type="line"/>
      <point x="43" y="0" type="line"/>
      <point x="298" y="0" type="line"/>
      <point x="318.333" y="87.3333" type="line"/>
    </contour>
  </outline>
  <guideline angle="90" x="54" y="0"/>
</glyph>
<glyph name="uni026B" format="2">
  <advance width="268"/>
  <unicode hex="026B"/>
  <outline>
    <component base="l"/>
    <contour>
      <point x="187" y="439.667" type="line"/>
      <point x="178.333" y="444.667" type="line" smooth="yes"/>
      <point x="163.667" y="453"/>
      <point x="151.333" y="456.333"/>
      <point x="133.667" y="456.333" type="curve" smooth="yes"/>
      <point x="82.3333" y="456.333"/>
      <point x="42.6667" y="418.333"/>
      <point x="19" y="346" type="curve"/>
      <point x="71.3333" y="346" type="line"/>
      <point x="85" y="375.667"/>
      <point x="99.3333" y="388"/>
      <point x="122" y="388" type="curve" smooth="yes"/>
      <point x="140" y="388"/>
      <point x="157.333" y="378"/>
      <point x="179" y="364.667" type="curve" smooth="yes"/>
      <point x="187" y="359.667" type="line"/>
    </contour>
    <contour>
      <point x="262.667" y="333.667" type="line"/>
      <point x="271.333" y="328.667" type="line" smooth="yes"/>
      <point x="286" y="320.333"/>
      <point x="298.333" y="317"/>
      <point x="316" y="317" type="curve" smooth="yes"/>
      <point x="367.333" y="317"/>
      <point x="407" y="355"/>
      <point x="430.667" y="427.333" type="curve"/>
      <point x="378.333" y="427.333" type="line"/>
      <point x="364.667" y="397.667"/>
      <point x="350.333" y="385.333"/>
      <point x="327.667" y="385.333" type="curve" smooth="yes"/>
      <point x="309.667" y="385.333"/>
      <point x="292.333" y="395.333"/>
      <point x="270.667" y="408.667" type="curve" smooth="yes"/>
      <point x="262.667" y="413.667" type="line"/>
    </contour>
  </outline>
</glyph>
<glyph name="uni026D" format="2">
  <advance width="282"/>
  <unicode hex="026D"/>
  <outline>
    <component base="l"/>
    <contour>
      <point x="74.3333" y="0" type="line"/>
      <point x="59.3333" y="-67"/>
      <point x="56.3333" y="-85"/>
      <point x="56.3333" y="-103" type="curve" smooth="yes"/>
      <point x="56.3333" y="-157"/>
      <point x="85.3333" y="-197"/>
      <point x="150.333" y="-197" type="curve" smooth="yes"/>
      <point x="259" y="-197" type="line"/>
      <point x="279.333" y="-103.667" type="line"/>
      <point x="222.333" y="-103.667" type="line" smooth="yes"/>
      <point x="194.333" y="-103.667"/>
      <point x="180.333" y="-90.6667"/>
      <point x="180.333" y="-67.6667" type="curve" smooth="yes"/>
      <point x="180.333" y="-58.6667"/>
      <point x="182.333" y="-49.6667"/>
      <point x="194.333" y="0" type="curve"/>
    </contour>
  </outline>
</glyph>
<glyph name="uni0272" format="2">
  <advance width="619"/>
  <unicode hex="0272"/>
  <outline>
    <component base="n"/>
    <contour>
      <point x="79.6667" y="0" type="line"/>
      <point x="68.3333" y="-48.6667" type="line" smooth="yes"/>
      <point x="57.6667" y="-95"/>
      <point x="34" y="-108.333"/>
      <point x="-25" y="-108.333" type="curve" smooth="yes"/>
      <point x="-51" y="-108.333" type="line"/>
      <point x="-71.3333" y="-200" type="line"/>
      <point x="-44.3333" y="-200" type="line" smooth="yes"/>
      <point x="69.6667" y="-200"/>
      <point x="157.667" y="-186"/>
      <point x="185.667" y="-62" type="curve" smooth="yes"/>
      <point x="199.667" y="0" type="line"/>
    </contour>
  </outline>
</glyph>
<glyph name="uni0273" format="2">
  <advance width="620"/>
  <unicode hex="0273"/>
  <outline>
    <component base="n"/>
    <contour>
      <point x="415.667" y="0" type="line"/>
      <point x="400.667" y="-67"/>
      <point x="397.667" y="-85"/>
      <point x="397.667" y="-103" type="curve" smooth="yes"/>
      <point x="397.667" y="-157"/>
      <point x="426.667" y="-197"/>
      <point x="491.667" y="-197" type="curve" smooth="yes"/>
      <point x="600.333" y="-197" type="line"/>
      <point x="620.667" y="-103.667" type="line"/>
      <point x="563.667" y="-103.667" type="line" smooth="yes"/>
      <point x="535.667" y="-103.667"/>
      <point x="521.667" y="-90.6667"/>
      <point x="521.667" y="-67.6667" type="curve" smooth="yes"/>
      <point x="521.667" y="-58.6667"/>
      <point x="523.667" y="-49.6667"/>
      <point x="535.667" y="0" type="curve"/>
    </contour>
  </outline>
</glyph>
<glyph name="uni0276" format="2">
  <advance width="800"/>
  <unicode hex="0276"/>
  <outline>
    <contour>
      <point x="406.333" y="0" type="line"/>
      <point x="521.333" y="500" type="line"/>
      <point x="839.667" y="500" type="line"/>
      <point x="818.333" y="398.667" type="line"/>
      <point x="602" y="398.667" type="line"/>
      <point x="580.667" y="307" type="line"/>
      <point x="779.333" y="307" type="line"/>
      <point x="758" y="205.667" type="line"/>
      <point x="559.333" y="205.667" type="line"/>
      <point x="535.333" y="101.333" type="line"/>
      <point x="747" y="101.333" type="line"/>
      <point x="724.667" y="0" type="line"/>
    </contour>
    <contour>
      <point x="105.333" y="184" type="curve" smooth="yes"/>
      <point x="105.333" y="379.333"/>
      <point x="229.333" y="510"/>
      <point x="428.667" y="510" type="curve" smooth="yes"/>
      <point x="456.667" y="510"/>
      <point x="482.667" y="507"/>
      <point x="506.667" y="500" type="curve"/>
      <point x="565.667" y="500" type="line"/>
      <point x="563" y="394" type="line"/>
      <point x="511" y="394" type="line"/>
      <point x="480" y="412.667"/>
      <point x="447" y="422.667"/>
      <point x="406" y="422.667" type="curve" smooth="yes"/>
      <point x="288.333" y="422.667"/>
      <point x="224.333" y="317"/>
      <point x="224.333" y="204" type="curve" smooth="yes"/>
      <point x="224.333" y="120"/>
      <point x="256.667" y="77.3333"/>
      <point x="331.333" y="77.3333" type="curve" smooth="yes"/>
      <point x="374.333" y="77.3333"/>
      <point x="412.333" y="88.3333"/>
      <point x="444.333" y="110" type="curve"/>
      <point x="488.333" y="110" type="line"/>
      <point x="475.667" y="0" type="line"/>
      <point x="382.667" y="0" type="line"/>
      <point x="357.667" y="-6"/>
      <point x="332.667" y="-10"/>
      <point x="306.667" y="-10" type="curve" smooth="yes"/>
      <point x="177.333" y="-10"/>
      <point x="105.333" y="67"/>
    </contour>
  </outline>
</glyph>
<glyph name="uni027A" format="2">
  <advance width="418"/>
  <unicode hex="027A"/>
  <outline>
    <component base="uni0279"/>
    <contour>
      <point x="339.667" y="0" type="line"/>
      <point x="505.667" y="722" type="line"/>
      <point x="385.667" y="722" type="line"/>
      <point x="219.667" y="0" type="line"/>
    </contour>
  </outline>
</glyph>
<glyph name="uni027D" format="2">
  <advance width="404"/>
  <unicode hex="027D"/>
  <outline>
    <component base="r"/>
    <contour>
      <point x="79.6667" y="0" type="line"/>
      <point x="64.6667" y="-67"/>
      <point x="61.6667" y="-85"/>
      <point x="61.6667" y="-103" type="curve" smooth="yes"/>
      <point x="61.6667" y="-157"/>
      <point x="90.6667" y="-197"/>
      <point x="155.667" y="-197" type="curve" smooth="yes"/>
      <point x="264.333" y="-197" type="line"/>
      <point x="284.667" y="-103.667" type="line"/>
      <point x="227.667" y="-103.667" type="line" smooth="yes"/>
      <point x="199.667" y="-103.667"/>
      <point x="185.667" y="-90.6667"/>
      <point x="185.667" y="-67.6667" type="curve" smooth="yes"/>
      <point x="185.667" y="-58.6667"/>
      <point x="187.667" y="-49.6667"/>
      <point x="199.667" y="0" type="curve"/>
    </contour>
  </outline>
</glyph>
<glyph name="uni027E" format="2">
  <advance width="462"/>
  <unicode hex="027E"/>
  <outline>
    <contour>
      <point x="80.3333" y="0" type="line"/>
      <point x="200.333" y="0" type="line"/>
      <point x="271" y="322" type="line" smooth="yes"/>
      <point x="285" y="385"/>
      <point x="319.333" y="417.667"/>
      <point x="384.667" y="417.667" type="curve" smooth="yes"/>
      <point x="431" y="417.667"/>
      <point x="465" y="401"/>
      <point x="476.667" y="386.333" type="curve"/>
      <point x="541.333" y="470" type="line"/>
      <point x="506.333" y="496.667"/>
      <point x="447.667" y="513.333"/>
      <point x="383.333" y="513.333" type="curve" smooth="yes"/>
      <point x="265" y="513.333"/>
      <point x="181.333" y="457.667"/>
      <point x="153" y="330" type="curve" smooth="yes"/>
    </contour>
  </outline>
</glyph>
<glyph name="uni027F" format="2">
  <advance width="462"/>
  <unicode hex="027F"/>
  <outline>
    <contour>
      <point x="145.333" y="470" type="curve"/>
      <point x="208" y="386.333" type="line"/>
      <point x="232.667" y="405"/>
      <point x="263.333" y="417.667"/>
      <point x="298" y="417.667" type="curve" smooth="yes"/>
      <point x="353" y="417.667"/>
      <point x="381.333" y="387"/>
      <point x="381.333" y="352" type="curve" smooth="yes"/>
      <point x="381.333" y="333.333"/>
      <point x="380.667" y="318"/>
      <point x="373.667" y="287" type="curve" smooth="yes"/>
      <point x="307.667" y="0" type="line"/>
      <point x="427.667" y="0" type="line"/>
      <point x="493.667" y="287" type="line" smooth="yes"/>
      <point x="499.667" y="313"/>
      <point x="502.667" y="338"/>
      <point x="502.667" y="360.333" type="curve" smooth="yes"/>
      <point x="502.667" y="453"/>
      <point x="446.333" y="512"/>
      <point x="288.667" y="512" type="curve" smooth="yes"/>
      <point x="248.667" y="512"/>
      <point x="182" y="494.667"/>
    </contour>
  </outline>
</glyph>
<glyph name="uni0283" format="2">
  <advance width="378"/>
  <unicode hex="0283"/>
  <outline>
    <contour>
      <point x="301.667" y="267" type="line"/>
      <point x="304.667" y="300" type="line" smooth="yes"/>
      <point x="317.667" y="441"/>
      <point x="327" y="528"/>
      <point x="335.333" y="565.333" type="curve" smooth="yes"/>
      <point x="347.333" y="619.667"/>
      <point x="367" y="641.667"/>
      <point x="405" y="641.667" type="curve" smooth="yes"/>
      <point x="421.667" y="641.667"/>
      <point x="436.667" y="637.667"/>
      <point x="448.667" y="629.667" type="curve"/>
      <point x="509" y="722.333" type="line"/>
      <point x="497" y="731.333"/>
      <point x="476" y="735.333"/>
      <point x="443" y="735.333" type="curve" smooth="yes"/>
      <point x="328" y="735.333"/>
      <point x="250.667" y="684"/>
      <point x="223.333" y="565" type="curve" smooth="yes"/>
      <point x="214.667" y="527"/>
      <point x="198.333" y="426"/>
      <point x="187.333" y="300" type="curve" smooth="yes"/>
      <point x="184.333" y="267" type="line"/>
    </contour>
    <contour>
      <point x="184.333" y="268.333" type="line"/>
      <point x="181.333" y="235.333" type="line" smooth="yes"/>
      <point x="168.333" y="94.3333"/>
      <point x="159" y="7.33333"/>
      <point x="150.667" y="-30" type="curve" smooth="yes"/>
      <point x="138.667" y="-84.3333"/>
      <point x="119" y="-106.333"/>
      <point x="81" y="-106.333" type="curve" smooth="yes"/>
      <point x="64.3333" y="-106.333"/>
      <point x="49.3333" y="-102.333"/>
      <point x="37.3333" y="-94.3333" type="curve"/>
      <point x="-23" y="-187" type="line"/>
      <point x="-11" y="-196"/>
      <point x="10" y="-200"/>
      <point x="43" y="-200" type="curve" smooth="yes"/>
      <point x="158" y="-200"/>
      <point x="235.333" y="-148.667"/>
      <point x="262.667" y="-29.6667" type="curve" smooth="yes"/>
      <point x="271.333" y="8.33333"/>
      <point x="287.667" y="109.333"/>
      <point x="298.667" y="235.333" type="curve" smooth="yes"/>
      <point x="301.667" y="268.333" type="line"/>
    </contour>
  </outline>
  <guideline angle="0" x="0" y="267"/>
</glyph>
<glyph name="uni0288" format="2">
  <advance width="370"/>
  <unicode hex="0288"/>
  <outline>
    <contour>
      <point x="242" y="-38.3333" type="curve" smooth="yes"/>
      <point x="347.333" y="421.667" type="line"/>
      <point x="463.333" y="421.667" type="line"/>
      <point x="481" y="500" type="line"/>
      <point x="365" y="500" type="line"/>
      <point x="398.333" y="643.333" type="line"/>
      <point x="266" y="592.333" type="line"/>
      <point x="245" y="500" type="line"/>
      <point x="148.333" y="500" type="line"/>
      <point x="130.667" y="421.667" type="line"/>
      <point x="227.333" y="421.667" type="line"/>
      <point x="115.667" y="-64" type="line" smooth="yes"/>
      <point x="112.333" y="-79"/>
      <point x="111" y="-92.6667"/>
      <point x="111" y="-102.667" type="curve" smooth="yes"/>
      <point x="111" y="-164"/>
      <point x="161.333" y="-200"/>
      <point x="236" y="-200" type="curve" smooth="yes"/>
      <point x="264" y="-200"/>
      <point x="297.667" y="-195"/>
      <point x="330" y="-184.667" type="curve"/>
      <point x="348" y="-107.333" type="line"/>
      <point x="330.667" y="-113.333"/>
      <point x="311.333" y="-116.333"/>
      <point x="296" y="-116.333" type="curve" smooth="yes"/>
      <point x="257" y="-116.333"/>
      <point x="238.333" y="-98.3333"/>
      <point x="238.333" y="-66.6667" type="curve" smooth="yes"/>
      <point x="238.333" y="-58.3333"/>
      <point x="239.667" y="-49"/>
    </contour>
  </outline>
  <guideline angle="77" x="130" y="-2"/>
  <guideline angle="77" x="221" y="0"/>
</glyph>
<glyph name="uni0289" format="2">
  <advance width="627"/>
  <unicode hex="0289"/>
  <outline>
    <component base="u"/>
    <contour>
      <point x="632.667" y="224.333" type="line"/>
      <point x="650.667" y="301.333" type="line"/>
      <point x="99" y="301.333" type="line"/>
      <point x="81" y="224.333" type="line"/>
    </contour>
  </outline>
</glyph>
<glyph name="uni028B" format="2">
  <advance width="580"/>
  <unicode hex="028B"/>
  <outline>
    <contour>
      <point x="599" y="353" type="curve" smooth="yes"/>
      <point x="599" y="423"/>
      <point x="583" y="486"/>
      <point x="557" y="514" type="curve"/>
      <point x="438.667" y="456" type="line"/>
      <point x="461.667" y="404"/>
      <point x="472.667" y="351"/>
      <point x="472.667" y="293.333" type="curve" smooth="yes"/>
      <point x="472.667" y="177"/>
      <point x="428.333" y="52"/>
      <point x="315.667" y="52" type="curve" smooth="yes"/>
      <point x="263.333" y="52"/>
      <point x="218.667" y="79"/>
      <point x="218.667" y="134.333" type="curve" smooth="yes"/>
      <point x="218.667" y="142"/>
      <point x="219.667" y="164"/>
      <point x="221.667" y="171" type="curve"/>
      <point x="298.667" y="500" type="line"/>
      <point x="178.667" y="500" type="line"/>
      <point x="102.667" y="173" type="line" smooth="yes"/>
      <point x="97.6667" y="153"/>
      <point x="94.6667" y="133"/>
      <point x="94.6667" y="115.667" type="curve" smooth="yes"/>
      <point x="94.6667" y="36"/>
      <point x="160" y="-12"/>
      <point x="269" y="-12" type="curve" smooth="yes"/>
      <point x="475" y="-12"/>
      <point x="599" y="155"/>
    </contour>
  </outline>
</glyph>
<glyph name="uni0290" format="2">
  <advance width="622"/>
  <unicode hex="0290"/>
  <outline>
    <component base="z"/>
    <contour>
      <point x="397" y="79.6667" type="line"/>
      <point x="358" y="-89.3333" type="line" smooth="yes"/>
      <point x="356" y="-98.3333"/>
      <point x="355" y="-107"/>
      <point x="355" y="-115" type="curve" smooth="yes"/>
      <point x="355" y="-166"/>
      <point x="404" y="-200"/>
      <point x="473" y="-200" type="curve" smooth="yes"/>
      <point x="578" y="-200"/>
      <point x="643" y="-176"/>
      <point x="665.667" y="-86" type="curve"/>
      <point x="537.333" y="-86" type="line"/>
      <point x="529" y="-120"/>
      <point x="503" y="-139"/>
      <point x="475.333" y="-139" type="curve" smooth="yes"/>
      <point x="446" y="-139"/>
      <point x="429" y="-124.333"/>
      <point x="429" y="-99.3333" type="curve" smooth="yes"/>
      <point x="429" y="-95.3333"/>
      <point x="429" y="-90.3333"/>
      <point x="430" y="-86.3333" type="curve" smooth="yes"/>
      <point x="468.333" y="79.6667" type="line"/>
    </contour>
  </outline>
</glyph>
<glyph name="uni0292" format="2">
  <advance width="511"/>
  <unicode hex="0292"/>
  <anchor x="366" y="580" name="top"/>
  <outline>
    <contour>
      <point x="197" y="166.333" type="line"/>
      <point x="272" y="166.333" type="line" smooth="yes"/>
      <point x="333.667" y="166.333"/>
      <point x="379.667" y="129.667"/>
      <point x="379.667" y="59" type="curve" smooth="yes"/>
      <point x="379.667" y="-20.3333"/>
      <point x="322.667" y="-113.667"/>
      <point x="236.333" y="-113.667" type="curve" smooth="yes"/>
      <point x="172.333" y="-113.667"/>
      <point x="143" y="-95.3333"/>
      <point x="143" y="-60" type="curve" smooth="yes"/>
      <point x="143" y="-51.6667"/>
      <point x="143.333" y="-39"/>
      <point x="145.333" y="-30.3333" type="curve"/>
      <point x="34.3333" y="-30.3333" type="line"/>
      <point x="31" y="-44.6667"/>
      <point x="30.3333" y="-57.6667"/>
      <point x="30.3333" y="-70.3333" type="curve" smooth="yes"/>
      <point x="30.3333" y="-158.333"/>
      <point x="111" y="-200"/>
      <point x="220.333" y="-200" type="curve" smooth="yes"/>
      <point x="387.667" y="-200"/>
      <point x="504.667" y="-80.3333"/>
      <point x="504.667" y="72" type="curve" smooth="yes"/>
      <point x="504.667" y="152.333"/>
      <point x="459" y="223.333"/>
      <point x="362.667" y="240" type="curve"/>
      <point x="557.667" y="399.667" type="line"/>
      <point x="580" y="500" type="line"/>
      <point x="167.667" y="500" type="line"/>
      <point x="145" y="403.667" type="line"/>
      <point x="423.667" y="403.667" type="line"/>
      <point x="209.333" y="229.667" type="line"/>
    </contour>
  </outline>
</glyph>
<glyph name="uni0295" format="2">
  <advance width="489"/>
  <unicode hex="0295"/>
  <outline>
    <contour>
      <point x="323.667" y="412" type="line"/>
      <point x="230.667" y="0" type="line"/>
      <point x="351.333" y="0" type="line"/>
      <point x="446.333" y="412" type="line"/>
    </contour>
    <contour>
      <point x="446.333" y="412" type="line"/>
      <point x="343.333" y="421"/>
      <point x="304.667" y="460"/>
      <point x="304.667" y="530" type="curve" smooth="yes"/>
      <point x="304.667" y="595.333"/>
      <point x="356.667" y="644.333"/>
      <point x="467" y="644.333" type="curve" smooth="yes"/>
      <point x="502.333" y="644.333"/>
      <point x="536.333" y="639.333"/>
      <point x="570.333" y="629.333" type="curve"/>
      <point x="590" y="718" type="line"/>
      <point x="540" y="730"/>
      <point x="494" y="736"/>
      <point x="460" y="736" type="curve" smooth="yes"/>
      <point x="268.667" y="736"/>
      <point x="167.667" y="654"/>
      <point x="167.667" y="525" type="curve" smooth="yes"/>
      <point x="167.667" y="454"/>
      <point x="221.333" y="401"/>
      <point x="320.333" y="369" type="curve"/>
    </contour>
  </outline>
</glyph>
<glyph name="uni029C" format="2">
  <advance width="560"/>
  <unicode hex="029C"/>
  <outline>
    <contour>
      <point x="500.667" y="0" type="line"/>
      <point x="615.667" y="500" type="line"/>
      <point x="499.333" y="500" type="line"/>
      <point x="454.667" y="304.667" type="line"/>
      <point x="245.667" y="304.667" type="line"/>
      <point x="290.333" y="500" type="line"/>
      <point x="174" y="500" type="line"/>
      <point x="59" y="0" type="line"/>
      <point x="175.333" y="0" type="line"/>
      <point x="225.667" y="217" type="line"/>
      <point x="434.667" y="217" type="line"/>
      <point x="384.333" y="0" type="line"/>
    </contour>
  </outline>
</glyph>
<glyph name="uni029D" format="2">
  <advance width="417"/>
  <unicode hex="029D"/>
  <outline>
    <component base="i" xScale="1" xOffset="132.333"/>
    <contour>
      <point x="196" y="-48.3333" type="line" smooth="yes"/>
      <point x="185.667" y="-93.6667"/>
      <point x="169.667" y="-120"/>
      <point x="138.667" y="-120" type="curve" smooth="yes"/>
      <point x="117.333" y="-120"/>
      <point x="98.3333" y="-107"/>
      <point x="98.3333" y="-76.6667" type="curve" smooth="yes"/>
      <point x="98.3333" y="-40"/>
      <point x="126.667" y="-4.66667"/>
      <point x="165" y="-4.66667" type="curve" smooth="yes"/>
      <point x="206" y="-4.66667" type="line"/>
    </contour>
    <contour>
      <point x="150.333" y="49.6667" type="line" smooth="yes"/>
      <point x="61.3333" y="49.6667"/>
      <point x="-2" y="-25"/>
      <point x="-2" y="-99.3333" type="curve" smooth="yes"/>
      <point x="-2" y="-168"/>
      <point x="52.3333" y="-200"/>
      <point x="116.333" y="-200" type="curve" smooth="yes"/>
      <point x="225" y="-200"/>
      <point x="292.333" y="-150"/>
      <point x="311.667" y="-69" type="curve" smooth="yes"/>
      <point x="327" y="-4.66667" type="line"/>
      <point x="405.667" y="-4.66667" type="line"/>
      <point x="418.667" y="49.6667" type="line"/>
    </contour>
  </outline>
</glyph>
<glyph name="uni029F" format="2">
  <advance width="392"/>
  <unicode hex="029F"/>
  <outline>
    <contour>
      <point x="372" y="0" type="line"/>
      <point x="391.667" y="91" type="line"/>
      <point x="196.667" y="91" type="line"/>
      <point x="291" y="500" type="line"/>
      <point x="172" y="500" type="line"/>
      <point x="57" y="0" type="line"/>
    </contour>
  </outline>
</glyph>
<glyph name="uni02A0" format="2">
  <advance width="630"/>
  <unicode hex="02A0"/>
  <outline>
    <component base="q"/>
    <contour>
      <point x="652.333" y="444" type="line"/>
      <point x="667.333" y="507.333" type="line" smooth="yes"/>
      <point x="675.333" y="540.667"/>
      <point x="690" y="552.667"/>
      <point x="724.667" y="552.667" type="curve" smooth="yes"/>
      <point x="745" y="552.667"/>
      <point x="760" y="548.667"/>
      <point x="773" y="540.333" type="curve"/>
      <point x="794.333" y="635.667" type="line"/>
      <point x="781.333" y="643.667"/>
      <point x="749" y="650.667"/>
      <point x="714.667" y="650.667" type="curve" smooth="yes"/>
      <point x="624.333" y="650.667"/>
      <point x="568.667" y="602.667"/>
      <point x="548.667" y="512.667" type="curve" smooth="yes"/>
      <point x="533.333" y="444" type="line"/>
    </contour>
  </outline>
</glyph>
<glyph name="uni02BC" format="2">
  <advance width="321"/>
  <unicode hex="02BC"/>
  <outline>
    <contour>
      <point x="395.667" y="722" type="line"/>
      <point x="260.333" y="722" type="line"/>
      <point x="218.333" y="432.667" type="line"/>
      <point x="303.667" y="432.667" type="line"/>
    </contour>
  </outline>
</glyph>
<glyph name="breve" format="2">
  <advance width="306"/>
  <unicode hex="02D8"/>
  <outline>
    <contour>
      <point x="307.333" y="674.333" type="curve" smooth="yes"/>
      <point x="261.667" y="674.333"/>
      <point x="222.333" y="709"/>
      <point x="227" y="739" type="curve"/>
      <point x="169.667" y="739" type="line"/>
      <point x="158.667" y="657.667"/>
      <point x="201.667" y="600"/>
      <point x="291.333" y="600" type="curve" smooth="yes"/>
      <point x="377.333" y="600"/>
      <point x="449.333" y="662.667"/>
      <point x="476.667" y="739" type="curve"/>
      <point x="419.333" y="739" type="line"/>
      <point x="410" y="708.667"/>
      <point x="353.333" y="674.333"/>
    </contour>
  </outline>
</glyph>
<glyph name="ogonek" format="2">
  <advance width="204"/>
  <unicode hex="02DB"/>
  <outline>
    <contour>
      <point x="-44.6667" y="-160" type="curve" smooth="yes"/>
      <point x="-44.6667" y="-203"/>
      <point x="-10.6667" y="-226.667"/>
      <point x="35.6667" y="-226.667" type="curve"/>
      <point x="112.333" y="-222.667" type="line"/>
      <point x="131.667" y="-139.333" type="line"/>
      <point x="92" y="-143.333" type="line"/>
      <point x="69.3333" y="-142.667"/>
      <point x="62.6667" y="-134.667"/>
      <point x="62.6667" y="-121.333" type="curve" smooth="yes"/>
      <point x="62.6667" y="-84.6667"/>
      <point x="115" y="-22.6667"/>
      <point x="144.667" y="-0.666667" type="curve"/>
      <point x="69.3333" y="-0.666667" type="line"/>
      <point x="45.6667" y="-19.6667" type="line" smooth="yes"/>
      <point x="5.33333" y="-52"/>
      <point x="-44.6667" y="-107.667"/>
    </contour>
  </outline>
</glyph>
<glyph name="hungarumlaut" format="2">
  <advance width="319"/>
  <unicode hex="02DD"/>
  <outline>
    <contour>
      <point x="500" y="780" type="line"/>
      <point x="390" y="780" type="line"/>
      <point x="299" y="600" type="line"/>
      <point x="344" y="600" type="line"/>
    </contour>
    <contour>
      <point x="340" y="780" type="line"/>
      <point x="230" y="780" type="line"/>
      <point x="139" y="600" type="line"/>
      <point x="189" y="600" type="line"/>
    </contour>
  </outline>
</glyph>
<glyph name="uni02E5" format="2">
  <advance width="357"/>
  <unicode hex="02E5"/>
  <outline>
    <contour>
      <point x="334.667" y="0" type="line"/>
      <point x="501.667" y="722" type="line"/>
      <point x="188" y="722" type="line"/>
      <point x="167.333" y="632.333" type="line"/>
      <point x="369" y="632.333" type="line"/>
      <point x="223" y="0" type="line"/>
    </contour>
  </outline>
</glyph>
<glyph name="uni02E6" format="2">
  <advance width="374"/>
  <unicode hex="02E6"/>
  <outline>
    <contour>
      <point x="374" y="561" type="line"/>
      <point x="150" y="561" type="line"/>
      <point x="129" y="470.333" type="line"/>
      <point x="353" y="470.333" type="line"/>
    </contour>
    <contour>
      <point x="223" y="0" type="line"/>
      <point x="335" y="0" type="line"/>
      <point x="502" y="722" type="line"/>
      <point x="390" y="722" type="line"/>
    </contour>
  </outline>
</glyph>
<glyph name="uni02E7" format="2">
  <advance width="385"/>
  <unicode hex="02E7"/>
  <outline>
    <contour>
      <point x="229.667" y="0" type="line"/>
      <point x="341.667" y="0" type="line"/>
      <point x="508.667" y="722" type="line"/>
      <point x="396.667" y="722" type="line"/>
    </contour>
    <contour>
      <point x="344.333" y="406.333" type="line"/>
      <point x="120.333" y="406.333" type="line"/>
      <point x="99.3333" y="315.667" type="line"/>
      <point x="323.333" y="315.667" type="line"/>
    </contour>
  </outline>
</glyph>
<glyph name="uni02E8" format="2">
  <advance width="380"/>
  <unicode hex="02E8"/>
  <outline>
    <contour>
      <point x="229.667" y="0" type="line"/>
      <point x="341.667" y="0" type="line"/>
      <point x="508.667" y="722" type="line"/>
      <point x="396.667" y="722" type="line"/>
    </contour>
    <contour>
      <point x="305.333" y="236.333" type="line"/>
      <point x="81.3333" y="236.333" type="line"/>
      <point x="60.3333" y="145.667" type="line"/>
      <point x="284.333" y="145.667" type="line"/>
    </contour>
  </outline>
</glyph>
<glyph name="gravecomb" format="2">
  <unicode hex="0300"/>
  <anchor x="-108" y="600" name="_top"/>
  <outline>
    <contour>
      <point x="-76.3333" y="600" type="line"/>
      <point x="-130" y="777" type="line"/>
      <point x="-250.333" y="777" type="line"/>
      <point x="-143.333" y="600" type="line"/>
    </contour>
  </outline>
</glyph>
<glyph name="acutecomb" format="2">
  <advance width="1"/>
  <unicode hex="0301"/>
  <anchor x="-176.667" y="600" name="_mkmktop"/>
  <anchor x="-173.333" y="600" name="_top"/>
  <outline>
    <contour>
      <point x="47.3333" y="777" type="line"/>
      <point x="-73" y="777" type="line"/>
      <point x="-207.333" y="600" type="line"/>
      <point x="-140.333" y="600" type="line"/>
    </contour>
  </outline>
</glyph>
<glyph name="uni0302" format="2">
  <advance width="1"/>
  <unicode hex="0302"/>
  <anchor x="-165.333" y="600" name="_top"/>
  <outline>
    <contour>
      <point x="-14" y="600" type="line"/>
      <point x="-63.6667" y="776.667" type="line"/>
      <point x="-193.667" y="776.667" type="line"/>
      <point x="-324" y="600" type="line"/>
      <point x="-257.333" y="600" type="line"/>
      <point x="-144" y="710" type="line"/>
      <point x="-80.6667" y="600" type="line"/>
    </contour>
  </outline>
</glyph>
<glyph name="uni0306" format="2">
  <advance width="1"/>
  <unicode hex="0306"/>
  <anchor x="-149" y="600" name="_top"/>
  <outline>
    <contour>
      <point x="-281" y="739" type="line"/>
      <point x="-283" y="728.667"/>
      <point x="-284.333" y="718.667"/>
      <point x="-284.333" y="709" type="curve" smooth="yes"/>
      <point x="-284.333" y="643"/>
      <point x="-236" y="600"/>
      <point x="-158.333" y="600" type="curve" smooth="yes"/>
      <point x="-74.6667" y="600"/>
      <point x="-5.33333" y="650.667"/>
      <point x="26.3333" y="739" type="curve"/>
      <point x="-30.3333" y="739" type="line"/>
      <point x="-41" y="702.333"/>
      <point x="-92.3333" y="674.667"/>
      <point x="-147" y="674.667" type="curve" smooth="yes"/>
      <point x="-194" y="674.667"/>
      <point x="-225.333" y="696"/>
      <point x="-225.333" y="727" type="curve" smooth="yes"/>
      <point x="-225.333" y="731.667"/>
      <point x="-224.667" y="736.667"/>
      <point x="-223.667" y="739" type="curve"/>
    </contour>
  </outline>
</glyph>
<glyph name="uni0308" format="2">
  <unicode hex="0308"/>
  <anchor x="-142.667" y="600" name="_top"/>
  <anchor x="-113.333" y="766.667" name="mkmktop"/>
  <outline>
    <contour>
      <point x="3.33333" y="600" type="line"/>
      <point x="29.6667" y="713.333" type="line"/>
      <point x="-73.6667" y="713.333" type="line"/>
      <point x="-100" y="600" type="line"/>
    </contour>
    <contour>
      <point x="-190" y="600" type="line"/>
      <point x="-163.667" y="713.333" type="line"/>
      <point x="-267" y="713.333" type="line"/>
      <point x="-293.333" y="600" type="line"/>
    </contour>
  </outline>
</glyph>
<glyph name="hookabovecomb" format="2">
  <unicode hex="0309"/>
  <outline>
    <contour>
      <point x="-179" y="496" type="curve" smooth="yes"/>
      <point x="-186" y="466.667" type="line"/>
      <point x="-89.3333" y="466.667" type="line"/>
      <point x="-87.3333" y="476.333" type="line"/>
      <point x="-83.3333" y="492.667"/>
      <point x="-55.6667" y="516"/>
      <point x="-22.3333" y="535" type="curve" smooth="yes"/>
      <point x="15" y="556.667"/>
      <point x="51.3333" y="586"/>
      <point x="51.3333" y="633.667" type="curve" smooth="yes"/>
      <point x="51.3333" y="688"/>
      <point x="4.66667" y="722"/>
      <point x="-59.6667" y="722" type="curve" smooth="yes"/>
      <point x="-117.333" y="722"/>
      <point x="-159.333" y="707.333"/>
      <point x="-198" y="673.667" type="curve"/>
      <point x="-153.333" y="613.667" type="line"/>
      <point x="-135.667" y="632.333"/>
      <point x="-118.667" y="639.333"/>
      <point x="-99.3333" y="639.333" type="curve" smooth="yes"/>
      <point x="-75" y="639.333"/>
      <point x="-67.6667" y="628.667"/>
      <point x="-67.6667" y="615.667" type="curve" smooth="yes"/>
      <point x="-67.6667" y="592"/>
      <point x="-91.3333" y="573.333"/>
      <point x="-126.333" y="552.667" type="curve" smooth="yes"/>
      <point x="-152" y="537.333"/>
      <point x="-173.667" y="518"/>
    </contour>
  </outline>
</glyph>
<glyph name="uni030B" format="2">
  <unicode hex="030B"/>
  <anchor x="-157.333" y="600" name="_top"/>
  <outline>
    <contour>
      <point x="92" y="797.667" type="line"/>
      <point x="-38" y="797.667" type="line"/>
      <point x="-157.667" y="600" type="line"/>
      <point x="-75.6667" y="600" type="line"/>
    </contour>
    <contour>
      <point x="-14.6667" y="799.667" type="line"/>
      <point x="-144.667" y="799.667" type="line"/>
      <point x="-264.333" y="600" type="line"/>
      <point x="-182.333" y="600" type="line"/>
    </contour>
  </outline>
</glyph>
<glyph name="uni030C" format="2">
  <advance width="1"/>
  <unicode hex="030C"/>
  <anchor x="-163.333" y="600" name="_mkmktop"/>
  <anchor x="-160.667" y="600" name="_top"/>
  <outline>
    <contour>
      <point x="36.3333" y="776.667" type="line"/>
      <point x="-30.3333" y="776.667" type="line"/>
      <point x="-144" y="666.667" type="line"/>
      <point x="-207" y="776.667" type="line"/>
      <point x="-273.667" y="776.667" type="line"/>
      <point x="-224" y="600" type="line"/>
      <point x="-94" y="600" type="line"/>
    </contour>
  </outline>
</glyph>
<glyph name="uni030D" format="2">
  <advance width="-237"/>
  <unicode hex="030D"/>
  <outline>
    <contour>
      <point x="-203.333" y="580.667" type="line"/>
      <point x="-118" y="580.667" type="line"/>
      <point x="-72" y="780.667" type="line"/>
      <point x="-157.333" y="780.667" type="line"/>
    </contour>
  </outline>
</glyph>
<glyph name="uni031E" format="2">
  <unicode hex="031E"/>
  <outline>
    <contour>
      <point x="-77.3333" y="-170.667" type="line"/>
      <point x="-59" y="-83.3333" type="line"/>
      <point x="-329.667" y="-83.3333" type="line"/>
      <point x="-348" y="-170.667" type="line"/>
    </contour>
    <contour>
      <point x="-249" y="-145.667" type="line"/>
      <point x="-278.667" y="-273.667" type="line"/>
      <point x="-196" y="-273.667" type="line"/>
      <point x="-166.333" y="-145.667" type="line"/>
    </contour>
  </outline>
</glyph>
<glyph name="cedillacomb" format="2">
  <unicode hex="0327"/>
  <anchor x="-283.667" y="0" name="_cedillaC"/>
  <outline>
    <contour>
      <point x="-301.333" y="10" type="line"/>
      <point x="-369.333" y="-99" type="line"/>
      <point x="-309" y="-99" type="line" smooth="yes"/>
      <point x="-279" y="-99"/>
      <point x="-252.667" y="-113"/>
      <point x="-252.667" y="-144" type="curve" smooth="yes"/>
      <point x="-252.667" y="-184"/>
      <point x="-295" y="-189.667"/>
      <point x="-326.667" y="-189.667" type="curve" smooth="yes"/>
      <point x="-352.667" y="-189.667"/>
      <point x="-386.333" y="-185.667"/>
      <point x="-427" y="-177" type="curve"/>
      <point x="-440.333" y="-233.667" type="line"/>
      <point x="-401.667" y="-239.667"/>
      <point x="-368.667" y="-242.667"/>
      <point x="-338" y="-242.667" type="curve" smooth="yes"/>
      <point x="-265.333" y="-242.667"/>
      <point x="-168.333" y="-217.333"/>
      <point x="-168.333" y="-131.667" type="curve" smooth="yes"/>
      <point x="-168.333" y="-75.3333"/>
      <point x="-210" y="-49.6667"/>
      <point x="-291.333" y="-49.6667" type="curve"/>
      <point x="-251.667" y="10" type="line"/>
    </contour>
  </outline>
</glyph>
<glyph name="macronbelowcomb" format="2">
  <unicode hex="0331"/>
  <anchor x="-264" y="-50" name="_bottom"/>
  <outline>
    <contour>
      <point x="-74.3333" y="-129" type="line"/>
      <point x="-59" y="-53.3333" type="line"/>
      <point x="-452.333" y="-53.3333" type="line"/>
      <point x="-468.667" y="-129" type="line"/>
    </contour>
  </outline>
</glyph>
<glyph name="uni0339" format="2">
  <unicode hex="0339"/>
  <outline>
    <contour>
      <point x="-379.333" y="-94" type="line"/>
      <point x="-388.333" y="-153.333" type="line"/>
      <point x="-375.333" y="-153.333"/>
      <point x="-352.333" y="-164"/>
      <point x="-352.333" y="-203.333" type="curve" smooth="yes"/>
      <point x="-352.333" y="-239.667"/>
      <point x="-371.667" y="-266.667"/>
      <point x="-420.333" y="-266.667" type="curve"/>
      <point x="-429.333" y="-326" type="line"/>
      <point x="-313.333" y="-326"/>
      <point x="-270" y="-257.667"/>
      <point x="-270" y="-188.667" type="curve" smooth="yes"/>
      <point x="-270" y="-136"/>
      <point x="-313" y="-94"/>
      <point x="-378.333" y="-94" type="curve"/>
    </contour>
  </outline>
</glyph>
<glyph name="uni033C" format="2">
  <advance width="1"/>
  <unicode hex="033C"/>
  <outline>
    <contour>
      <point x="-146" y="-264" type="line"/>
      <point x="-134.333" y="-214.333"/>
      <point x="-129" y="-177"/>
      <point x="-129" y="-154.667" type="curve" smooth="yes"/>
      <point x="-129" y="-98.6667"/>
      <point x="-161" y="-74.6667"/>
      <point x="-203.667" y="-74.6667" type="curve" smooth="yes"/>
      <point x="-258" y="-74.6667"/>
      <point x="-313" y="-114.667"/>
      <point x="-345" y="-170.667" type="curve"/>
      <point x="-319.333" y="-170.667" type="line"/>
      <point x="-331.667" y="-102.333"/>
      <point x="-364.667" y="-74.6667"/>
      <point x="-414.333" y="-74.6667" type="curve" smooth="yes"/>
      <point x="-465" y="-74.6667"/>
      <point x="-526.333" y="-106.667"/>
      <point x="-562" y="-264" type="curve"/>
      <point x="-542.333" y="-264" type="line"/>
      <point x="-497" y="-195.667"/>
      <point x="-459.667" y="-160"/>
      <point x="-418" y="-160" type="curve" smooth="yes"/>
      <point x="-388.667" y="-160"/>
      <point x="-379.667" y="-178.667"/>
      <point x="-362" y="-249" type="curve"/>
      <point x="-343.333" y="-249" type="line"/>
      <point x="-295.333" y="-178.667"/>
      <point x="-266" y="-160"/>
      <point x="-235.667" y="-160" type="curve" smooth="yes"/>
      <point x="-187.667" y="-160"/>
      <point x="-171.667" y="-206.333"/>
      <point x="-169" y="-264" type="curve"/>
    </contour>
  </outline>
</glyph>
<glyph name="uni035C" format="2">
  <unicode hex="035C"/>
  <outline>
    <contour>
      <point x="396.333" y="-141.333" type="curve"/>
      <point x="308.667" y="-141.333" type="line"/>
      <point x="270.667" y="-200.333"/>
      <point x="163.667" y="-219.333"/>
      <point x="-51.6667" y="-219.333" type="curve" smooth="yes"/>
      <point x="-267" y="-219.333"/>
      <point x="-366" y="-200.333"/>
      <point x="-376" y="-141.333" type="curve"/>
      <point x="-464.667" y="-141.333" type="line"/>
      <point x="-457.667" y="-274.333"/>
      <point x="-332" y="-338"/>
      <point x="-77" y="-338" type="curve" smooth="yes"/>
      <point x="176" y="-338"/>
      <point x="333.333" y="-274.333"/>
    </contour>
  </outline>
</glyph>
<glyph name="Gamma" format="2">
  <advance width="555"/>
  <unicode hex="0393"/>
  <outline>
    <contour>
      <point x="655" y="616.333" type="line"/>
      <point x="679.667" y="722" type="line"/>
      <point x="233.667" y="722" type="line"/>
      <point x="66.6667" y="0" type="line"/>
      <point x="197" y="0" type="line"/>
      <point x="339.333" y="616.333" type="line"/>
    </contour>
  </outline>
</glyph>
<glyph name="Psi" format="2">
  <advance width="712"/>
  <unicode hex="03A8"/>
  <outline>
    <component base="I" xOffset="220"/>
    <contour>
      <point x="404" y="391.667" type="line"/>
      <point x="320" y="399.667"/>
      <point x="302.333" y="446.667"/>
      <point x="302.333" y="509.667" type="curve" smooth="yes"/>
      <point x="302.333" y="549"/>
      <point x="308.333" y="587"/>
      <point x="318.333" y="631" type="curve" smooth="yes"/>
      <point x="339.333" y="722" type="line"/>
      <point x="220" y="722" type="line"/>
      <point x="200" y="631" type="line" smooth="yes"/>
      <point x="187.667" y="576"/>
      <point x="180" y="529"/>
      <point x="180" y="487" type="curve" smooth="yes"/>
      <point x="180" y="367"/>
      <point x="244" y="303"/>
      <point x="385" y="296" type="curve"/>
    </contour>
    <contour>
      <point x="473" y="296" type="line"/>
      <point x="665" y="307"/>
      <point x="760.667" y="418"/>
      <point x="809.667" y="631" type="curve" smooth="yes"/>
      <point x="830.667" y="722" type="line"/>
      <point x="709.667" y="722" type="line"/>
      <point x="688.667" y="631" type="line" smooth="yes"/>
      <point x="657" y="491.667"/>
      <point x="608" y="404.667"/>
      <point x="496" y="391.667" type="curve"/>
    </contour>
  </outline>
</glyph>
<glyph name="Omega" format="2">
  <advance width="800"/>
  <unicode hex="03A9"/>
  <outline>
    <contour>
      <point x="793" y="115" type="line"/>
      <point x="575" y="115" type="line"/>
      <point x="583.333" y="141.667" type="line"/>
      <point x="740.333" y="192.667"/>
      <point x="856.667" y="326.333"/>
      <point x="856.667" y="493.333" type="curve" smooth="yes"/>
      <point x="856.667" y="627.333"/>
      <point x="753" y="723.333"/>
      <point x="574.667" y="723.333" type="curve" smooth="yes"/>
      <point x="348" y="723.333"/>
      <point x="138" y="568.667"/>
      <point x="138" y="347.667" type="curve" smooth="yes"/>
      <point x="138" y="252"/>
      <point x="190.333" y="176.667"/>
      <point x="285.333" y="141.667" type="curve"/>
      <point x="281" y="115" type="line"/>
      <point x="62" y="115" type="line"/>
      <point x="36" y="0" type="line"/>
      <point x="350.667" y="0" type="line"/>
      <point x="381.333" y="179" type="line"/>
      <point x="304" y="215.333"/>
      <point x="278.667" y="274"/>
      <point x="278.667" y="330.333" type="curve" smooth="yes"/>
      <point x="278.667" y="498.333"/>
      <point x="384" y="604"/>
      <point x="535.667" y="604" type="curve" smooth="yes"/>
      <point x="650" y="604"/>
      <point x="704.667" y="544.333"/>
      <point x="704.667" y="470" type="curve" smooth="yes"/>
      <point x="704.667" y="357.667"/>
      <point x="641.333" y="229"/>
      <point x="500" y="179" type="curve"/>
      <point x="452.333" y="0" type="line"/>
      <point x="767" y="0" type="line"/>
    </contour>
  </outline>
</glyph>
<glyph name="gamma" format="2">
  <advance width="551"/>
  <unicode hex="03B3"/>
  <outline>
    <contour>
      <point x="283.333" y="-75" type="line"/>
      <point x="655.333" y="500" type="line"/>
      <point x="524.333" y="500" type="line"/>
      <point x="276" y="104" type="line"/>
      <point x="334.333" y="104" type="line"/>
      <point x="259.333" y="465" type="line" smooth="yes"/>
      <point x="253.333" y="494"/>
      <point x="218.333" y="513.333"/>
      <point x="179.333" y="513.333" type="curve" smooth="yes"/>
      <point x="166.333" y="513.333"/>
      <point x="134.667" y="511.333"/>
      <point x="116.667" y="508.333" type="curve"/>
      <point x="95.6667" y="417" type="line"/>
      <point x="101.667" y="418"/>
      <point x="108.667" y="418"/>
      <point x="114.667" y="418" type="curve"/>
      <point x="137.667" y="416"/>
      <point x="152.667" y="408"/>
      <point x="156.667" y="389" type="curve" smooth="yes"/>
      <point x="252.667" y="-75" type="line"/>
    </contour>
    <contour>
      <point x="234" y="48" type="line"/>
      <point x="178" y="-200" type="line"/>
      <point x="297.667" y="-200" type="line"/>
      <point x="351.667" y="42" type="line"/>
    </contour>
  </outline>
</glyph>
<glyph name="epsilon" format="2">
  <advance width="551"/>
  <unicode hex="03B5"/>
  <anchor x="385" y="580" name="top"/>
  <outline>
    <contour>
      <point x="152.667" y="349" type="curve" smooth="yes"/>
      <point x="152.667" y="314.333"/>
      <point x="179.667" y="278"/>
      <point x="216" y="264" type="curve"/>
      <point x="123.667" y="238.333"/>
      <point x="66.6667" y="183"/>
      <point x="66.6667" y="101.333" type="curve" smooth="yes"/>
      <point x="66.6667" y="20"/>
      <point x="145.333" y="-13.3333"/>
      <point x="251.667" y="-13.3333" type="curve" smooth="yes"/>
      <point x="393.667" y="-13.3333"/>
      <point x="517" y="46.3333"/>
      <point x="538.667" y="156.667" type="curve"/>
      <point x="438.333" y="156.667" type="line"/>
      <point x="423.667" y="95.3333"/>
      <point x="366.667" y="67"/>
      <point x="282.667" y="67" type="curve" smooth="yes"/>
      <point x="235" y="67"/>
      <point x="193" y="86.6667"/>
      <point x="193" y="133" type="curve" smooth="yes"/>
      <point x="193" y="180.667"/>
      <point x="236" y="215.333"/>
      <point x="295" y="219.667" type="curve" smooth="yes"/>
      <point x="381" y="225.667" type="line"/>
      <point x="397" y="294.667" type="line"/>
      <point x="315.667" y="300.667" type="line" smooth="yes"/>
      <point x="286.333" y="302.667"/>
      <point x="268.667" y="325.333"/>
      <point x="268.667" y="357.667" type="curve" smooth="yes"/>
      <point x="268.667" y="405.667"/>
      <point x="307" y="433"/>
      <point x="372.333" y="433" type="curve" smooth="yes"/>
      <point x="432.667" y="433"/>
      <point x="468" y="409.333"/>
      <point x="468" y="367" type="curve" smooth="yes"/>
      <point x="468" y="359.333"/>
      <point x="466.667" y="353.667"/>
      <point x="464" y="344" type="curve"/>
      <point x="559.333" y="344" type="line"/>
      <point x="562.333" y="355.667"/>
      <point x="563.333" y="367.667"/>
      <point x="563.333" y="377.667" type="curve" smooth="yes"/>
      <point x="563.333" y="461"/>
      <point x="490" y="513.333"/>
      <point x="370.333" y="513.333" type="curve" smooth="yes"/>
      <point x="239" y="513.333"/>
      <point x="152.667" y="450.667"/>
    </contour>
  </outline>
</glyph>
<glyph name="zeta" format="2">
  <advance width="481"/>
  <unicode hex="03B6"/>
  <outline>
    <contour>
      <point x="225.333" y="645" type="line"/>
      <point x="461" y="645" type="line"/>
      <point x="467" y="679" type="line"/>
      <point x="323" y="600"/>
      <point x="74" y="411"/>
      <point x="74" y="159" type="curve" smooth="yes"/>
      <point x="74" y="70"/>
      <point x="128" y="-3"/>
      <point x="215" y="-3" type="curve" smooth="yes"/>
      <point x="323" y="-3" type="line" smooth="yes"/>
      <point x="346" y="-3"/>
      <point x="356" y="-9"/>
      <point x="356" y="-22" type="curve" smooth="yes"/>
      <point x="356" y="-39"/>
      <point x="341" y="-71"/>
      <point x="333" y="-87" type="curve" smooth="yes"/>
      <point x="276" y="-200" type="line"/>
      <point x="382.333" y="-200" type="line"/>
      <point x="455.333" y="-56" type="line" smooth="yes"/>
      <point x="463.333" y="-40"/>
      <point x="470.333" y="-21"/>
      <point x="470.333" y="1" type="curve" smooth="yes"/>
      <point x="470.333" y="44.3333"/>
      <point x="443.333" y="94"/>
      <point x="379" y="94" type="curve" smooth="yes"/>
      <point x="277.333" y="94" type="line" smooth="yes"/>
      <point x="232.333" y="94"/>
      <point x="204.333" y="128"/>
      <point x="204.333" y="177" type="curve" smooth="yes"/>
      <point x="204.333" y="390"/>
      <point x="453.333" y="584"/>
      <point x="615.333" y="679" type="curve"/>
      <point x="628.333" y="734" type="line"/>
      <point x="246" y="734" type="line"/>
    </contour>
  </outline>
</glyph>
<glyph name="iota" format="2">
  <advance width="276"/>
  <unicode hex="03B9"/>
  <anchor x="264" y="580" name="top"/>
  <outline>
    <contour>
      <point x="86" y="62" type="line" smooth="yes"/>
      <point x="85" y="58"/>
      <point x="84" y="52"/>
      <point x="84" y="46" type="curve" smooth="yes"/>
      <point x="84" y="16"/>
      <point x="108" y="0"/>
      <point x="141" y="0" type="curve" smooth="yes"/>
      <point x="268" y="0" type="line"/>
      <point x="291.333" y="99" type="line"/>
      <point x="283.333" y="97"/>
      <point x="263.333" y="94"/>
      <point x="247.333" y="94" type="curve" smooth="yes"/>
      <point x="231.333" y="94"/>
      <point x="219.333" y="97"/>
      <point x="219.333" y="112" type="curve" smooth="yes"/>
      <point x="219.333" y="117"/>
      <point x="221.333" y="127.333"/>
      <point x="222.333" y="131" type="curve"/>
      <point x="307" y="500" type="line"/>
      <point x="187" y="500" type="line"/>
    </contour>
  </outline>
</glyph>
<glyph name="kappa" format="2">
  <advance width="583"/>
  <unicode hex="03BA"/>
  <outline>
    <contour>
      <point x="315" y="500" type="line"/>
      <point x="196" y="500" type="line"/>
      <point x="81" y="0" type="line"/>
      <point x="200" y="0" type="line"/>
    </contour>
    <contour>
      <point x="303.333" y="273" type="line"/>
      <point x="424.333" y="0" type="line"/>
      <point x="556" y="0" type="line"/>
      <point x="407" y="332" type="line"/>
    </contour>
    <contour>
      <point x="225" y="144" type="line"/>
      <point x="670" y="500" type="line"/>
      <point x="505.333" y="500" type="line"/>
      <point x="258.667" y="303.333" type="line"/>
    </contour>
  </outline>
</glyph>
<glyph name="mu" format="2">
  <advance width="652"/>
  <unicode hex="03BC"/>
  <outline>
    <contour>
      <point x="20.6667" y="-200" type="line"/>
      <point x="140.667" y="-200" type="line"/>
      <point x="191" y="19.6667" type="line"/>
      <point x="216" y="-2"/>
      <point x="245.333" y="-13.3333"/>
      <point x="279.667" y="-13.3333" type="curve" smooth="yes"/>
      <point x="334.667" y="-13.3333"/>
      <point x="383.333" y="13.6667"/>
      <point x="425" y="68" type="curve"/>
      <point x="441" y="6.33333"/>
      <point x="473.667" y="-13.3333"/>
      <point x="549" y="-13.3333" type="curve" smooth="yes"/>
      <point x="575" y="-13.3333"/>
      <point x="605.333" y="-6"/>
      <point x="633.333" y="7" type="curve"/>
      <point x="651.667" y="84.6667" type="line"/>
      <point x="633" y="76"/>
      <point x="611.667" y="69.6667"/>
      <point x="592.667" y="69.6667" type="curve" smooth="yes"/>
      <point x="561.667" y="69.6667"/>
      <point x="551" y="86.6667"/>
      <point x="551" y="112.667" type="curve" smooth="yes"/>
      <point x="551" y="122.333"/>
      <point x="552.333" y="133"/>
      <point x="555.333" y="144.667" type="curve"/>
      <point x="636.667" y="500" type="line"/>
      <point x="516.667" y="500" type="line"/>
      <point x="448" y="200.333" type="line" smooth="yes"/>
      <point x="430.333" y="124.333"/>
      <point x="376.333" y="67"/>
      <point x="301.667" y="67" type="curve" smooth="yes"/>
      <point x="249.667" y="67"/>
      <point x="223.333" y="96"/>
      <point x="223.333" y="141.333" type="curve" smooth="yes"/>
      <point x="223.333" y="154"/>
      <point x="225.667" y="167.667"/>
      <point x="229" y="183.333" type="curve" smooth="yes"/>
      <point x="301.667" y="500" type="line"/>
      <point x="181.667" y="500" type="line"/>
    </contour>
  </outline>
</glyph>
<glyph name="pi" format="2">
  <advance width="628"/>
  <unicode hex="03C0"/>
  <outline>
    <contour>
      <point x="193" y="424" type="line"/>
      <point x="95" y="0" type="line"/>
      <point x="214.333" y="0" type="line"/>
      <point x="312.333" y="424" type="line"/>
    </contour>
    <contour>
      <point x="700" y="408" type="line"/>
      <point x="721.667" y="500" type="line"/>
      <point x="141" y="500" type="line"/>
      <point x="119.333" y="408" type="line"/>
    </contour>
    <contour>
      <point x="511.333" y="424" type="line"/>
      <point x="431.333" y="71.6667" type="line"/>
      <point x="429.333" y="64.6667"/>
      <point x="428.333" y="51.6667"/>
      <point x="428.333" y="44.6667" type="curve" smooth="yes"/>
      <point x="428.333" y="11.6667"/>
      <point x="457.333" y="-13.3333"/>
      <point x="496.333" y="-13.3333" type="curve" smooth="yes"/>
      <point x="527.333" y="-13.3333"/>
      <point x="573.667" y="-11.3333"/>
      <point x="604.667" y="-6.33333" type="curve"/>
      <point x="625" y="83.3333" type="line"/>
      <point x="617" y="82.3333"/>
      <point x="609" y="81.3333"/>
      <point x="601" y="81.3333" type="curve" smooth="yes"/>
      <point x="592" y="81.3333" type="line" smooth="yes"/>
      <point x="576" y="81.3333"/>
      <point x="560" y="90.3333"/>
      <point x="560" y="108.333" type="curve" smooth="yes"/>
      <point x="560" y="111.333"/>
      <point x="560" y="113.333"/>
      <point x="561" y="116.333" type="curve"/>
      <point x="630.667" y="424" type="line"/>
    </contour>
  </outline>
</glyph>
<glyph name="sigma1" format="2">
  <advance width="551"/>
  <unicode hex="03C2"/>
  <outline>
    <contour>
      <point x="86.6667" y="204.667" type="curve" smooth="yes"/>
      <point x="86.6667" y="119.667"/>
      <point x="134.667" y="57.6667"/>
      <point x="198.667" y="39" type="curve" smooth="yes"/>
      <point x="357.667" y="-7" type="line" smooth="yes"/>
      <point x="372.667" y="-11.6667"/>
      <point x="382.667" y="-21"/>
      <point x="382.667" y="-34" type="curve" smooth="yes"/>
      <point x="382.667" y="-49"/>
      <point x="370.667" y="-75"/>
      <point x="364.667" y="-85" type="curve" smooth="yes"/>
      <point x="299.667" y="-200" type="line"/>
      <point x="406.333" y="-200" type="line"/>
      <point x="471.333" y="-86" type="line" smooth="yes"/>
      <point x="488.333" y="-57"/>
      <point x="497.333" y="-27"/>
      <point x="497.333" y="-4" type="curve" smooth="yes"/>
      <point x="497.333" y="36"/>
      <point x="474.333" y="61.6667"/>
      <point x="438.333" y="72.6667" type="curve" smooth="yes"/>
      <point x="299.667" y="114.667" type="line" smooth="yes"/>
      <point x="246.667" y="130.667"/>
      <point x="212.667" y="166"/>
      <point x="212.667" y="232" type="curve" smooth="yes"/>
      <point x="212.667" y="339.333"/>
      <point x="276" y="420"/>
      <point x="367.667" y="420" type="curve" smooth="yes"/>
      <point x="436.333" y="420"/>
      <point x="479.667" y="394.333"/>
      <point x="481" y="341.333" type="curve"/>
      <point x="481" y="332.333"/>
      <point x="480" y="322.333"/>
      <point x="478" y="311.333" type="curve"/>
      <point x="585" y="311.333" type="line"/>
      <point x="589" y="330.333"/>
      <point x="590" y="348.333"/>
      <point x="590" y="360.333" type="curve" smooth="yes"/>
      <point x="590" y="456.667"/>
      <point x="513.667" y="513.333"/>
      <point x="386.667" y="513.333" type="curve" smooth="yes"/>
      <point x="205.667" y="513.333"/>
      <point x="86.6667" y="389.667"/>
    </contour>
  </outline>
</glyph>
<glyph name="sigma" format="2">
  <advance width="608"/>
  <unicode hex="03C3"/>
  <outline>
    <component base="o"/>
    <contour>
      <point x="541" y="411" type="line"/>
      <point x="707.667" y="411" type="line"/>
      <point x="728.333" y="500" type="line"/>
      <point x="503" y="500" type="line"/>
    </contour>
  </outline>
</glyph>
<glyph name="tau" format="2">
  <advance width="499"/>
  <unicode hex="03C4"/>
  <outline>
    <contour>
      <point x="560" y="408" type="line"/>
      <point x="581.667" y="500" type="line"/>
      <point x="141" y="500" type="line"/>
      <point x="119.333" y="408" type="line"/>
    </contour>
    <contour>
      <point x="284.667" y="424" type="line"/>
      <point x="204.667" y="71.6667" type="line"/>
      <point x="202.667" y="64.6667"/>
      <point x="201.667" y="51.6667"/>
      <point x="201.667" y="44.6667" type="curve" smooth="yes"/>
      <point x="201.667" y="11.6667"/>
      <point x="230.667" y="-13.3333"/>
      <point x="269.667" y="-13.3333" type="curve" smooth="yes"/>
      <point x="300.667" y="-13.3333"/>
      <point x="347" y="-11.3333"/>
      <point x="378" y="-6.33333" type="curve"/>
      <point x="398.333" y="83.3333" type="line"/>
      <point x="390.333" y="82.3333"/>
      <point x="382.333" y="81.3333"/>
      <point x="374.333" y="81.3333" type="curve" smooth="yes"/>
      <point x="365.333" y="81.3333" type="line" smooth="yes"/>
      <point x="349.333" y="81.3333"/>
      <point x="333.333" y="90.3333"/>
      <point x="333.333" y="108.333" type="curve" smooth="yes"/>
      <point x="333.333" y="111.333"/>
      <point x="333.333" y="113.333"/>
      <point x="334.333" y="116.333" type="curve"/>
      <point x="404" y="424" type="line"/>
    </contour>
  </outline>
</glyph>
<glyph name="upsilon" format="2">
  <advance width="608"/>
  <unicode hex="03C5"/>
  <anchor x="422" y="580" name="top"/>
  <outline>
    <contour>
      <point x="112.667" y="159" type="line" smooth="yes"/>
      <point x="108.667" y="142"/>
      <point x="106.667" y="126"/>
      <point x="106.667" y="112" type="curve" smooth="yes"/>
      <point x="106.667" y="18"/>
      <point x="199" y="-13.3333"/>
      <point x="300" y="-13.3333" type="curve" smooth="yes"/>
      <point x="411" y="-13.3333"/>
      <point x="528.333" y="24"/>
      <point x="559.333" y="160" type="curve" smooth="yes"/>
      <point x="637.333" y="500" type="line"/>
      <point x="518" y="500" type="line"/>
      <point x="437" y="148" type="line" smooth="yes"/>
      <point x="426" y="101"/>
      <point x="385" y="66.3333"/>
      <point x="333" y="66.3333" type="curve" smooth="yes"/>
      <point x="289" y="66.3333"/>
      <point x="228.667" y="74"/>
      <point x="228.667" y="130" type="curve" smooth="yes"/>
      <point x="228.667" y="141.667"/>
      <point x="231" y="155"/>
      <point x="234" y="167" type="curve" smooth="yes"/>
      <point x="311" y="500" type="line"/>
      <point x="191.667" y="500" type="line"/>
    </contour>
  </outline>
</glyph>
<glyph name="phi" format="2">
  <advance width="719"/>
  <unicode hex="03C6"/>
  <outline>
    <contour>
      <point x="380" y="72.6667" type="line"/>
      <point x="278" y="72.6667"/>
      <point x="203.333" y="121"/>
      <point x="203.333" y="210" type="curve" smooth="yes"/>
      <point x="203.333" y="301"/>
      <point x="234.667" y="374.333"/>
      <point x="331.667" y="415.333" type="curve"/>
      <point x="352" y="503.333" type="line"/>
      <point x="171.333" y="461.333"/>
      <point x="77.3333" y="344"/>
      <point x="77.3333" y="196" type="curve" smooth="yes"/>
      <point x="77.3333" y="42"/>
      <point x="226" y="-13.3333"/>
      <point x="362" y="-13.3333" type="curve"/>
    </contour>
    <contour>
      <point x="362" y="-13.3333" type="line"/>
      <point x="584" y="-13.3333"/>
      <point x="746.667" y="106.667"/>
      <point x="746.667" y="321" type="curve" smooth="yes"/>
      <point x="746.667" y="437"/>
      <point x="648.667" y="513.333"/>
      <point x="482.667" y="513.333" type="curve" smooth="yes"/>
      <point x="463.333" y="513.333"/>
      <point x="431.333" y="512.667"/>
      <point x="411.333" y="511" type="curve"/>
      <point x="248.333" y="-198" type="line"/>
      <point x="366.667" y="-198" type="line"/>
      <point x="519" y="467.333" type="line"/>
      <point x="471" y="422.333" type="line"/>
      <point x="577.333" y="415.333"/>
      <point x="620.667" y="371.667"/>
      <point x="620.667" y="303" type="curve" smooth="yes"/>
      <point x="620.667" y="180.667"/>
      <point x="550" y="72.6667"/>
      <point x="380" y="72.6667" type="curve"/>
    </contour>
  </outline>
</glyph>
<glyph name="chi" format="2">
  <advance width="573"/>
  <unicode hex="03C7"/>
  <outline>
    <contour>
      <point x="283.667" y="472" type="line" smooth="yes"/>
      <point x="274.667" y="499"/>
      <point x="247.667" y="512"/>
      <point x="207.667" y="512" type="curve" smooth="yes"/>
      <point x="188.667" y="512"/>
      <point x="149" y="509"/>
      <point x="128" y="502" type="curve"/>
      <point x="112" y="432" type="line"/>
      <point x="119" y="435"/>
      <point x="125" y="436"/>
      <point x="131" y="436" type="curve" smooth="yes"/>
      <point x="155" y="436"/>
      <point x="176" y="419"/>
      <point x="184" y="395" type="curve" smooth="yes"/>
      <point x="371" y="-176" type="line" smooth="yes"/>
      <point x="379" y="-201"/>
      <point x="414" y="-212"/>
      <point x="447" y="-212" type="curve" smooth="yes"/>
      <point x="464" y="-212"/>
      <point x="508.667" y="-209"/>
      <point x="526.667" y="-203" type="curve"/>
      <point x="542.667" y="-134" type="line"/>
      <point x="536.667" y="-135"/>
      <point x="530.667" y="-136"/>
      <point x="523.667" y="-136" type="curve" smooth="yes"/>
      <point x="503.667" y="-136"/>
      <point x="481" y="-129"/>
      <point x="474.667" y="-110" type="curve" smooth="yes"/>
    </contour>
    <contour>
      <point x="360.333" y="151" type="line"/>
      <point x="650.333" y="501" type="line"/>
      <point x="522.667" y="501" type="line"/>
      <point x="304.667" y="236" type="line"/>
    </contour>
    <contour>
      <point x="272.333" y="189.333" type="line"/>
      <point x="-46.3333" y="-200" type="line"/>
      <point x="76.3333" y="-200" type="line"/>
      <point x="310.333" y="89" type="line"/>
    </contour>
  </outline>
</glyph>
<glyph name="psi" format="2">
  <advance width="743"/>
  <unicode hex="03C8"/>
  <outline>
    <contour>
      <point x="720.333" y="185" type="curve" smooth="yes"/>
      <point x="793.333" y="503" type="line"/>
      <point x="677.667" y="503" type="line"/>
      <point x="602.667" y="180" type="line" smooth="yes"/>
      <point x="586.667" y="110"/>
      <point x="513.667" y="77"/>
      <point x="463" y="77" type="curve" smooth="yes"/>
      <point x="447.667" y="77"/>
      <point x="433.667" y="80"/>
      <point x="427.667" y="84" type="curve"/>
      <point x="440.667" y="51" type="line"/>
      <point x="593.667" y="722" type="line"/>
      <point x="476" y="722" type="line"/>
      <point x="323" y="51" type="line"/>
      <point x="352" y="82" type="line"/>
      <point x="341" y="78"/>
      <point x="327" y="76"/>
      <point x="317.667" y="76" type="curve" smooth="yes"/>
      <point x="284" y="76"/>
      <point x="215" y="101"/>
      <point x="215" y="160" type="curve" smooth="yes"/>
      <point x="215" y="167"/>
      <point x="215" y="173"/>
      <point x="217" y="180" type="curve"/>
      <point x="292" y="503" type="line"/>
      <point x="176.333" y="503" type="line"/>
      <point x="101.333" y="184" type="line" smooth="yes"/>
      <point x="97.3333" y="166"/>
      <point x="95.3333" y="150"/>
      <point x="95.3333" y="136" type="curve" smooth="yes"/>
      <point x="95.3333" y="13"/>
      <point x="239" y="-11"/>
      <point x="354" y="-11" type="curve" smooth="yes"/>
      <point x="492" y="-11"/>
      <point x="683" y="23"/>
    </contour>
    <contour>
      <point x="311" y="4" type="line"/>
      <point x="266" y="-200" type="line"/>
      <point x="383.667" y="-200" type="line"/>
      <point x="428.667" y="4" type="line"/>
    </contour>
  </outline>
</glyph>
<glyph name="omega" format="2">
  <advance width="719"/>
  <unicode hex="03C9"/>
  <anchor x="492.667" y="580" name="top"/>
  <outline>
    <contour>
      <point x="71.6667" y="158" type="curve" smooth="yes"/>
      <point x="71.6667" y="58.3333"/>
      <point x="123.333" y="-13.3333"/>
      <point x="220.333" y="-13.3333" type="curve" smooth="yes"/>
      <point x="284.667" y="-13.3333"/>
      <point x="349" y="25.3333"/>
      <point x="382" y="75.6667" type="curve"/>
      <point x="378" y="75.6667" type="line"/>
      <point x="385.667" y="19"/>
      <point x="418.333" y="-13.3333"/>
      <point x="491.667" y="-13.3333" type="curve" smooth="yes"/>
      <point x="648.333" y="-13.3333"/>
      <point x="748.667" y="137.333"/>
      <point x="748.667" y="318" type="curve" smooth="yes"/>
      <point x="748.667" y="385"/>
      <point x="729.667" y="443"/>
      <point x="689.667" y="500" type="curve"/>
      <point x="557.667" y="500" type="line"/>
      <point x="602.667" y="451"/>
      <point x="625.667" y="381"/>
      <point x="625.667" y="314" type="curve" smooth="yes"/>
      <point x="625.667" y="189.333"/>
      <point x="581.333" y="73.3333"/>
      <point x="503" y="73.3333" type="curve" smooth="yes"/>
      <point x="471" y="73.3333"/>
      <point x="451.333" y="93"/>
      <point x="451.333" y="126.333" type="curve" smooth="yes"/>
      <point x="451.333" y="134"/>
      <point x="452.333" y="143"/>
      <point x="454.333" y="152" type="curve" smooth="yes"/>
      <point x="509.333" y="387" type="line"/>
      <point x="390.333" y="387" type="line"/>
      <point x="330.333" y="132" type="line" smooth="yes"/>
      <point x="320.333" y="91"/>
      <point x="290.667" y="73.3333"/>
      <point x="261.667" y="73.3333" type="curve" smooth="yes"/>
      <point x="220.667" y="73.3333"/>
      <point x="201.667" y="109.333"/>
      <point x="201.667" y="172" type="curve" smooth="yes"/>
      <point x="201.667" y="311"/>
      <point x="292.667" y="402"/>
      <point x="393.667" y="500" type="curve"/>
      <point x="265.333" y="500" type="line"/>
      <point x="147.333" y="402"/>
      <point x="71.6667" y="282"/>
    </contour>
  </outline>
</glyph>
<glyph name="Djecyr" format="2">
  <advance width="772"/>
  <unicode hex="0402"/>
  <outline>
    <component base="T"/>
    <contour>
      <point x="436.667" y="384.333" type="line"/>
      <point x="457.333" y="388.667"/>
      <point x="503" y="390.333"/>
      <point x="526.667" y="390.333" type="curve" smooth="yes"/>
      <point x="626.333" y="390.333"/>
      <point x="674" y="353"/>
      <point x="674" y="287.667" type="curve" smooth="yes"/>
      <point x="674" y="194.667"/>
      <point x="608.333" y="79.3333"/>
      <point x="460" y="52.3333" type="curve"/>
      <point x="460" y="-13.3333" type="line"/>
      <point x="675.667" y="16"/>
      <point x="811" y="149"/>
      <point x="811" y="290.333" type="curve" smooth="yes"/>
      <point x="811" y="395.667"/>
      <point x="716.333" y="456"/>
      <point x="549" y="456" type="curve" smooth="yes"/>
      <point x="517.667" y="456"/>
      <point x="465" y="454"/>
      <point x="436.667" y="450" type="curve"/>
    </contour>
  </outline>
</glyph>
<glyph name="Tshecyr" format="2">
  <advance width="772"/>
  <unicode hex="040B"/>
  <outline>
    <contour>
      <point x="437.667" y="384.333" type="line"/>
      <point x="458.333" y="388.667"/>
      <point x="504" y="390.333"/>
      <point x="525.333" y="390.333" type="curve" smooth="yes"/>
      <point x="618" y="390.333"/>
      <point x="679" y="358.667"/>
      <point x="679" y="306.333" type="curve" smooth="yes"/>
      <point x="679" y="300.333"/>
      <point x="678" y="293.667"/>
      <point x="677" y="287.667" type="curve"/>
      <point x="614" y="0" type="line"/>
      <point x="743.667" y="0" type="line"/>
      <point x="811" y="290.333" type="line" smooth="yes"/>
      <point x="813" y="299"/>
      <point x="814" y="308"/>
      <point x="814" y="316" type="curve" smooth="yes"/>
      <point x="814" y="403.333"/>
      <point x="703" y="456"/>
      <point x="549" y="456" type="curve" smooth="yes"/>
      <point x="518.667" y="456"/>
      <point x="466" y="454"/>
      <point x="437.667" y="450" type="curve"/>
    </contour>
    <contour>
      <point x="745" y="616.333" type="line"/>
      <point x="768.667" y="722" type="line"/>
      <point x="194.667" y="722" type="line"/>
      <point x="170" y="616.333" type="line"/>
      <point x="390.667" y="616.333" type="line"/>
      <point x="248.333" y="0" type="line"/>
      <point x="382" y="0" type="line"/>
      <point x="524.333" y="616.333" type="line"/>
    </contour>
  </outline>
</glyph>
<glyph name="Dzhecyr" format="2">
  <advance width="698"/>
  <unicode hex="040F"/>
  <outline>
    <component base="uni041F" xScale="-1" yScale="-1" xOffset="866" yOffset="722"/>
    <contour>
      <point x="252.333" y="-162" type="line"/>
      <point x="314.333" y="-34" type="line"/>
      <point x="417.667" y="30" type="line"/>
      <point x="355.667" y="-98" type="line"/>
    </contour>
  </outline>
</glyph>
<glyph name="uni0416" format="2">
  <advance width="970"/>
  <unicode hex="0416"/>
  <anchor x="665" y="800" name="top"/>
  <outline>
    <contour>
      <point x="498.333" y="340.333" type="line"/>
      <point x="419.667" y="0" type="line"/>
      <point x="550" y="0" type="line"/>
      <point x="628.667" y="340.333" type="line"/>
      <point x="795.333" y="0" type="line"/>
      <point x="956.333" y="0" type="line"/>
      <point x="758" y="408.333" type="line"/>
      <point x="1089.67" y="722" type="line"/>
      <point x="937" y="722" type="line"/>
      <point x="654" y="449.667" type="line"/>
      <point x="717" y="722" type="line"/>
      <point x="586.667" y="722" type="line"/>
      <point x="523.667" y="449.667" type="line"/>
      <point x="366.667" y="722" type="line"/>
      <point x="214" y="722" type="line"/>
      <point x="399.667" y="409" type="line"/>
      <point x="13.3333" y="0" type="line"/>
      <point x="174.333" y="0" type="line"/>
    </contour>
  </outline>
</glyph>
<glyph name="uni0424" format="2">
  <advance width="751"/>
  <unicode hex="0424"/>
  <outline>
    <contour>
      <point x="247" y="277" type="curve" smooth="yes"/>
      <point x="247" y="389"/>
      <point x="298" y="543.667"/>
      <point x="433.333" y="543.667" type="curve"/>
      <point x="346.333" y="173.667" type="line"/>
      <point x="283.333" y="173.667"/>
      <point x="247" y="197.667"/>
    </contour>
    <contour>
      <point x="112.667" y="252" type="curve" smooth="yes"/>
      <point x="112.667" y="107.667"/>
      <point x="205.667" y="63"/>
      <point x="321.667" y="63" type="curve"/>
      <point x="307.333" y="0" type="line"/>
      <point x="438.333" y="0" type="line"/>
      <point x="452.667" y="63" type="line"/>
      <point x="681" y="63"/>
      <point x="812.333" y="255.333"/>
      <point x="812.333" y="466.333" type="curve" smooth="yes"/>
      <point x="812.333" y="601.333"/>
      <point x="715" y="655.333"/>
      <point x="590.333" y="655.333" type="curve"/>
      <point x="605" y="722" type="line"/>
      <point x="474" y="722" type="line"/>
      <point x="459" y="655.333" type="line"/>
      <point x="228.333" y="655.333"/>
      <point x="112.667" y="462"/>
    </contour>
    <contour>
      <point x="478.333" y="173.667" type="curve"/>
      <point x="565.667" y="543.667" type="line"/>
      <point x="634" y="543.667"/>
      <point x="678" y="521"/>
      <point x="678" y="440" type="curve" smooth="yes"/>
      <point x="678" y="326.333"/>
      <point x="613.667" y="173.667"/>
    </contour>
  </outline>
</glyph>
<glyph name="uni042C" format="2">
  <advance width="609"/>
  <unicode hex="042C"/>
  <outline>
    <contour>
      <point x="344.333" y="315.667" type="line" smooth="yes"/>
      <point x="442" y="315.667"/>
      <point x="500.333" y="298.333"/>
      <point x="480.667" y="213.333" type="curve" smooth="yes"/>
      <point x="461" y="127.667"/>
      <point x="393" y="108"/>
      <point x="296.333" y="108" type="curve" smooth="yes"/>
      <point x="206.333" y="108" type="line"/>
      <point x="254.333" y="315.667" type="line"/>
    </contour>
    <contour>
      <point x="613" y="213.333" type="curve" smooth="yes"/>
      <point x="652.333" y="383.333"/>
      <point x="538.667" y="426.667"/>
      <point x="366.667" y="426.667" type="curve" smooth="yes"/>
      <point x="279.667" y="426.667" type="line"/>
      <point x="348" y="722" type="line"/>
      <point x="217.667" y="722" type="line"/>
      <point x="50.6667" y="0" type="line"/>
      <point x="268" y="0" type="line" smooth="yes"/>
      <point x="436.333" y="0"/>
      <point x="572.333" y="36.6667"/>
    </contour>
  </outline>
</glyph>
<glyph name="uni0432" format="2">
  <advance width="571"/>
  <unicode hex="0432"/>
  <outline>
    <contour>
      <point x="85.3333" y="163.333" type="curve" smooth="yes"/>
      <point x="85.3333" y="68.6667"/>
      <point x="137.667" y="-13.3333"/>
      <point x="263.333" y="-13.3333" type="curve" smooth="yes"/>
      <point x="425" y="-13.3333"/>
      <point x="527.667" y="39.3333"/>
      <point x="527.667" y="162.333" type="curve" smooth="yes"/>
      <point x="527.667" y="230.333"/>
      <point x="473.333" y="294.667"/>
      <point x="416.667" y="298.333" type="curve"/>
      <point x="432.333" y="281.333" type="line"/>
      <point x="420.667" y="262.333" type="line"/>
      <point x="510.333" y="277"/>
      <point x="556" y="326"/>
      <point x="556" y="394" type="curve" smooth="yes"/>
      <point x="556" y="473.667"/>
      <point x="484.333" y="513.333"/>
      <point x="381.333" y="513.333" type="curve" smooth="yes"/>
      <point x="199.333" y="513.333"/>
      <point x="85.3333" y="373.667"/>
    </contour>
    <contour>
      <point x="230.667" y="287.667" type="curve"/>
      <point x="253.667" y="378.667"/>
      <point x="285.333" y="427"/>
      <point x="363.333" y="427" type="curve" smooth="yes"/>
      <point x="405" y="427"/>
      <point x="432" y="403"/>
      <point x="432" y="376" type="curve" smooth="yes"/>
      <point x="432" y="325.667"/>
      <point x="394" y="314"/>
      <point x="349.333" y="314" type="curve" smooth="yes"/>
      <point x="313.667" y="314"/>
      <point x="266.333" y="304.333"/>
    </contour>
    <contour>
      <point x="200.667" y="136.667" type="curve" smooth="yes"/>
      <point x="200.667" y="153.667"/>
      <point x="200.667" y="164.333"/>
      <point x="211.667" y="199.333" type="curve"/>
      <point x="249" y="216"/>
      <point x="284.667" y="229"/>
      <point x="327.667" y="229" type="curve" smooth="yes"/>
      <point x="384.667" y="229"/>
      <point x="409.667" y="209.333"/>
      <point x="409.667" y="162.667" type="curve" smooth="yes"/>
      <point x="409.667" y="111"/>
      <point x="355.667" y="73"/>
      <point x="289.333" y="73" type="curve" smooth="yes"/>
      <point x="239.333" y="73"/>
      <point x="200.667" y="90"/>
    </contour>
  </outline>
  <guideline angle="90" x="82" y="0"/>
  <guideline angle="90" x="182" y="0"/>
  <guideline angle="0" x="0" y="512"/>
  <guideline angle="0" x="0" y="235"/>
  <guideline angle="0" x="0" y="300"/>
  <guideline angle="90" x="532" y="0"/>
  <guideline angle="90" x="503" y="0"/>
</glyph>
<glyph name="uni0436" format="2">
  <advance width="764"/>
  <unicode hex="0436"/>
  <anchor x="520.333" y="580" name="top"/>
  <outline>
    <contour>
      <point x="10" y="0" type="line"/>
      <point x="154.667" y="0" type="line"/>
      <point x="427.667" y="273.667" type="line"/>
      <point x="278.667" y="500" type="line"/>
      <point x="136" y="500" type="line"/>
      <point x="291" y="274.333" type="line"/>
    </contour>
    <contour>
      <point x="608.667" y="0" type="line"/>
      <point x="752.667" y="0" type="line"/>
      <point x="597.333" y="273.667" type="line"/>
      <point x="856.667" y="500" type="line"/>
      <point x="713.333" y="500" type="line"/>
      <point x="461.667" y="272" type="line"/>
    </contour>
    <contour>
      <point x="326.333" y="0" type="line"/>
      <point x="436.333" y="0" type="line"/>
      <point x="552" y="500" type="line"/>
      <point x="442" y="500" type="line"/>
    </contour>
  </outline>
</glyph>
<glyph name="uni0439" format="2">
  <advance width="594"/>
  <unicode hex="0439"/>
  <outline>
    <component base="uni0438"/>
    <contour>
      <point x="431" y="674.333" type="curve" smooth="yes"/>
      <point x="385.333" y="674.333"/>
      <point x="346" y="709"/>
      <point x="350.667" y="739" type="curve"/>
      <point x="293.333" y="739" type="line"/>
      <point x="282.333" y="657.667"/>
      <point x="325.333" y="600"/>
      <point x="415" y="600" type="curve" smooth="yes"/>
      <point x="501" y="600"/>
      <point x="573" y="662.667"/>
      <point x="600.333" y="739" type="curve"/>
      <point x="543" y="739" type="line"/>
      <point x="533.667" y="708.667"/>
      <point x="477" y="674.333"/>
    </contour>
  </outline>
</glyph>
<glyph name="uni043C" format="2">
  <advance width="764"/>
  <unicode hex="043C"/>
  <outline>
    <contour>
      <point x="694.333" y="0" type="line"/>
      <point x="809.333" y="500" type="line"/>
      <point x="642" y="500" type="line"/>
      <point x="422.333" y="142.667" type="line"/>
      <point x="367.667" y="500" type="line"/>
      <point x="186" y="500" type="line"/>
      <point x="71" y="0" type="line"/>
      <point x="181" y="0" type="line"/>
      <point x="262.667" y="354" type="line"/>
      <point x="319" y="0" type="line"/>
      <point x="446.333" y="0" type="line"/>
      <point x="666.667" y="356" type="line"/>
      <point x="584.333" y="0" type="line"/>
    </contour>
  </outline>
</glyph>
<glyph name="uni0444" format="2">
  <advance width="893"/>
  <unicode hex="0444"/>
  <outline>
    <contour>
      <point x="341" y="-200" type="line"/>
      <point x="461" y="-200" type="line"/>
      <point x="671" y="722" type="line"/>
      <point x="551" y="722" type="line"/>
    </contour>
    <contour>
      <point x="91" y="157.333" type="curve" smooth="yes"/>
      <point x="91" y="51.6667"/>
      <point x="147" y="-13.3333"/>
      <point x="264.667" y="-13.3333" type="curve" smooth="yes"/>
      <point x="310.333" y="-13.3333"/>
      <point x="356.333" y="3.33333"/>
      <point x="407" y="37" type="curve"/>
      <point x="422.333" y="115" type="line"/>
      <point x="399.667" y="88.3333"/>
      <point x="350" y="71.6667"/>
      <point x="307.333" y="71.6667" type="curve" smooth="yes"/>
      <point x="250.667" y="71.6667"/>
      <point x="219.333" y="100.667"/>
      <point x="219.333" y="173" type="curve" smooth="yes"/>
      <point x="219.333" y="265"/>
      <point x="269.333" y="427"/>
      <point x="382.667" y="427" type="curve" smooth="yes"/>
      <point x="438.333" y="427"/>
      <point x="464.333" y="410.667"/>
      <point x="484.667" y="378" type="curve"/>
      <point x="502.667" y="455.333" type="line"/>
      <point x="476" y="490.333"/>
      <point x="443.667" y="513.333"/>
      <point x="388.333" y="513.333" type="curve" smooth="yes"/>
      <point x="202" y="513.333"/>
      <point x="91" y="328.333"/>
    </contour>
    <contour>
      <point x="499" y="38.6667" type="line"/>
      <point x="525.667" y="3.33333"/>
      <point x="562.667" y="-13.3333"/>
      <point x="611" y="-13.3333" type="curve" smooth="yes"/>
      <point x="797.667" y="-13.3333"/>
      <point x="913.667" y="160"/>
      <point x="913.667" y="334" type="curve" smooth="yes"/>
      <point x="913.667" y="444.667"/>
      <point x="855" y="513.333"/>
      <point x="742.667" y="513.333" type="curve" smooth="yes"/>
      <point x="681.667" y="513.333"/>
      <point x="647" y="499.333"/>
      <point x="600.667" y="464" type="curve"/>
      <point x="583" y="380.333" type="line"/>
      <point x="620" y="417"/>
      <point x="647.333" y="427"/>
      <point x="698.333" y="427" type="curve" smooth="yes"/>
      <point x="752" y="427"/>
      <point x="788.333" y="394"/>
      <point x="788.333" y="319.333" type="curve" smooth="yes"/>
      <point x="788.333" y="224.333"/>
      <point x="730.333" y="71.6667"/>
      <point x="615.667" y="71.6667" type="curve" smooth="yes"/>
      <point x="557.333" y="71.6667"/>
      <point x="536" y="96.6667"/>
      <point x="518.667" y="127" type="curve"/>
    </contour>
  </outline>
</glyph>
<glyph name="uni0446" format="2">
  <advance width="624"/>
  <unicode hex="0446"/>
  <outline>
    <contour>
      <point x="111.333" y="175" type="line" smooth="yes"/>
      <point x="105.667" y="151.333"/>
      <point x="103.333" y="130.333"/>
      <point x="103.333" y="112.333" type="curve" smooth="yes"/>
      <point x="103.333" y="27.3333"/>
      <point x="156" y="-12.3333"/>
      <point x="254.333" y="-12.3333" type="curve" smooth="yes"/>
      <point x="323.667" y="-12.3333"/>
      <point x="375.333" y="7.66667"/>
      <point x="419" y="49.3333" type="curve"/>
      <point x="532.667" y="49.3333" type="line"/>
      <point x="631.333" y="500" type="line"/>
      <point x="511.333" y="500" type="line"/>
      <point x="438" y="181.333" type="line" smooth="yes"/>
      <point x="423.667" y="117.667"/>
      <point x="363.333" y="70"/>
      <point x="305.333" y="70" type="curve" smooth="yes"/>
      <point x="256.333" y="70"/>
      <point x="227.333" y="103"/>
      <point x="227.333" y="147.667" type="curve" smooth="yes"/>
      <point x="227.333" y="155.667"/>
      <point x="228.333" y="164"/>
      <point x="230.333" y="173" type="curve" smooth="yes"/>
      <point x="305.667" y="500" type="line"/>
      <point x="185.667" y="500" type="line"/>
    </contour>
    <contour>
      <point x="469.333" y="-140" type="line"/>
      <point x="562.667" y="-140" type="line"/>
      <point x="616.333" y="93.3333" type="line"/>
      <point x="581.333" y="93.3333"/>
      <point x="553" y="97.6667"/>
      <point x="553" y="132.333" type="curve" smooth="yes"/>
      <point x="553" y="139"/>
      <point x="554" y="149"/>
      <point x="557" y="161" type="curve"/>
      <point x="445" y="161" type="line"/>
      <point x="422.333" y="49.3333" type="line"/>
      <point x="431.333" y="9"/>
      <point x="454.333" y="0"/>
      <point x="499.333" y="0" type="curve"/>
    </contour>
  </outline>
</glyph>
<glyph name="uni0448" format="2">
  <advance width="919"/>
  <unicode hex="0448"/>
  <outline>
    <contour>
      <point x="112.333" y="172.333" type="line" smooth="yes"/>
      <point x="107.333" y="151"/>
      <point x="105" y="131.333"/>
      <point x="105" y="113.667" type="curve" smooth="yes"/>
      <point x="105" y="28"/>
      <point x="156" y="-13.3333"/>
      <point x="250" y="-13.3333" type="curve" smooth="yes"/>
      <point x="332" y="-13.3333"/>
      <point x="385.333" y="22.6667"/>
      <point x="432" y="78.3333" type="curve"/>
      <point x="447" y="7.66667"/>
      <point x="492" y="-13.3333"/>
      <point x="566.667" y="-13.3333" type="curve" smooth="yes"/>
      <point x="644.333" y="-13.3333"/>
      <point x="695.333" y="17.3333"/>
      <point x="743" y="71.6667" type="curve"/>
      <point x="727.333" y="0" type="line"/>
      <point x="847.333" y="0" type="line"/>
      <point x="962.333" y="500" type="line"/>
      <point x="842.333" y="500" type="line"/>
      <point x="772.667" y="199.667" type="line" smooth="yes"/>
      <point x="759" y="139.667"/>
      <point x="697.333" y="64.6667"/>
      <point x="628" y="64.6667" type="curve" smooth="yes"/>
      <point x="579.333" y="64.6667"/>
      <point x="555.667" y="100.667"/>
      <point x="555.667" y="146" type="curve" smooth="yes"/>
      <point x="555.667" y="156"/>
      <point x="556.667" y="168"/>
      <point x="559.667" y="179" type="curve"/>
      <point x="634" y="500" type="line"/>
      <point x="514" y="500" type="line"/>
      <point x="444.333" y="199" type="line" smooth="yes"/>
      <point x="431.333" y="141.667"/>
      <point x="372" y="64.6667"/>
      <point x="300.667" y="64.6667" type="curve" smooth="yes"/>
      <point x="254" y="64.6667"/>
      <point x="229.667" y="98"/>
      <point x="229.667" y="143.333" type="curve" smooth="yes"/>
      <point x="229.667" y="154.333"/>
      <point x="231" y="166.667"/>
      <point x="234.333" y="179.333" type="curve"/>
      <point x="308.333" y="500" type="line"/>
      <point x="188.333" y="500" type="line"/>
    </contour>
  </outline>
</glyph>
<glyph name="uni044A" format="2">
  <advance width="627"/>
  <unicode hex="044A"/>
  <outline>
    <component base="uni044C" xScale="1" xOffset="35.6667"/>
    <contour>
      <point x="104" y="409" type="line"/>
      <point x="240" y="409" type="line"/>
      <point x="240" y="500" type="line"/>
      <point x="124.667" y="500" type="line"/>
    </contour>
  </outline>
</glyph>
<glyph name="uni044E" format="2">
  <advance width="800"/>
  <unicode hex="044E"/>
  <outline>
    <contour>
      <point x="79.6667" y="0" type="line"/>
      <point x="199.667" y="0" type="line"/>
      <point x="249.667" y="217.667" type="line"/>
      <point x="310" y="217.667" type="line"/>
      <point x="307" y="199.667"/>
      <point x="306" y="182.667"/>
      <point x="306" y="168.667" type="curve" smooth="yes"/>
      <point x="306" y="51.3333"/>
      <point x="375.667" y="-13.3333"/>
      <point x="497" y="-13.3333" type="curve" smooth="yes"/>
      <point x="693.333" y="-13.3333"/>
      <point x="819.667" y="158.333"/>
      <point x="819.667" y="328.667" type="curve" smooth="yes"/>
      <point x="819.667" y="433"/>
      <point x="771.667" y="513.333"/>
      <point x="630" y="513.333" type="curve" smooth="yes"/>
      <point x="488.667" y="513.333"/>
      <point x="379" y="432.333"/>
      <point x="331" y="304" type="curve"/>
      <point x="269.667" y="304" type="line"/>
      <point x="312.667" y="500" type="line"/>
      <point x="192.667" y="500" type="line"/>
    </contour>
    <contour>
      <point x="434" y="184" type="curve" smooth="yes"/>
      <point x="434" y="281"/>
      <point x="496.333" y="428.333"/>
      <point x="603.667" y="428.333" type="curve" smooth="yes"/>
      <point x="663.333" y="428.333"/>
      <point x="691.667" y="381.667"/>
      <point x="691.667" y="317.333" type="curve" smooth="yes"/>
      <point x="691.667" y="222.667"/>
      <point x="629.667" y="74.3333"/>
      <point x="522.333" y="74.3333" type="curve" smooth="yes"/>
      <point x="463" y="74.3333"/>
      <point x="434" y="118"/>
    </contour>
  </outline>
</glyph>
<glyph name="uni044F" format="2">
  <advance width="572"/>
  <unicode hex="044F"/>
  <outline>
    <contour>
      <point x="448" y="290.333" type="line"/>
      <point x="345" y="290.333" type="line" smooth="yes"/>
      <point x="301" y="290.333"/>
      <point x="283.333" y="303.333"/>
      <point x="283.333" y="334.667" type="curve" smooth="yes"/>
      <point x="283.333" y="379.333"/>
      <point x="317" y="409"/>
      <point x="367.333" y="409" type="curve" smooth="yes"/>
      <point x="475.667" y="409" type="line"/>
    </contour>
    <contour>
      <point x="56.3333" y="0" type="curve"/>
      <point x="186" y="0" type="line"/>
      <point x="204" y="38"/>
      <point x="215" y="63"/>
      <point x="230.667" y="112.667" type="curve" smooth="yes"/>
      <point x="254.667" y="189.333"/>
      <point x="269.333" y="199.333"/>
      <point x="321.667" y="199.333" type="curve" smooth="yes"/>
      <point x="427.333" y="199.333" type="line"/>
      <point x="381.333" y="0" type="line"/>
      <point x="501.333" y="0" type="line"/>
      <point x="612.333" y="500" type="line"/>
      <point x="369.667" y="500" type="line" smooth="yes"/>
      <point x="262" y="500"/>
      <point x="161.333" y="442.667"/>
      <point x="161.333" y="336.667" type="curve" smooth="yes"/>
      <point x="161.333" y="289.667"/>
      <point x="197.667" y="250.667"/>
      <point x="248.667" y="235" type="curve"/>
      <point x="244.667" y="242.333" type="line"/>
      <point x="249.333" y="249.333" type="line"/>
      <point x="192.667" y="239.333"/>
      <point x="145.667" y="210.667"/>
      <point x="127.667" y="152.333" type="curve" smooth="yes"/>
      <point x="112.667" y="102.333"/>
      <point x="88" y="46.3333"/>
    </contour>
  </outline>
</glyph>
<glyph name="djecyr" format="2">
  <advance width="607"/>
  <unicode hex="0452"/>
  <outline>
    <component base="h"/>
    <component base="macron" xyScale="2.84217e-18" xOffset="-4.66667" yOffset="-66.6667"/>
    <contour>
      <point x="194.333" y="-144" type="line"/>
      <point x="218.667" y="-177.667"/>
      <point x="274.667" y="-200"/>
      <point x="337.333" y="-200" type="curve" smooth="yes"/>
      <point x="436" y="-200"/>
      <point x="502.667" y="-145.667"/>
      <point x="521.667" y="-62" type="curve" smooth="yes"/>
      <point x="535.667" y="0" type="line"/>
      <point x="415.667" y="0" type="line"/>
      <point x="406" y="-41" type="line" smooth="yes"/>
      <point x="396" y="-83.6667"/>
      <point x="372" y="-104.333"/>
      <point x="337.333" y="-104.333" type="curve" smooth="yes"/>
      <point x="311.667" y="-104.333"/>
      <point x="291.333" y="-93.3333"/>
      <point x="279.333" y="-77" type="curve"/>
    </contour>
  </outline>
</glyph>
<glyph name="uni04E9" format="2">
  <advance width="615"/>
  <unicode hex="04E9"/>
  <anchor x="448" y="580" name="top"/>
  <outline>
    <component base="o"/>
    <contour>
      <point x="568.667" y="296.333" type="line"/>
      <point x="551.667" y="216.333" type="line"/>
      <point x="171.667" y="216.333" type="line"/>
      <point x="188.667" y="296.333" type="line"/>
    </contour>
  </outline>
</glyph>
<glyph name="uni2010" format="2">
  <advance width="327"/>
  <unicode hex="2010"/>
  <outline>
    <contour>
      <point x="166.667" y="216.333" type="line"/>
      <point x="342.667" y="237" type="line"/>
      <point x="286" y="324.333" type="line"/>
      <point x="110" y="303.667" type="line"/>
    </contour>
  </outline>
</glyph>
<glyph name="emdash" format="2">
  <advance width="860"/>
  <unicode hex="2014"/>
  <outline>
    <contour>
      <point x="898" y="223" type="line"/>
      <point x="920" y="317.667" type="line"/>
      <point x="86.6667" y="317.667" type="line"/>
      <point x="64.6667" y="223" type="line"/>
    </contour>
  </outline>
</glyph>
<glyph name="quoteright" format="2">
  <advance width="270"/>
  <unicode hex="2019"/>
  <anchor x="213.667" y="722" name="_leftTM"/>
  <outline>
    <contour>
      <point x="404.333" y="722" type="line"/>
      <point x="273.667" y="722" type="line"/>
      <point x="143" y="470.667" type="line"/>
      <point x="229.667" y="470.667" type="line"/>
    </contour>
  </outline>
</glyph>
<glyph name="quotesinglbase" format="2">
  <advance width="270"/>
  <unicode hex="201A"/>
  <outline>
    <contour>
      <point x="265" y="123" type="line"/>
      <point x="134.333" y="123" type="line"/>
      <point x="4" y="-128.333" type="line"/>
      <point x="90.6667" y="-128.333" type="line"/>
    </contour>
  </outline>
</glyph>
<glyph name="quotedblbase" format="2">
  <advance width="464"/>
  <unicode hex="201E"/>
  <outline>
    <contour>
      <point x="399" y="123" type="line"/>
      <point x="268.333" y="123" type="line"/>
      <point x="138" y="-128.333" type="line"/>
      <point x="224.667" y="-128.333" type="line"/>
    </contour>
    <contour>
      <point x="326" y="123" type="line"/>
      <point x="195.333" y="123" type="line"/>
      <point x="65" y="-128.333" type="line"/>
      <point x="151.667" y="-128.333" type="line"/>
    </contour>
  </outline>
</glyph>
<glyph name="bullet" format="2">
  <advance width="299"/>
  <unicode hex="2022"/>
  <outline>
    <contour>
      <point x="255" y="455" type="line"/>
      <point x="191" y="455"/>
      <point x="128" y="404"/>
      <point x="113" y="340" type="curve" smooth="yes"/>
      <point x="98" y="277"/>
      <point x="139" y="225"/>
      <point x="202" y="225" type="curve" smooth="yes"/>
      <point x="265" y="225"/>
      <point x="327" y="277"/>
      <point x="342" y="340" type="curve" smooth="yes"/>
      <point x="357" y="404"/>
      <point x="318" y="455"/>
      <point x="254" y="455" type="curve"/>
    </contour>
  </outline>
</glyph>
<glyph name="perthousand" format="2">
  <advance width="1396"/>
  <unicode hex="2030"/>
  <outline>
    <component base="percent"/>
    <contour>
      <point x="1015.33" y="143" type="curve" smooth="yes"/>
      <point x="1015.33" y="46.3333"/>
      <point x="1076.33" y="-5"/>
      <point x="1166.67" y="-5" type="curve" smooth="yes"/>
      <point x="1304.33" y="-5"/>
      <point x="1412.33" y="114.667"/>
      <point x="1412.33" y="243.333" type="curve" smooth="yes"/>
      <point x="1412.33" y="338"/>
      <point x="1353.67" y="394"/>
      <point x="1259.67" y="394" type="curve" smooth="yes"/>
      <point x="1123" y="394"/>
      <point x="1015.33" y="272.667"/>
    </contour>
    <contour>
      <point x="1180.67" y="60.3333" type="curve" smooth="yes"/>
      <point x="1131.67" y="60.3333"/>
      <point x="1112" y="90.6667"/>
      <point x="1112" y="141.333" type="curve" smooth="yes"/>
      <point x="1112" y="214.333"/>
      <point x="1153.33" y="326.333"/>
      <point x="1245" y="326.333" type="curve" smooth="yes"/>
      <point x="1293.67" y="326.333"/>
      <point x="1312.67" y="294.667"/>
      <point x="1312.67" y="244" type="curve" smooth="yes"/>
      <point x="1312.67" y="170.667"/>
      <point x="1273" y="60.3333"/>
    </contour>
  </outline>
</glyph>
<glyph name="Euro" format="2">
  <advance width="572"/>
  <unicode hex="20AC"/>
  <outline>
    <contour>
      <point x="668" y="666" type="line"/>
      <point x="647" y="685"/>
      <point x="593" y="707"/>
      <point x="520" y="707" type="curve" smooth="yes"/>
      <point x="362" y="707"/>
      <point x="262" y="605"/>
      <point x="205" y="459" type="curve"/>
      <point x="155" y="459" type="line"/>
      <point x="110" y="381" type="line"/>
      <point x="179" y="381" type="line"/>
      <point x="172" y="360"/>
      <point x="167" y="337"/>
      <point x="164" y="315" type="curve"/>
      <point x="122" y="315" type="line"/>
      <point x="77" y="237" type="line"/>
      <point x="154" y="237" type="line"/>
      <point x="153" y="223"/>
      <point x="152" y="201"/>
      <point x="152" y="193" type="curve" smooth="yes"/>
      <point x="152" y="53"/>
      <point x="225" y="-14"/>
      <point x="358" y="-14" type="curve" smooth="yes"/>
      <point x="434" y="-14"/>
      <point x="494" y="8"/>
      <point x="520" y="26" type="curve"/>
      <point x="543" y="127" type="line"/>
      <point x="508" y="100"/>
      <point x="456" y="77"/>
      <point x="391" y="77" type="curve" smooth="yes"/>
      <point x="298" y="77"/>
      <point x="253" y="125"/>
      <point x="253" y="212" type="curve" smooth="yes"/>
      <point x="253" y="220"/>
      <point x="253" y="228"/>
      <point x="254" y="237" type="curve"/>
      <point x="454" y="237" type="line"/>
      <point x="499" y="315" type="line"/>
      <point x="262" y="315" type="line"/>
      <point x="265" y="338"/>
      <point x="270" y="359"/>
      <point x="277" y="381" type="curve"/>
      <point x="538" y="381" type="line"/>
      <point x="582" y="459" type="line"/>
      <point x="305" y="459" type="line"/>
      <point x="340" y="553"/>
      <point x="408" y="616"/>
      <point x="515" y="616" type="curve" smooth="yes"/>
      <point x="581" y="616"/>
      <point x="624" y="592"/>
      <point x="645" y="566" type="curve"/>
    </contour>
  </outline>
</glyph>
<glyph name="uni2116" format="2">
  <advance width="1087"/>
  <unicode hex="2116"/>
  <outline>
    <component base="N"/>
    <contour>
      <point x="989" y="408" type="curve" smooth="yes"/>
      <point x="943" y="408"/>
      <point x="923" y="443"/>
      <point x="923" y="487" type="curve" smooth="yes"/>
      <point x="923" y="555"/>
      <point x="969" y="645"/>
      <point x="1044" y="645" type="curve" smooth="yes"/>
      <point x="1090" y="645"/>
      <point x="1111" y="609"/>
      <point x="1111" y="564" type="curve" smooth="yes"/>
      <point x="1111" y="496"/>
      <point x="1064" y="408"/>
    </contour>
    <contour>
      <point x="1124" y="222" type="line"/>
      <point x="1141" y="289" type="line"/>
      <point x="789" y="289" type="line"/>
      <point x="773" y="222" type="line"/>
    </contour>
    <contour>
      <point x="838" y="476" type="curve" smooth="yes"/>
      <point x="838" y="390"/>
      <point x="887" y="341"/>
      <point x="973" y="341" type="curve" smooth="yes"/>
      <point x="1105" y="341"/>
      <point x="1196" y="457"/>
      <point x="1196" y="575" type="curve" smooth="yes"/>
      <point x="1196" y="661"/>
      <point x="1147" y="710"/>
      <point x="1061" y="710" type="curve" smooth="yes"/>
      <point x="930" y="710"/>
      <point x="838" y="594"/>
    </contour>
  </outline>
</glyph>
<glyph name="summation" format="2">
  <advance width="743"/>
  <unicode hex="2211"/>
  <outline>
    <contour>
      <point x="-7.66667" y="-100" type="line"/>
      <point x="3.33333" y="-100"/>
      <point x="42.3333" y="-97"/>
      <point x="53.3333" y="-97" type="curve" smooth="yes"/>
      <point x="571.333" y="-97" type="line" smooth="yes"/>
      <point x="582.333" y="-97"/>
      <point x="641.333" y="-107"/>
      <point x="648.333" y="-109" type="curve"/>
      <point x="672.333" y="-44"/>
      <point x="705.333" y="34"/>
      <point x="747.333" y="125" type="curve"/>
      <point x="723.333" y="125" type="line"/>
      <point x="671.667" y="44"/>
      <point x="645" y="6"/>
      <point x="554.333" y="6" type="curve" smooth="yes"/>
      <point x="214.333" y="6" type="line"/>
      <point x="598.333" y="356" type="line"/>
      <point x="403.333" y="726" type="line"/>
      <point x="638.333" y="726" type="line" smooth="yes"/>
      <point x="744.333" y="726"/>
      <point x="766" y="702.667"/>
      <point x="776.333" y="607" type="curve"/>
      <point x="797.333" y="607" type="line"/>
      <point x="822.333" y="773" type="line"/>
      <point x="303.333" y="773" type="line" smooth="yes"/>
      <point x="288.333" y="773"/>
      <point x="212.333" y="780"/>
      <point x="197.667" y="780" type="curve"/>
      <point x="447.333" y="311" type="line"/>
    </contour>
  </outline>
</glyph>
<glyph name="minus" format="2">
  <advance width="610"/>
  <unicode hex="2212"/>
  <outline>
    <contour>
      <point x="616" y="268.333" type="line"/>
      <point x="636.667" y="363.667" type="line"/>
      <point x="142" y="363.667" type="line"/>
      <point x="121.333" y="268.333" type="line"/>
    </contour>
  </outline>
</glyph>
<glyph name="lozenge" format="2">
  <advance width="536"/>
  <unicode hex="25CA"/>
  <outline>
    <contour>
      <point x="592" y="392" type="line"/>
      <point x="479" y="776" type="line"/>
      <point x="416" y="776" type="line"/>
      <point x="126" y="392" type="line"/>
      <point x="237" y="0" type="line"/>
      <point x="300" y="0" type="line"/>
    </contour>
    <contour>
      <point x="484" y="392" type="line"/>
      <point x="303.333" y="146.667" type="line"/>
      <point x="234" y="392" type="line"/>
      <point x="414.333" y="628.333" type="line"/>
    </contour>
  </outline>
</glyph>
<glyph name="uni0414.loclBGR" format="2">
  <advance width="711"/>
  <outline>
    <contour>
      <point x="230.667" y="106.333" type="line"/>
      <point x="299.046" y="228.574"/>
      <point x="410.45" y="425.967"/>
      <point x="477.667" y="544" type="curve"/>
      <point x="489.967" y="425.178"/>
      <point x="510.582" y="216.441"/>
      <point x="522.667" y="106.333" type="curve"/>
    </contour>
    <contour>
      <point x="652.667" y="-147.667" type="line"/>
      <point x="710.667" y="106.333" type="line"/>
      <point x="654.667" y="106.333" type="line"/>
      <point x="579.667" y="722" type="line"/>
      <point x="455.667" y="722" type="line"/>
      <point x="359.79" y="558.087"/>
      <point x="192.663" y="271.118"/>
      <point x="96" y="106.333" type="curve"/>
      <point x="37.6667" y="106.333" type="line"/>
      <point x="-21" y="-147.667" type="line"/>
      <point x="102" y="-147.667" type="line"/>
      <point x="135.667" y="0" type="line"/>
      <point x="563.667" y="0" type="line"/>
      <point x="530" y="-147.667" type="line"/>
    </contour>
  </outline>
</glyph>
<glyph name="uni041B.loclBGR" format="2">
  <advance width="663"/>
  <outline>
    <contour>
      <point x="11.6667" y="0" type="line"/>
      <point x="154.667" y="0" type="line"/>
      <point x="456.667" y="544" type="line"/>
      <point x="508" y="0" type="line"/>
      <point x="651" y="0" type="line"/>
      <point x="567" y="722" type="line"/>
      <point x="429.667" y="722" type="line"/>
    </contour>
  </outline>
</glyph>
